<svg width="75" height="18" viewBox="0 0 75 18" fill="none" xmlns="http://www.w3.org/2000/svg">
<path d="M6.288 14.632L5.712 14.56C5.52 14.432 5.368 14.264 5.256 14.056C5.16 13.864 5.072 13.672 4.992 13.48H4.872C4.6 13.48 4.424 13.528 4.344 13.624C4.28 13.736 4.216 13.84 4.152 13.936C4.088 14.048 3.928 14.104 3.672 14.104C3.496 14.104 3.312 14.08 3.12 14.032C2.928 14 2.736 13.984 2.544 13.984C2.432 13.984 2.328 14 2.232 14.032C2.152 14.064 2.056 14.08 1.944 14.08C1.704 14.08 1.448 14.04 1.176 13.96C0.904 13.88 0.664 13.752 0.456 13.576C0.264 13.4 0.168 13.176 0.168 12.904C0.168 12.52 0.32 12.216 0.624 11.992C0.944 11.752 1.272 11.608 1.608 11.56L1.56 11.608C1.384 11.72 1.176 11.864 0.936 12.04C0.696 12.2 0.576 12.408 0.576 12.664C0.576 12.888 0.712 13.064 0.984 13.192C1.272 13.32 1.512 13.384 1.704 13.384L1.824 13.336C2.016 13.384 2.24 13.408 2.496 13.408C2.88 13.408 3.28 13.376 3.696 13.312C4.128 13.248 4.488 13.184 4.776 13.12V12.952C4.632 12.744 4.56 12.544 4.56 12.352L4.824 11.704L4.656 11.464L4.872 11.056V10.984L4.68 10.96L4.56 11.056V11.032L4.656 10.888C4.608 10.68 4.64 10.448 4.752 10.192C4.88 9.936 5.008 9.68 5.136 9.424C5.28 9.152 5.352 8.912 5.352 8.704C5.48 8.592 5.624 8.376 5.784 8.056C5.96 7.72 6.128 7.376 6.288 7.024C6.448 6.672 6.576 6.408 6.672 6.232C6.976 5.624 7.32 5.04 7.704 4.48C8.088 3.904 8.496 3.344 8.928 2.8C8.768 2.848 8.608 2.896 8.448 2.944C8.304 2.992 8.144 3.016 7.968 3.016C7.856 3.096 7.624 3.184 7.272 3.28C6.92 3.376 6.544 3.48 6.144 3.592C5.76 3.688 5.424 3.792 5.136 3.904C4.848 4 4.704 4.096 4.704 4.192L4.776 4.312L5.16 4.048L5.256 4.096L5.4 3.976L5.424 4.072C5.424 4.264 5.376 4.432 5.28 4.576L5.184 4.36L4.968 4.504L5.016 4.672L4.872 4.72C4.952 4.768 5.016 4.832 5.064 4.912C5.128 4.992 5.184 5.072 5.232 5.152C4.864 5.168 4.512 5.296 4.176 5.536C3.856 5.76 3.512 5.896 3.144 5.944C3.064 6.056 2.96 6.128 2.832 6.16C2.704 6.192 2.576 6.208 2.448 6.208C2.368 6.208 2.248 6.136 2.088 5.992C1.928 5.832 1.784 5.664 1.656 5.488C1.544 5.296 1.488 5.16 1.488 5.08C1.488 4.904 1.592 4.72 1.8 4.528C2.008 4.336 2.168 4.192 2.28 4.096L2.016 4.576C2.208 4.448 2.48 4.312 2.832 4.168C3.184 4.024 3.544 3.888 3.912 3.76C4.296 3.616 4.64 3.48 4.944 3.352C5.248 3.208 5.456 3.088 5.568 2.992C6.192 2.816 6.824 2.656 7.464 2.512C8.12 2.352 8.768 2.24 9.408 2.176C9.488 2.08 9.616 1.936 9.792 1.744C9.984 1.536 10.176 1.352 10.368 1.192C10.56 1.016 10.72 0.927999 10.848 0.927999C11.136 0.927999 11.392 0.943999 11.616 0.975999C11.84 0.992 12.008 1.152 12.12 1.456C12.12 1.632 12.048 1.792 11.904 1.936C11.776 2.064 11.648 2.168 11.52 2.248L11.76 2.296C11.888 2.248 11.992 2.168 12.072 2.056L12.216 2.032H12.264C12.36 2.032 12.44 2.056 12.504 2.104C12.584 2.152 12.656 2.208 12.72 2.272L12.984 2.152C13.384 2.152 13.872 2.256 14.448 2.464C15.024 2.656 15.592 2.92 16.152 3.256C16.728 3.592 17.2 3.976 17.568 4.408C17.952 4.824 18.144 5.264 18.144 5.728C18.144 5.936 18.128 6.144 18.096 6.352C18.064 6.544 18.032 6.736 18 6.928L17.856 6.88L17.736 6.976V7.024L17.928 7.24C17.816 7.592 17.64 7.928 17.4 8.248C17.176 8.552 16.928 8.824 16.656 9.064C16.4 9.128 16.144 9.296 15.888 9.568C15.632 9.84 15.368 10.04 15.096 10.168C14.92 10.376 14.736 10.52 14.544 10.6C14.352 10.68 14.168 10.856 13.992 11.128L13.776 10.912L13.728 10.984L13.752 11.128C13.752 11.256 13.632 11.32 13.392 11.32C13.328 11.32 13.264 11.32 13.2 11.32C13.152 11.304 13.112 11.296 13.08 11.296L12.96 11.416L12.984 11.608C12.968 11.624 12.888 11.68 12.744 11.776C12.616 11.872 12.552 11.88 12.552 11.8H12.504C12.232 11.96 11.984 12.112 11.76 12.256L11.592 12.136L11.472 12.352C11.456 12.32 11.424 12.272 11.376 12.208C11.328 12.128 11.272 12.08 11.208 12.064L10.944 12.352H10.92L10.632 12.208L10.368 12.4L10.248 12.304L9.84 12.496L9.864 12.52H10.032L10.176 12.664V12.688H10.104L9.72 12.592L9.456 12.688L9.312 12.664C9.472 12.536 9.656 12.424 9.864 12.328L9.72 12.256L9.408 12.496L9.192 12.4V12.496C9.048 12.528 8.944 12.592 8.88 12.688V12.904L8.784 12.928L8.52 12.808C8.44 12.84 8.36 12.872 8.28 12.904C8.216 12.936 8.152 12.976 8.088 13.024C7.768 13.056 7.456 13.136 7.152 13.264C6.848 13.408 6.528 13.48 6.192 13.48L6 13.384L5.976 13.984L6.144 14.344H6.168L6.312 14.56V14.584L6.288 14.632ZM6.024 12.76C7.304 12.376 8.544 11.912 9.744 11.368C10.96 10.808 12.152 10.208 13.32 9.568L13.44 9.592L13.56 9.568L13.536 9.472L13.608 9.376L13.728 9.472L14.016 9.256L13.992 9.208L13.848 9.16C13.896 9.032 14.096 8.872 14.448 8.68C14.8 8.472 15.184 8.232 15.6 7.96C16.032 7.672 16.408 7.344 16.728 6.976C17.048 6.592 17.208 6.152 17.208 5.656C17.208 5.112 17.056 4.664 16.752 4.312C16.448 3.944 16.056 3.648 15.576 3.424C15.096 3.2 14.568 3.032 13.992 2.92C13.432 2.808 12.888 2.728 12.36 2.68C11.832 2.632 11.376 2.608 10.992 2.608C10.832 2.768 10.712 2.936 10.632 3.112C10.568 3.272 10.48 3.408 10.368 3.52C10.256 3.632 10.064 3.688 9.792 3.688L9.6 3.856V4.096C9.36 4.208 9.184 4.424 9.072 4.744C8.96 5.048 8.824 5.304 8.664 5.512L8.616 5.704L8.688 5.776L8.232 6.544L8.184 6.736L8.088 6.664C8.088 6.76 8.024 6.96 7.896 7.264C7.768 7.552 7.616 7.88 7.44 8.248C7.264 8.6 7.104 8.944 6.96 9.28C6.832 9.616 6.752 9.872 6.72 10.048C6.608 10.16 6.504 10.408 6.408 10.792C6.312 11.16 6.232 11.536 6.168 11.92C6.104 12.304 6.056 12.584 6.024 12.76ZM10.152 12.208C10.28 12.16 10.4 12.08 10.512 11.968L10.416 11.92C10.352 11.936 10.288 11.968 10.224 12.016C10.176 12.048 10.12 12.08 10.056 12.112L10.152 12.208ZM18.7701 12.976C18.6581 12.976 18.4981 12.912 18.2901 12.784C18.0981 12.64 17.9141 12.48 17.7381 12.304C17.5781 12.128 17.4981 11.984 17.4981 11.872C17.4981 11.824 17.5941 11.76 17.7861 11.68C17.9781 11.584 18.2021 11.488 18.4581 11.392C18.7301 11.28 18.9781 11.176 19.2021 11.08C19.4261 10.984 19.5781 10.904 19.6581 10.84V10.888C19.6581 10.968 19.6101 11.08 19.5141 11.224C19.4341 11.368 19.3621 11.472 19.2981 11.536L19.3461 11.752L19.3221 12.04C19.2741 12.104 19.2261 12.216 19.1781 12.376C19.1461 12.52 19.0981 12.656 19.0341 12.784C18.9861 12.912 18.8981 12.976 18.7701 12.976ZM33.6101 15.328C33.4341 15.056 33.2901 14.792 33.1781 14.536C33.0661 14.296 32.9301 14.072 32.7701 13.864C32.6101 13.656 32.3621 13.48 32.0261 13.336L31.9061 13.216C31.3301 13.12 30.7541 12.992 30.1781 12.832C29.6181 12.672 29.0421 12.592 28.4501 12.592C28.0981 12.592 27.7381 12.6 27.3701 12.616C27.0181 12.616 26.6581 12.616 26.2901 12.616C26.1141 12.616 25.9301 12.616 25.7381 12.616C25.5621 12.616 25.3861 12.608 25.2101 12.592C25.0341 12.784 24.7941 13.024 24.4901 13.312C24.1861 13.6 23.8661 13.856 23.5301 14.08C23.1941 14.304 22.8901 14.424 22.6181 14.44C22.4421 14.536 22.2501 14.6 22.0421 14.632C21.8501 14.664 21.6581 14.68 21.4661 14.68C21.1301 14.68 20.8581 14.616 20.6501 14.488C20.4421 14.36 20.3381 14.112 20.3381 13.744C20.3381 13.12 20.5301 12.64 20.9141 12.304C21.3141 11.968 21.8021 11.728 22.3781 11.584C22.9541 11.424 23.5381 11.336 24.1301 11.32C24.7381 11.288 25.2421 11.28 25.6421 11.296C26.1381 10.688 26.5621 10.048 26.9141 9.376C27.2821 8.688 27.6421 8 27.9941 7.312L28.2101 7.192L28.0901 7.048L28.3781 6.688L28.2581 6.448L28.5461 6.352L28.4501 6.304L28.7141 6.112L28.6661 5.992L28.8101 5.968L28.8581 5.8L29.0501 5.488C29.1301 5.408 29.2021 5.328 29.2661 5.248C29.3461 5.152 29.4181 5.064 29.4821 4.984L29.3141 4.792C29.3781 4.664 29.4421 4.536 29.5061 4.408C29.5701 4.264 29.6341 4.136 29.6981 4.024L29.6741 4C29.6741 3.872 29.7701 3.712 29.9621 3.52C30.1701 3.312 30.4101 3.104 30.6821 2.896C30.9701 2.672 31.2421 2.48 31.4981 2.32C31.7541 2.16 31.9381 2.056 32.0501 2.008C32.3061 2.152 32.5461 2.224 32.7701 2.224C32.9941 2.224 33.2181 2.248 33.4421 2.296C33.6821 2.328 33.9301 2.496 34.1861 2.8L34.1141 2.968C34.0501 2.92 33.9781 2.88 33.8981 2.848C33.8341 2.8 33.7621 2.776 33.6821 2.776L32.2421 3.4L32.0501 3.832C31.8741 4.136 31.6101 4.424 31.2581 4.696C30.9221 4.952 30.6181 5.344 30.3461 5.872C30.2181 5.888 30.1061 5.944 30.0101 6.04C29.9141 6.136 29.8261 6.232 29.7461 6.328L29.8901 6.52L29.6261 6.688L29.4581 7.168C29.2501 7.312 29.0021 7.56 28.7141 7.912C28.4421 8.264 28.1461 8.664 27.8261 9.112C27.5221 9.544 27.2261 9.968 26.9381 10.384C26.6661 10.784 26.4341 11.104 26.2421 11.344C26.7061 11.392 27.1781 11.448 27.6581 11.512C28.1541 11.576 28.6261 11.608 29.0741 11.608C29.3781 11.608 29.6661 11.696 29.9381 11.872L29.7941 11.992C29.8261 12.008 29.8821 12.016 29.9621 12.016C30.0421 12.016 30.1141 12.016 30.1781 12.016C30.2421 12 30.3061 11.984 30.3701 11.968L30.4421 12.184C30.5861 12.2 30.7381 12.224 30.8981 12.256C31.0741 12.288 31.1941 12.368 31.2581 12.496L31.4741 12.52C31.6661 12.632 31.8021 12.776 31.8821 12.952C31.9781 13.112 32.1461 13.184 32.3861 13.168C32.4501 13.136 32.4981 13.12 32.5301 13.12C32.6581 13.12 32.8181 13.216 33.0101 13.408C33.2021 13.6 33.3701 13.816 33.5141 14.056C33.6741 14.296 33.7541 14.48 33.7541 14.608C33.7541 14.72 33.7301 14.832 33.6821 14.944C33.6501 15.072 33.6261 15.2 33.6101 15.328ZM30.1061 3.664C30.3461 3.52 30.5781 3.336 30.8021 3.112L30.6101 3.184C30.5461 3.248 30.4661 3.312 30.3701 3.376C30.2901 3.424 30.2021 3.48 30.1061 3.544V3.664ZM30.0101 5.128H30.0341L30.1781 4.984V4.912L30.1301 4.816L30.0581 4.864L29.9621 5.08L30.0101 5.128ZM21.4421 14.296C22.0821 14.296 22.6501 14.104 23.1461 13.72C23.6421 13.352 24.1141 12.968 24.5621 12.568C24.4501 12.536 24.3381 12.52 24.2261 12.52C24.1301 12.504 24.0261 12.488 23.9141 12.472C23.8501 12.504 23.8021 12.52 23.7701 12.52C23.7061 12.52 23.6341 12.496 23.5541 12.448C23.3301 12.464 23.1061 12.504 22.8821 12.568C22.6741 12.632 22.4581 12.688 22.2341 12.736C22.1861 12.8 22.0741 12.848 21.8981 12.88C21.7381 12.896 21.5621 12.952 21.3701 13.048C21.1941 13.144 21.0421 13.336 20.9141 13.624C20.9941 13.816 21.0261 13.976 21.0101 14.104C21.0101 14.232 21.1541 14.296 21.4421 14.296ZM34.2911 13.168C34.1471 13.168 33.9711 13.072 33.7631 12.88C33.5711 12.688 33.4111 12.544 33.2831 12.448C33.2511 12.24 33.1951 12.056 33.1151 11.896C33.0351 11.72 32.9951 11.536 32.9951 11.344C32.9951 11.056 33.0991 10.72 33.3071 10.336C33.5311 9.936 33.8111 9.544 34.1471 9.16C34.4991 8.776 34.8511 8.456 35.2031 8.2C35.5711 7.944 35.8991 7.816 36.1871 7.816V7.768C36.4111 7.816 36.6191 7.96 36.8111 8.2C37.0191 8.44 37.1231 8.664 37.1231 8.872C37.1231 9.064 37.0031 9.264 36.7631 9.472C36.5391 9.664 36.2591 9.848 35.9231 10.024C35.6031 10.184 35.2831 10.312 34.9631 10.408C34.6591 10.504 34.4191 10.552 34.2431 10.552V10.6C34.1311 10.776 34.0191 11 33.9071 11.272C33.8111 11.528 33.7631 11.768 33.7631 11.992C33.7631 12.072 33.7871 12.16 33.8351 12.256C33.9471 12.336 34.0911 12.376 34.2671 12.376C34.4431 12.36 34.5871 12.36 34.6991 12.376L34.7231 12.4L34.7951 12.28C35.0031 12.264 35.2031 12.216 35.3951 12.136V11.992H35.5391V11.92L35.6351 11.944C35.7151 11.912 35.7711 11.88 35.8031 11.848C35.8511 11.8 35.9071 11.76 35.9711 11.728L36.1151 11.8V11.776L36.5471 11.368H36.5711L36.6431 11.416V11.392C36.8511 11.2 37.0751 11.024 37.3151 10.864C37.5551 10.704 37.7311 10.496 37.8431 10.24L38.1071 10.048L38.1551 10.096C38.1551 10.208 38.1151 10.312 38.0351 10.408C37.9551 10.504 37.8591 10.568 37.7471 10.6C37.6191 10.904 37.4271 11.16 37.1711 11.368C36.9311 11.576 36.6831 11.792 36.4271 12.016H36.3551L36.3311 12.136C36.0271 12.344 35.7071 12.568 35.3711 12.808C35.0511 13.048 34.6911 13.168 34.2911 13.168ZM34.7471 10.096H34.7951V10.048C34.9071 10.016 35.0991 9.92 35.3711 9.76C35.6591 9.6 35.9311 9.432 36.1871 9.256C36.4431 9.064 36.5791 8.928 36.5951 8.848H36.6191L36.5951 8.728L36.6191 8.608C36.6031 8.608 36.5711 8.608 36.5231 8.608C36.4751 8.592 36.4351 8.584 36.4031 8.584C36.1951 8.728 35.9871 8.864 35.7791 8.992C35.5711 9.12 35.3631 9.248 35.1551 9.376H35.1071L35.0831 9.568C34.9871 9.632 34.9151 9.712 34.8671 9.808C34.8191 9.888 34.7791 9.984 34.7471 10.096ZM38.3951 10.024L38.2511 9.976L38.2271 9.832L38.4671 9.76L38.4911 9.832L38.3951 10.024ZM38.5556 13.72C38.4116 13.72 38.2756 13.696 38.1476 13.648L38.0276 13.504C37.7876 13.44 37.6196 13.352 37.5236 13.24C37.4276 13.128 37.3796 12.944 37.3796 12.688C37.3796 12.576 37.4116 12.368 37.4756 12.064C37.5556 11.744 37.6516 11.44 37.7636 11.152C37.8756 10.864 37.9876 10.72 38.0996 10.72C38.1156 10.544 38.1796 10.32 38.2916 10.048C38.4036 9.776 38.5476 9.616 38.7236 9.568V9.544L38.9396 9.256H38.9876L39.0356 8.896C39.0836 8.88 39.1236 8.832 39.1556 8.752L37.6916 9.328L37.5476 9.232C37.5636 9.152 37.6356 9.072 37.7636 8.992C37.9076 8.896 38.0516 8.816 38.1956 8.752C38.3556 8.672 38.4676 8.632 38.5316 8.632C38.7556 8.488 38.9716 8.408 39.1796 8.392L39.2756 8.296L39.4196 8.32L39.7076 8.224C39.7876 8.128 39.8676 8.024 39.9476 7.912C40.0276 7.8 40.0676 7.68 40.0676 7.552C40.1476 7.424 40.2356 7.312 40.3316 7.216C40.4436 7.104 40.5476 6.992 40.6436 6.88H40.7156C40.7956 6.8 40.8836 6.76 40.9796 6.76L41.0756 6.64V6.376L41.1716 6.304C41.2516 6.208 41.3556 6.064 41.4836 5.872C41.6276 5.664 41.6996 5.504 41.6996 5.392C41.6996 5.328 41.6436 5.296 41.5316 5.296C41.3876 5.296 41.2676 5.312 41.1716 5.344V5.224L42.3956 4.192V4.168C42.6036 4.024 42.8036 3.872 42.9956 3.712C43.1876 3.536 43.3876 3.384 43.5956 3.256C43.7716 3.288 43.9636 3.344 44.1716 3.424C44.3796 3.488 44.5236 3.608 44.6036 3.784V4.096C44.4916 4.208 44.2996 4.408 44.0276 4.696C43.7556 4.984 43.4436 5.312 43.0916 5.68C42.7396 6.032 42.3876 6.384 42.0356 6.736C41.6836 7.072 41.3716 7.352 41.0996 7.576C40.8436 7.8 40.6676 7.92 40.5716 7.936L40.4276 8.056C40.6836 8.024 40.9236 7.992 41.1476 7.96C41.3876 7.912 41.6276 7.888 41.8676 7.888C42.1716 7.888 42.4996 7.936 42.8516 8.032C43.2196 8.128 43.4676 8.336 43.5956 8.656L43.7396 8.8V9.04C43.7556 9.104 43.7716 9.168 43.7876 9.232C43.8036 9.296 43.8116 9.36 43.8116 9.424C43.8116 9.6 43.7716 9.72 43.6916 9.784C43.6116 9.832 43.5316 9.864 43.4516 9.88C43.3716 9.896 43.3316 9.936 43.3316 10L43.5236 10.072V10.096C43.5236 10.256 43.3796 10.48 43.0916 10.768C42.8196 11.056 42.4676 11.368 42.0356 11.704C41.6036 12.04 41.1476 12.368 40.6676 12.688C40.2036 12.992 39.7796 13.24 39.3956 13.432C39.0116 13.624 38.7316 13.72 38.5556 13.72ZM40.8356 5.56L40.8116 5.488L40.8836 5.32L41.0276 5.344L41.0756 5.512L40.8356 5.56ZM38.7956 13.384C39.0836 13.384 39.4116 13.232 39.7796 12.928C40.1476 12.624 40.5076 12.248 40.8596 11.8C41.2116 11.336 41.4996 10.888 41.7236 10.456C41.9636 10.008 42.0836 9.656 42.0836 9.4C42.0836 9.064 41.9236 8.824 41.6036 8.68C41.2996 8.536 41.0116 8.464 40.7396 8.464C40.7076 8.464 40.6436 8.48 40.5476 8.512C40.4516 8.544 40.3796 8.568 40.3316 8.584L40.2836 8.656C40.1076 8.704 39.9556 8.8 39.8276 8.944C39.7156 9.088 39.6596 9.256 39.6596 9.448C39.5956 9.464 39.4836 9.568 39.3236 9.76C39.1796 9.936 39.0196 10.056 38.8436 10.12L38.7476 10.408C38.7316 10.52 38.6676 10.632 38.5556 10.744C38.4596 10.84 38.3716 10.928 38.2916 11.008C38.2116 11.248 38.1236 11.488 38.0276 11.728C37.9476 11.968 37.8916 12.216 37.8596 12.472C37.8916 12.36 37.9396 12.256 38.0036 12.16C38.0836 12.048 38.1236 11.936 38.1236 11.824L38.2436 11.752L38.4596 11.32V11.224L38.6036 10.96L38.6756 10.984L38.7476 10.816L38.8676 10.72V10.696C38.9316 10.664 38.9876 10.632 39.0356 10.6C39.0996 10.552 39.1556 10.512 39.2036 10.48C39.2036 10.352 39.2676 10.256 39.3956 10.192C39.5236 10.128 39.5956 10.04 39.6116 9.928L39.7556 9.88L39.9236 9.664H40.0196L40.2596 9.448L40.4996 9.376V9.472C40.2116 9.632 39.9156 9.904 39.6116 10.288C39.3076 10.656 39.0436 11.064 38.8196 11.512C38.6116 11.944 38.5076 12.328 38.5076 12.664C38.5076 12.776 38.5156 12.92 38.5316 13.096C38.5636 13.288 38.6516 13.384 38.7956 13.384ZM37.8116 12.88L37.8836 12.736V12.688L37.8356 12.664L37.8116 12.88ZM37.8356 13.096V13.072L37.9556 12.928H37.9316L37.8116 12.904L37.8356 13.096ZM45.7243 12.448C45.4843 12.448 45.2843 12.392 45.1243 12.28C44.9643 12.152 44.8203 11.984 44.6923 11.776H44.6443L44.6683 11.584L44.6203 11.608V11.464L44.7403 11.368H44.6923L44.5483 11.248H44.5963L44.6443 11.152V11.104L44.5963 10.984V10.936H44.5483L44.2123 10.768V10.696C44.1003 10.584 44.0043 10.464 43.9243 10.336C43.8603 10.192 43.8283 10.04 43.8283 9.88C43.8283 9.656 43.9243 9.392 44.1163 9.088C44.3243 8.784 44.5643 8.512 44.8363 8.272C45.1243 8.032 45.3803 7.912 45.6043 7.912C45.7163 7.8 45.8763 7.744 46.0843 7.744L46.1563 7.672L46.2763 7.696C46.4523 7.616 46.6443 7.592 46.8523 7.624L46.8763 7.576H48.2203C48.3483 7.576 48.5083 7.608 48.7003 7.672C48.9083 7.736 49.0683 7.784 49.1803 7.816C49.3243 7.976 49.5163 8.104 49.7563 8.2C49.9963 8.28 50.1163 8.456 50.1163 8.728C50.1163 9.064 50.0203 9.384 49.8283 9.688C49.6363 9.992 49.4123 10.232 49.1563 10.408H49.1323C49.1163 10.456 49.0363 10.536 48.8923 10.648C48.7643 10.744 48.6203 10.848 48.4603 10.96C48.3163 11.056 48.2203 11.128 48.1723 11.176L48.1003 11.392C47.9883 11.392 47.8843 11.432 47.7883 11.512C47.6923 11.576 47.6443 11.664 47.6443 11.776C47.6763 11.84 47.7483 11.896 47.8603 11.944C47.9723 11.976 48.0683 11.992 48.1483 11.992L48.0523 12.04C47.5403 12.04 47.1483 12.08 46.8763 12.16C46.6043 12.224 46.3883 12.288 46.2283 12.352C46.0683 12.416 45.9003 12.448 45.7243 12.448ZM46.3723 11.824C46.8683 11.584 47.2123 11.4 47.4043 11.272C47.6123 11.128 47.7563 11.008 47.8363 10.912C47.9163 10.8 48.0203 10.656 48.1483 10.48C48.2763 10.304 48.5083 10.056 48.8443 9.736V9.688C48.7803 9.688 48.7243 9.68 48.6763 9.664C48.6923 9.52 48.7243 9.384 48.7723 9.256C48.8363 9.112 48.8683 8.96 48.8683 8.8C48.8683 8.512 48.7563 8.28 48.5323 8.104C48.3243 7.912 48.0843 7.816 47.8123 7.816C47.6683 7.816 47.5163 7.832 47.3563 7.864C47.2123 7.896 47.0763 7.936 46.9483 7.984L46.6363 7.96C46.3803 8.056 46.0923 8.2 45.7723 8.392C45.4683 8.584 45.2043 8.816 44.9803 9.088C44.7563 9.344 44.6443 9.632 44.6443 9.952C44.6443 10.112 44.6763 10.248 44.7403 10.36L44.8363 10.384V10.312L44.9563 10.24L45.1243 9.88V9.784L45.2683 9.568L45.3163 9.592L45.3883 9.448L45.5083 9.376V9.352C45.5563 9.336 45.6043 9.32 45.6523 9.304C45.7163 9.288 45.7723 9.264 45.8203 9.232C45.8203 9.104 45.8763 9.032 45.9883 9.016C46.1003 8.984 46.1643 8.912 46.1803 8.8H46.3243L46.4923 8.608L46.5883 8.68L46.8043 8.536H47.0203V8.608C46.7803 8.672 46.5163 8.848 46.2283 9.136C45.9403 9.408 45.7003 9.712 45.5083 10.048C45.3163 10.384 45.2283 10.688 45.2443 10.96L45.2683 11.392C45.4443 11.472 45.6203 11.568 45.7963 11.68C45.9723 11.776 46.1643 11.824 46.3723 11.824ZM45.6763 11.992L45.8203 11.92L45.2683 11.656L45.2203 11.68L45.3163 11.896L45.6763 11.992ZM50.2073 17.824C49.9193 17.824 49.6233 17.736 49.3193 17.56C49.0312 17.384 48.7912 17.16 48.5992 16.888C48.4072 16.616 48.3112 16.336 48.3112 16.048L48.3832 15.904C48.5592 16.08 48.6872 16.264 48.7672 16.456C48.8312 16.664 48.9272 16.84 49.0553 16.984C49.1993 17.128 49.4393 17.2 49.7753 17.2C49.8553 17.2 49.9273 17.192 49.9913 17.176C50.0553 17.16 50.1193 17.144 50.1833 17.128C50.3273 17.176 50.5433 17.08 50.8313 16.84C51.1193 16.616 51.4153 16.328 51.7193 15.976C52.0393 15.64 52.3113 15.304 52.5353 14.968C52.7753 14.648 52.9033 14.416 52.9193 14.272C53.1913 13.904 53.4393 13.512 53.6633 13.096C53.8873 12.696 54.1033 12.304 54.3113 11.92L54.3353 11.608L54.5513 11.512L54.5273 11.464V11.104L55.1033 10.096L55.0793 10C54.6793 10.496 54.2633 11.008 53.8313 11.536C53.4153 12.048 52.9913 12.552 52.5592 13.048C52.4633 13.144 52.3513 13.2 52.2233 13.216C52.0953 13.248 51.9673 13.264 51.8393 13.264C51.5833 13.264 51.3913 13.176 51.2633 13C51.1353 12.84 51.0713 12.64 51.0713 12.4C51.0713 12.096 51.1273 11.808 51.2393 11.536C51.3673 11.248 51.5033 10.984 51.6473 10.744L51.6233 10.672C51.7513 10.56 51.8473 10.408 51.9113 10.216C51.9913 10.008 52.0793 9.832 52.1753 9.688C51.7433 9.992 51.3193 10.336 50.9033 10.72C50.5033 11.104 50.1033 11.48 49.7033 11.848L49.6793 11.8C49.6793 11.752 49.7673 11.624 49.9433 11.416C50.1353 11.192 50.3673 10.936 50.6393 10.648C50.9273 10.36 51.2153 10.072 51.5033 9.784C51.8073 9.48 52.0713 9.216 52.2953 8.992C52.5353 8.768 52.6953 8.624 52.7753 8.56L53.6153 8.344C53.6953 8.312 53.8313 8.344 54.0233 8.44C54.2153 8.52 54.3113 8.608 54.3113 8.704C54.3113 8.8 54.2313 8.944 54.0713 9.136C53.9113 9.312 53.7913 9.44 53.7113 9.52H53.6873L53.7353 9.616L53.2073 10.144L53.1833 10.288L53.0153 10.336C52.9833 10.368 52.9433 10.416 52.8953 10.48C52.8633 10.528 52.8633 10.592 52.8953 10.672C52.7193 10.736 52.6313 10.816 52.6313 10.912C52.6313 10.944 52.6313 10.984 52.6313 11.032C52.6473 11.064 52.6633 11.104 52.6793 11.152L52.4393 11.296L52.4873 11.368C52.4073 11.4 52.3673 11.488 52.3673 11.632L52.3913 11.872L52.4393 11.944C52.4393 12.04 52.4233 12.128 52.3913 12.208C52.3593 12.288 52.3353 12.376 52.3193 12.472L52.3673 12.52C52.5113 12.504 52.7353 12.344 53.0393 12.04C53.3433 11.72 53.6633 11.336 53.9993 10.888C54.3353 10.44 54.6313 10.016 54.8873 9.616C55.1593 9.216 55.3353 8.928 55.4153 8.752C55.4953 8.608 55.5753 8.472 55.6553 8.344C55.7353 8.216 55.8553 8.152 56.0153 8.152H56.2313C56.3593 8.152 56.4953 8.192 56.6393 8.272C56.7993 8.352 56.8793 8.472 56.8793 8.632C56.8793 8.712 56.8153 8.904 56.6873 9.208C56.5593 9.512 56.3993 9.872 56.2073 10.288C56.0313 10.704 55.8393 11.12 55.6313 11.536C55.4233 11.952 55.2393 12.312 55.0793 12.616C54.9193 12.92 54.8073 13.112 54.7433 13.192C54.7273 13.288 54.6953 13.424 54.6473 13.6C54.5993 13.792 54.5273 13.912 54.4313 13.96C54.1913 14.408 53.9113 14.816 53.5913 15.184C53.2873 15.568 52.9913 15.968 52.7033 16.384L52.2953 16.576C52.2313 16.64 52.1753 16.704 52.1273 16.768C52.0793 16.848 52.0153 16.912 51.9353 16.96H51.8633C51.6233 17.2 51.3753 17.4 51.1193 17.56C50.8793 17.736 50.5753 17.824 50.2073 17.824ZM61.4241 14.584L60.9441 14.032C60.8641 13.712 60.7761 13.384 60.6801 13.048C60.6001 12.728 60.5441 12.4 60.5121 12.064L60.6321 11.608L60.5841 11.584C60.6481 11.408 60.7121 11.232 60.7761 11.056C60.8561 10.864 60.8961 10.68 60.8961 10.504C60.8161 10.584 60.7281 10.664 60.6321 10.744C60.5521 10.824 60.4881 10.92 60.4401 11.032C60.3761 11.096 60.3201 11.176 60.2721 11.272C60.2241 11.368 60.1601 11.448 60.0801 11.512L60.0561 11.728C59.8321 11.776 59.6081 11.888 59.3841 12.064C59.1761 12.224 58.9681 12.384 58.7601 12.544C58.5521 12.688 58.3281 12.76 58.0881 12.76C57.9761 12.76 57.8321 12.752 57.6561 12.736C57.4961 12.704 57.3761 12.656 57.2961 12.592C57.0881 12.544 56.9361 12.488 56.8401 12.424C56.7601 12.344 56.6961 12.2 56.6481 11.992L56.7441 11.68L56.6721 11.488C56.7521 11.232 56.8081 11.048 56.8401 10.936C56.8881 10.824 56.9521 10.728 57.0321 10.648C57.1281 10.568 57.2801 10.448 57.4881 10.288C57.5041 10.208 57.5441 10.152 57.6081 10.12C57.6881 10.072 57.7601 10.04 57.8241 10.024L57.8481 9.904L58.0881 9.616L58.1601 9.664L58.3041 9.448C58.4161 9.368 58.5281 9.32 58.6401 9.304C58.7681 9.272 58.8881 9.224 59.0001 9.16C59.0321 8.984 59.1361 8.88 59.3121 8.848C59.5041 8.8 59.6161 8.712 59.6481 8.584H59.7441L60.1521 8.32L60.2961 8.392L60.6321 8.176C60.7281 8.176 60.8161 8.168 60.8961 8.152C60.9921 8.136 61.0801 8.128 61.1601 8.128L61.2561 8.176C60.9361 8.288 60.5681 8.472 60.1521 8.728C59.7361 8.968 59.3281 9.256 58.9281 9.592C58.5441 9.912 58.2241 10.264 57.9681 10.648C57.7121 11.032 57.5841 11.416 57.5841 11.8C57.5841 12.104 57.7441 12.256 58.0641 12.256C58.3521 12.256 58.6481 12.168 58.9521 11.992C59.2721 11.816 59.5601 11.6 59.8161 11.344C60.0721 11.088 60.2561 10.84 60.3681 10.6L60.7761 10.264C60.8081 10.184 60.8481 10.128 60.8961 10.096C60.9441 10.064 60.9761 10.008 60.9921 9.928C61.1041 9.912 61.1841 9.816 61.2321 9.64C61.2801 9.464 61.3361 9.272 61.4001 9.064C61.4641 8.84 61.5521 8.648 61.6641 8.488C61.7761 8.328 61.9441 8.248 62.1681 8.248C62.3441 8.248 62.5441 8.328 62.7681 8.488C62.9921 8.632 63.1041 8.808 63.1041 9.016C63.1041 9.128 63.0081 9.344 62.8161 9.664C62.6241 9.984 62.4001 10.36 62.1441 10.792C61.9041 11.224 61.6881 11.672 61.4961 12.136C61.3041 12.6 61.2081 13.04 61.2081 13.456C61.2081 13.632 61.2401 13.808 61.3041 13.984C61.3841 14.16 61.4321 14.336 61.4481 14.512L61.4241 14.584ZM67.0238 12.76C66.7838 12.76 66.5998 12.664 66.4718 12.472L65.9198 12.208C65.8558 12.064 65.8238 11.888 65.8238 11.68C65.8238 11.344 65.9038 10.984 66.0638 10.6C66.2398 10.2 66.4078 9.864 66.5678 9.592C66.4558 9.528 66.3598 9.448 66.2798 9.352C66.1998 9.256 66.1198 9.16 66.0398 9.064L65.9678 9.016C65.9038 9.08 65.8318 9.136 65.7518 9.184C65.6718 9.232 65.5918 9.264 65.5117 9.28C65.3678 9.424 65.1598 9.664 64.8878 10C64.6158 10.32 64.3198 10.656 63.9998 11.008C63.6798 11.344 63.3678 11.64 63.0638 11.896C62.7758 12.152 62.5438 12.28 62.3678 12.28L62.3438 12.232C62.3598 12.136 62.4318 12.032 62.5598 11.92C62.7038 11.792 62.8078 11.696 62.8718 11.632C62.9038 11.504 62.9838 11.392 63.1118 11.296C63.2398 11.2 63.3598 11.128 63.4718 11.08H63.4958L63.6398 10.864L63.7598 10.792L63.7358 10.768L63.9038 10.648C63.9358 10.568 63.9838 10.496 64.0478 10.432C64.1118 10.368 64.1678 10.304 64.2158 10.24V10.192C64.5678 9.92 64.8878 9.624 65.1758 9.304C65.4798 8.968 65.7918 8.64 66.1118 8.32L66.1358 8.296L66.1118 8.152C66.1118 7.976 66.1518 7.784 66.2318 7.576C66.3278 7.352 66.4318 7.184 66.5438 7.072C66.6558 6.912 66.7918 6.744 66.9518 6.568C67.1278 6.376 67.3198 6.28 67.5278 6.28C67.6878 6.28 67.7838 6.36 67.8158 6.52C67.8478 6.664 67.8638 6.792 67.8638 6.904C67.8638 7.304 67.7598 7.616 67.5518 7.84C67.3438 8.048 67.1278 8.208 66.9038 8.32C66.6958 8.432 66.5918 8.552 66.5918 8.68L66.9758 8.848L67.1198 8.728L67.1438 8.752H67.1918C67.2878 8.704 67.3838 8.664 67.4798 8.632C67.5758 8.584 67.6798 8.56 67.7918 8.56C67.8878 8.56 67.9838 8.592 68.0798 8.656C68.1758 8.704 68.2558 8.752 68.3198 8.8L68.3438 9.016C68.3598 9.16 68.2958 9.32 68.1518 9.496C68.0238 9.656 67.8638 9.848 67.6718 10.072C67.4798 10.28 67.3118 10.536 67.1678 10.84C67.0238 11.128 66.9518 11.464 66.9518 11.848C66.9518 11.944 66.9678 12.048 66.9998 12.16C67.0478 12.256 67.1358 12.304 67.2638 12.304C67.4558 12.304 67.6718 12.232 67.9118 12.088C68.1518 11.944 68.3918 11.784 68.6318 11.608C68.8718 11.416 69.0718 11.272 69.2318 11.176L69.3278 11.296C69.3278 11.408 69.2318 11.544 69.0398 11.704C68.8478 11.864 68.6158 12.024 68.3438 12.184C68.0718 12.344 67.8078 12.48 67.5518 12.592C67.3118 12.704 67.1358 12.76 67.0238 12.76ZM70.0333 13.168C69.8893 13.168 69.7133 13.072 69.5053 12.88C69.3133 12.688 69.1533 12.544 69.0253 12.448C68.9933 12.24 68.9373 12.056 68.8573 11.896C68.7773 11.72 68.7373 11.536 68.7373 11.344C68.7373 11.056 68.8413 10.72 69.0493 10.336C69.2733 9.936 69.5533 9.544 69.8893 9.16C70.2413 8.776 70.5933 8.456 70.9453 8.2C71.3133 7.944 71.6413 7.816 71.9293 7.816V7.768C72.1533 7.816 72.3613 7.96 72.5533 8.2C72.7613 8.44 72.8653 8.664 72.8653 8.872C72.8653 9.064 72.7453 9.264 72.5053 9.472C72.2813 9.664 72.0013 9.848 71.6653 10.024C71.3453 10.184 71.0253 10.312 70.7053 10.408C70.4013 10.504 70.1613 10.552 69.9853 10.552V10.6C69.8733 10.776 69.7613 11 69.6493 11.272C69.5533 11.528 69.5053 11.768 69.5053 11.992C69.5053 12.072 69.5293 12.16 69.5773 12.256C69.6893 12.336 69.8333 12.376 70.0093 12.376C70.1853 12.36 70.3293 12.36 70.4413 12.376L70.4653 12.4L70.5373 12.28C70.7453 12.264 70.9453 12.216 71.1373 12.136V11.992H71.2813V11.92L71.3773 11.944C71.4573 11.912 71.5133 11.88 71.5453 11.848C71.5933 11.8 71.6493 11.76 71.7133 11.728L71.8573 11.8V11.776L72.2893 11.368H72.3133L72.3853 11.416V11.392C72.5933 11.2 72.8173 11.024 73.0573 10.864C73.2973 10.704 73.4733 10.496 73.5853 10.24L73.8493 10.048L73.8973 10.096C73.8973 10.208 73.8573 10.312 73.7773 10.408C73.6973 10.504 73.6013 10.568 73.4893 10.6C73.3613 10.904 73.1693 11.16 72.9133 11.368C72.6733 11.576 72.4253 11.792 72.1693 12.016H72.0973L72.0733 12.136C71.7693 12.344 71.4493 12.568 71.1133 12.808C70.7933 13.048 70.4333 13.168 70.0333 13.168ZM70.4893 10.096H70.5373V10.048C70.6493 10.016 70.8413 9.92 71.1133 9.76C71.4013 9.6 71.6733 9.432 71.9293 9.256C72.1853 9.064 72.3213 8.928 72.3373 8.848H72.3613L72.3373 8.728L72.3613 8.608C72.3453 8.608 72.3133 8.608 72.2653 8.608C72.2173 8.592 72.1773 8.584 72.1453 8.584C71.9373 8.728 71.7293 8.864 71.5213 8.992C71.3133 9.12 71.1053 9.248 70.8973 9.376H70.8493L70.8253 9.568C70.7293 9.632 70.6573 9.712 70.6093 9.808C70.5613 9.888 70.5213 9.984 70.4893 10.096ZM74.1373 10.024L73.9933 9.976L73.9693 9.832L74.2093 9.76L74.2333 9.832L74.1373 10.024Z" fill="#FFA416"/>
</svg>
