<svg width="1234" height="331" viewBox="0 0 1234 331" fill="none" xmlns="http://www.w3.org/2000/svg">
<path d="M279.538 1.48122C279.456 1.72733 278.39 2.17851 277.16 2.50664C275.93 2.83478 274.454 3.45005 273.88 3.94225C273.306 4.39344 272.199 5.04969 271.42 5.37783C270.641 5.74698 269.452 6.52631 268.755 7.14156C266.295 9.3975 261.334 12.9249 260.186 13.2121C259.038 13.4992 259.038 13.4992 259.284 11.8995C260.309 5.70597 260.022 4.02428 257.849 3.12191C256.824 2.67072 256.496 2.75273 254.774 3.90121C253.708 4.59849 252.601 5.17275 252.355 5.17275C252.068 5.17275 250.756 6.32124 249.403 7.71581C248.05 9.15141 246.738 10.4639 246.492 10.71C244.032 13.007 238.866 19.8978 237.718 22.3999C236.693 24.6558 233.864 28.0602 233.413 27.568C233.29 27.445 233.536 26.5016 233.987 25.4351C235.709 21.4975 233.413 18.1751 229.928 19.4877C229.231 19.7338 228.616 20.7182 227.755 22.8511C227.058 24.4917 226.115 26.3375 225.623 26.9117C224.598 28.1833 221.113 38.4785 220.744 41.4317C220.498 43.3185 219.555 46.5178 217.997 50.8246C217.669 51.686 216.521 53.3677 215.373 54.5161C212.749 57.2233 209.92 61.2839 209.92 62.2683C209.92 62.7195 209.428 63.868 208.854 64.8934C207.87 66.5751 206.558 69.8565 205.205 73.9172C204.918 74.8606 204.303 76.05 203.893 76.5833C202.991 77.7728 198.235 82.5307 196.595 83.9253C195.898 84.4995 194.627 85.8121 193.725 86.7965C192.782 87.8219 191.224 89.3805 190.24 90.2829C189.215 91.1853 186.509 93.8924 184.254 96.3124C181.958 98.6914 179.498 100.988 178.719 101.357C176.874 102.342 171.995 101.973 169.125 100.742C166.091 99.3887 162.401 96.9277 162.114 96.1073C161.991 95.6972 161.499 95.1639 161.007 94.9178C158.547 93.7694 151.29 83.0229 151.29 80.6029C151.29 80.2338 150.675 78.5521 149.896 76.8704C148.83 74.5324 148.133 73.548 147.026 72.8917C144.853 71.5382 143.705 69.9385 143.131 67.3955C142.557 64.8114 142.434 64.6473 139.605 63.6219C138.498 63.2117 137.104 62.5555 136.53 62.1863C135.956 61.8171 134.685 61.366 133.701 61.2429C132.594 61.1199 131.077 60.4636 129.765 59.5202C127.469 57.9616 125.419 57.3873 123.615 57.8385C122.59 58.0846 122.508 58.2487 122.713 59.6433C123.615 65.9599 124.189 70.8819 124.23 72.4816C124.23 73.63 124.722 75.5578 125.501 77.4036C126.198 79.0853 126.936 81.0951 127.182 81.8744C127.387 82.6538 127.92 83.6792 128.289 84.1304C129.273 85.2789 131.856 89.6267 132.963 92.0056C133.455 93.0721 134.234 94.5077 134.726 95.2049C135.177 95.8612 135.833 97.1738 136.202 98.0761C136.571 98.9785 137.309 100.824 137.883 102.178C139.482 106.074 139.892 107.674 139.728 109.274C139.605 110.094 139.769 111.694 140.097 112.842C140.712 115.221 140.794 119.569 140.261 120.923C140.056 121.456 139.482 122.932 138.99 124.245C137.801 127.321 137.186 127.649 128.945 129.454C127.141 129.864 125.132 130.397 124.435 130.603C123.779 130.849 122.098 131.218 120.786 131.464C119.433 131.71 117.178 132.448 115.702 133.146C114.267 133.802 112.627 134.376 112.053 134.376C111.479 134.376 109.634 134.95 107.912 135.648C105.042 136.796 104.468 136.919 101.475 136.714C99.425 136.591 97.498 136.181 96.309 135.648C92.127 133.761 80.852 133.761 74.661 135.648C71.258 136.673 69.577 136.632 65.723 135.443C63.96 134.868 61.131 134.294 59.45 134.13C57.769 134.007 55.596 133.597 54.612 133.269C50.676 131.956 41.164 133.679 39.237 136.058C38.581 136.919 38.581 137.001 39.401 138.314C40.426 139.995 40.508 139.954 35.055 140.283C31.406 140.488 28.864 141.021 24.313 142.539C23.575 142.785 22.468 143.154 21.853 143.318C20.09 143.851 14.35 148.322 14.35 149.142C14.35 150.414 16.974 152.301 19.475 152.875C20.746 153.162 21.853 153.531 21.935 153.695C22.222 154.146 19.721 156.115 18.901 156.115C17.835 156.115 13.448 158.535 12.792 159.479C12.464 159.889 11.234 160.832 10.004 161.488C8.774 162.186 7.462 163.211 7.011 163.703C6.601 164.236 5.535 164.975 4.674 165.385C3.813 165.754 2.788 166.205 2.46 166.369C1.72199 166.739 1.39399 168.748 2.009 169.364C2.542 169.897 8.118 171.702 9.307 171.702C10.414 171.702 12.341 172.563 12.218 172.973C12.013 173.465 6.314 177.567 4.264 178.674C2.82899 179.495 2.337 179.577 2.091 179.167C1.35299 177.977 2.46 186.057 3.731 191.185L4.223 193.235L4.592 191.882C4.92 190.692 5.084 190.569 6.519 190.569C7.462 190.569 8.487 190.241 9.143 189.749C9.717 189.298 10.742 188.929 11.398 188.929C12.054 188.929 12.833 188.642 13.12 188.313C13.366 187.985 14.022 187.616 14.473 187.452C14.965 187.288 16.072 186.55 16.892 185.811C18.245 184.581 21.033 183.596 21.566 184.13C21.689 184.212 21.648 184.786 21.484 185.401C21.32 186.099 19.926 187.534 17.507 189.421C13.571 192.579 9.02 196.927 9.02 197.501C9.02 197.706 8.364 198.24 7.585 198.732C6.396 199.429 6.15 199.798 6.15 200.988C6.15 203.244 7.79 207.879 8.487 207.632C8.815 207.509 9.717 207.673 10.496 208.002C11.808 208.535 12.095 208.494 14.555 207.591C16.031 207.017 17.63 206.566 18.122 206.566C18.901 206.566 18.942 206.73 18.737 208.494C18.573 210.052 18.245 210.709 17.056 211.775C15.662 213.088 13.12 217.23 13.12 218.215C13.12 218.502 13.776 219.322 14.514 220.061C15.908 221.414 16.072 221.455 19.188 221.455C20.992 221.455 22.632 221.332 22.919 221.168C23.78 220.635 23.37 219.322 22.14 218.666C20.541 217.846 20.582 217.107 22.304 216.205L23.698 215.426L26.445 217.271L29.192 219.076L28.946 221.045C28.782 222.152 28.208 224.039 27.634 225.27C27.06 226.541 26.65 227.854 26.732 228.223C26.814 228.592 27.552 229.248 28.413 229.7C30.258 230.561 30.996 230.356 33.374 228.305L34.85 226.992L35.916 228.1L36.941 229.207L38.376 227.526C41.205 224.244 42.271 225.926 40.631 231.094C39.893 233.514 39.893 233.637 40.631 234.786C41 235.483 41.738 236.139 42.189 236.303C43.624 236.754 48.339 235.688 49.61 234.581L50.799 233.596L51.496 234.663C51.906 235.278 52.07 236.139 51.947 236.836C51.66 238.272 52.562 240.364 53.792 241.184C54.366 241.553 55.883 241.841 57.564 241.882C60.598 241.964 60.352 242.087 62.361 239.298C63.222 238.149 64.329 238.559 65.682 240.61C66.215 241.389 67.158 242.21 67.773 242.415C69.372 242.989 74.128 241.964 75.563 240.774C76.219 240.241 77.162 239.79 77.654 239.79C78.638 239.79 79.95 240.938 79.95 241.759C79.95 242.989 81.057 244.302 82.82 245.286C85.116 246.516 85.608 246.557 88.355 245.614C90.979 244.712 91.43 244.384 91.184 243.727C90.897 242.948 92.086 242.128 93.193 242.415C93.685 242.538 94.587 243.399 95.12 244.302C97.539 248.28 98.195 248.608 102.09 247.911C105.493 247.255 106.6 246.763 107.215 245.532C107.871 244.22 108.568 243.891 110.495 243.891C111.971 243.891 112.996 244.671 113.611 246.229C113.816 246.763 114.841 247.747 115.907 248.444C117.547 249.47 118.203 249.675 119.72 249.511C121.647 249.347 124.312 247.829 125.378 246.311C126.075 245.286 126.854 245.409 131.159 247.419C134.398 248.895 135.423 249.06 137.842 248.403C138.908 248.075 139.605 247.542 140.261 246.434C142.106 243.358 143.336 243.153 145.591 245.573L147.149 247.255L149.814 247.091C151.987 246.968 152.807 246.681 154.242 245.655C155.226 244.958 156.292 243.768 156.702 242.989C157.071 242.251 157.809 241.348 158.383 241.061C159.285 240.569 159.695 240.61 161.13 241.184C163.918 242.292 165.722 242.046 167.813 240.282C168.838 239.462 169.986 238.026 170.396 237.124C171.052 235.729 171.421 235.442 172.815 235.196C173.717 235.073 175.849 234.499 177.53 233.965C180.195 233.104 180.728 232.776 181.466 231.463C181.917 230.602 182.737 229.535 183.229 229.084C183.721 228.633 184.213 227.69 184.377 227.033C184.664 225.516 185.402 224.942 186.837 225.106L187.985 225.229L188.313 229.33C188.518 232.161 188.887 233.965 189.502 235.237C190.363 237.001 190.363 237.206 189.871 244.753C189.625 248.978 189.215 253.489 189.01 254.843C188.805 256.155 188.436 259.888 188.19 263.128C187.944 266.41 187.493 270.183 187.206 271.537C186.878 272.931 186.509 275.433 186.345 277.115C186.181 278.797 185.73 283.76 185.279 288.067C183.68 304.022 184.664 311.651 188.887 316.82C191.552 320.101 196.062 321.249 198.03 319.158C199.752 317.353 200.9 317.886 201.679 320.839C201.925 321.783 202.417 322.685 202.745 322.808C203.073 322.931 203.36 323.341 203.36 323.71C203.36 325.597 210.207 330.027 214.061 330.601C215.66 330.847 216.111 330.724 217.341 329.822C219.186 328.468 221.154 327.566 222.302 327.566C223.245 327.566 227.345 328.796 229.928 329.863C231.445 330.519 233.946 330.642 234.274 330.068C234.397 329.904 235.217 329.617 236.078 329.494C237.062 329.33 238.087 328.755 238.825 327.935C240.916 325.761 242.064 325.392 245.836 325.638C248.911 325.802 249.608 325.72 253.093 324.49C255.184 323.751 257.439 322.89 258.136 322.521C260.104 321.495 262.728 318.788 263.015 317.517C263.548 315.097 263.712 314.851 264.491 314.851C264.901 314.851 265.885 315.425 266.582 316.122C268.14 317.599 268.468 317.558 273.388 315.261C276.299 313.866 282.285 310.298 282.9 309.519C283.023 309.354 284.95 308.165 287.205 306.811C292.453 303.653 296.717 300.7 298.767 298.813C300.858 296.926 302.58 294.629 302.58 293.809C302.58 293.071 303.769 292.291 304.917 292.291C305.942 292.25 312.133 286.262 312.953 284.416C313.322 283.596 313.65 282.365 313.65 281.627C313.65 279.535 314.757 277.607 316.151 277.32C317.791 276.951 320.661 275.31 321.686 274.162C323.736 271.865 324.31 270.224 324.31 266.615C324.31 263.949 324.105 262.759 323.49 261.529C322.383 259.355 322.465 258.74 323.941 257.919C326.36 256.566 329.927 252.792 330.419 251.069C331.403 247.583 331.403 245.04 330.501 241.923C329.681 239.215 329.312 238.641 326.729 236.139C325.171 234.581 323.9 233.063 323.9 232.735C323.9 232.366 324.392 231.791 324.966 231.381C326.524 230.356 327.18 228.346 327.221 224.244C327.303 220.102 326.565 218.092 323.777 214.933C322.465 213.416 321.768 213.047 318.652 212.144C316.684 211.529 312.789 210.34 309.96 209.437C307.131 208.535 303.81 207.591 302.58 207.345C301.35 207.099 298.767 206.484 296.84 205.951C294.913 205.459 292.166 204.802 290.69 204.515C289.214 204.269 286.754 203.654 285.155 203.203C281.547 202.136 275.274 200.66 270.067 199.593C267.812 199.142 264.86 198.322 263.507 197.747C262.113 197.173 260.432 196.599 259.776 196.517C259.12 196.394 257.931 196.107 257.111 195.861C255.389 195.286 249.321 192.21 249.034 191.759C248.952 191.554 249.649 191.226 250.592 190.98C253.462 190.2 255.307 188.765 256.455 186.304C257.849 183.35 258.382 182.94 260.145 183.473C262.154 184.13 264.655 182.776 266.172 180.315L267.32 178.469L266.828 174.614C266.377 171.045 266.418 170.717 267.115 170.225C268.509 169.2 269.288 169.569 270.436 171.702C271.051 172.809 271.707 173.752 271.912 173.752C272.732 173.752 274.987 172.522 276.012 171.537C276.832 170.717 277.16 169.938 277.365 168.133C277.488 166.821 277.775 165.426 277.98 165.057C278.226 164.647 278.39 164.072 278.39 163.744C278.39 162.883 279.169 162.473 279.743 163.047C279.989 163.293 280.44 163.498 280.768 163.498C281.506 163.498 284.581 160.873 285.237 159.684C285.934 158.453 285.893 155.623 285.155 154.639C284.827 154.228 284.54 153.736 284.54 153.572C284.54 153.08 286.877 152.013 287.902 152.013C288.435 152.013 289.542 151.521 290.403 150.947C292.371 149.634 293.56 147.009 293.56 144.056C293.56 142.292 293.396 141.718 292.535 140.939C291.961 140.406 291.51 139.544 291.51 139.011C291.51 137.781 293.642 136.427 295.651 136.427C296.471 136.427 297.578 136.099 298.111 135.648C298.644 135.237 299.505 134.786 299.956 134.622C301.514 134.13 302.252 132.9 302.457 130.397C302.662 127.936 302.088 126.173 300.079 123.014C299.628 122.276 299.341 121.538 299.464 121.333C299.587 121.128 300.612 120.841 301.76 120.676C304.835 120.266 305.655 119.733 307.336 117.19C308.484 115.467 308.935 114.36 309.058 112.719C309.222 110.627 309.181 110.545 307.336 108.7C306.311 107.633 305.45 106.485 305.45 106.115C305.45 105.459 307.623 104.475 310.452 103.86C311.231 103.695 312.01 102.916 313.076 101.275C314.429 99.1836 314.552 98.7324 314.347 96.9687C314.019 94.3846 314.224 93.9744 316.315 92.5389C317.709 91.5955 318.201 90.8572 318.939 88.8473C320.046 85.8531 319.882 84.8687 317.955 82.9409C317.176 82.1205 316.52 81.3002 316.52 81.0951C316.52 80.89 317.299 80.1927 318.242 79.5365C319.185 78.9212 320.538 77.5267 321.276 76.4602C322.383 74.8195 322.547 74.3273 322.26 73.1789C321.604 70.4307 321.112 69.9795 317.955 69.3643C316.151 68.9951 314.88 68.2978 314.88 67.6826C314.88 67.3544 315.577 66.7802 316.438 66.329C318.611 65.2216 321.809 62.2683 322.096 61.1199C322.219 60.5866 322.67 59.4792 323.08 58.6999C323.49 57.8795 323.736 56.8951 323.613 56.4849C323.244 55.0083 321.235 53.2856 319.554 52.9985C317.791 52.7114 314.88 51.5219 314.88 51.1528C314.88 50.9887 315.782 50.0043 316.93 48.9378C318.037 47.8714 319.062 46.5178 319.185 45.9026C319.349 45.2463 319.718 44.0158 320.046 43.1134C321.112 40.0372 320.866 38.7246 318.775 36.7968C317.791 35.8944 316.807 35.1151 316.643 35.1151C316.438 35.1151 314.921 35.4843 313.24 35.8944C310.083 36.6327 308.73 36.5917 308.73 35.7714C308.73 35.3202 309.017 34.869 311.231 31.5877C312.666 29.4958 313.076 26.2144 312.092 25.025C310.616 23.2612 307.418 21.1283 306.926 21.5795C306.639 21.7846 305.122 22.1538 303.564 22.3588C302.006 22.605 299.546 23.2612 298.111 23.8355C295.487 24.8609 293.56 25.148 293.56 24.5327C293.56 23.9175 294.216 23.3022 295.487 22.646C296.184 22.2768 297.045 21.6616 297.332 21.2514C297.619 20.8002 298.275 20.267 298.808 19.9799C299.341 19.6928 299.915 19.0775 300.079 18.5853C300.981 16.1653 300.981 16.0012 299.423 14.2375C297.906 12.4327 294.052 9.68462 293.068 9.68462C292.74 9.68462 290.608 10.505 288.312 11.5304C286.016 12.5558 283.597 13.3762 282.9 13.3762C281.793 13.3762 281.711 13.2941 282.08 12.4328C282.736 10.7921 283.679 7.05953 283.843 5.2958C284.048 3.49105 283.761 3.1219 280.891 1.60427C279.743 0.947999 279.743 0.948003 279.538 1.48122ZM281.26 13.7453C281.26 14.1965 278.39 16.6575 277.898 16.6575C277.037 16.6575 277.734 15.427 279.087 14.4836C280.727 13.2941 281.26 13.13 281.26 13.7453ZM31.283 215.754C31.57 216.492 30.094 218.461 29.315 218.461C28.29 218.461 28.208 217.641 29.11 216.41C30.053 215.097 30.955 214.81 31.283 215.754Z" fill="black"/>
<path d="M18.737 76.7063C18.573 77.1165 18.532 77.5677 18.655 77.6907C19.024 78.0599 19.352 77.4446 19.188 76.6653C19.065 75.968 19.024 75.968 18.737 76.7063Z" fill="black"/>
<path d="M3.81299 119.446C3.68999 119.774 3.77199 120.266 4.05899 120.553C4.38699 120.882 4.50999 120.717 4.50999 119.897C4.50999 118.667 4.22299 118.462 3.81299 119.446Z" fill="black"/>
<path d="M42.5529 136.615C37.6243 136.795 36.0841 137.015 37.7783 137.296C38.7987 137.456 39.5303 138.117 39.434 138.799C39.357 139.32 39.203 139.34 34.9482 139.46C33.4657 139.5 31.8678 139.64 31.3864 139.761C30.9051 139.881 29.904 140.081 29.1531 140.202C28.4023 140.322 27.4974 140.602 27.1509 140.843C26.7658 141.083 25.9957 141.284 25.3219 141.364C24.6866 141.404 23.955 141.604 23.6854 141.805C22.9731 142.306 22.1837 142.566 20.9708 142.706C19.9889 142.827 18.8915 143.388 18.5065 143.969C18.4487 144.069 17.9674 144.45 17.4669 144.83C16.947 145.211 16.2154 145.752 15.8304 146.073C15.4453 146.373 14.5405 147.015 13.8281 147.496L12.5575 148.377L12.7885 149.099C13.058 149.92 14.733 151.664 15.7534 152.205C16.1384 152.405 17.5439 152.806 18.8338 153.086C20.143 153.367 21.2596 153.647 21.3174 153.687C21.4329 153.828 21.0093 154.629 20.8168 154.629C20.7398 154.629 20.2777 154.95 19.8157 155.331C19.2188 155.812 18.4487 156.152 17.2358 156.493C16.2732 156.773 15.1951 157.174 14.8293 157.395C14.4635 157.635 13.7704 158.036 13.2891 158.316C12.3457 158.837 11.8066 159.398 11.2675 160.38C11.0173 160.841 10.69 161.062 10.1124 161.222C9.68884 161.342 9.03425 161.663 8.66845 161.943C8.30266 162.224 7.43629 162.845 6.7432 163.306C6.05011 163.787 5.37627 164.408 5.2415 164.689C5.10673 164.989 4.74094 165.45 4.41364 165.731C3.87457 166.212 2.23811 166.853 1.54502 166.853C1.0637 166.853 0.389864 167.614 0.389864 168.155C0.389864 168.416 0.274349 168.656 0.158833 168.716C-0.0529445 168.797 -0.0529445 168.857 0.158833 169.077C0.274349 169.217 0.389864 169.538 0.389864 169.758C0.389864 170.38 1.10221 170.981 2.41138 171.442C3.04671 171.662 3.95158 172.023 4.4329 172.243C4.91421 172.444 6.14637 172.744 7.16676 172.864C8.20639 172.985 9.32304 173.185 9.66958 173.285C10.0161 173.385 10.5745 173.466 10.921 173.466C11.2483 173.466 11.5756 173.546 11.6333 173.646C11.8259 173.967 10.5745 175.089 9.45781 175.61C8.76472 175.93 8.2449 176.311 7.99461 176.732C7.72508 177.173 7.07049 177.654 5.91534 178.275C4.99122 178.776 3.97083 179.477 3.64354 179.818C3.3355 180.178 2.95045 180.479 2.81568 180.479C2.68092 180.479 2.37287 180.699 2.12259 180.98C1.60277 181.561 1.0637 181.621 0.794167 181.12C0.620894 180.8 0.601642 180.8 0.466874 181.14C0.409116 181.341 0.389864 182.423 0.447621 183.545C0.563137 185.449 0.640147 186.05 1.15997 188.935C1.60277 191.48 1.67978 191.841 1.8338 192.101C1.93007 192.262 2.04558 192.703 2.12259 193.103C2.1996 193.624 2.33437 193.825 2.66166 193.865C2.89269 193.905 3.08522 193.845 3.08522 193.765C3.08522 193.664 3.25849 193.384 3.48952 193.123C3.85532 192.703 4.00934 192.683 5.28001 192.803L6.64694 192.923L7.97536 192.001C9.20752 191.16 9.40005 191.1 10.1509 191.22C10.9017 191.34 11.0365 191.28 11.8451 190.538C12.4227 189.997 13.058 189.657 13.6934 189.496C14.4442 189.296 14.7523 189.096 15.0218 188.655C15.5031 187.813 17.1011 186.491 17.6016 186.491C17.8327 186.491 18.1022 186.41 18.1985 186.31C18.314 186.21 18.7953 186.09 19.3151 186.03C20.066 185.95 20.2777 186.01 20.4895 186.33C20.7975 186.771 20.682 187.473 20.297 187.633C20.143 187.693 20.0274 187.913 20.0274 188.134C20.0274 188.775 19.6809 189.236 18.8723 189.717C18.4487 189.977 18.1022 190.258 18.1022 190.338C18.1022 190.438 17.8519 190.619 17.5439 190.719C17.2551 190.839 16.9085 191.14 16.793 191.4C16.6775 191.661 16.2925 192.041 15.9459 192.222C15.1951 192.622 13.5778 194.045 11.5948 196.049C10.8055 196.851 10.0931 197.512 9.99688 197.512C9.74659 197.512 8.68771 198.714 7.97536 199.816C7.16676 201.099 6.10787 202.121 5.58805 202.121C5.35702 202.121 5.203 202.261 5.203 202.461C5.203 203.022 6.20413 205.788 7.37853 208.533C7.45554 208.693 7.66732 209.074 7.85985 209.355C9.47706 211.96 9.45781 211.94 10.7862 211.94C11.5178 211.94 13.0965 211.278 13.0965 210.978C13.0965 210.878 13.2891 210.737 13.5393 210.677C13.7704 210.617 14.5212 210.417 15.2143 210.236C15.9074 210.056 16.6775 209.956 16.9278 209.996C17.2551 210.056 17.4091 209.976 17.4669 209.715C17.5246 209.495 17.6979 209.335 17.8519 209.335C18.0829 209.335 18.1214 209.475 18.0059 209.896C17.9289 210.196 17.8519 210.978 17.8134 211.659C17.7749 212.541 17.6209 213.102 17.2743 213.663C16.7738 214.505 14.4827 216.949 14.2132 216.949C14.1362 216.949 14.0592 217.07 14.0592 217.23C14.0592 217.37 13.8666 217.751 13.6549 218.051L13.2313 218.592L13.7704 219.614C14.656 221.338 15.9844 223.161 17.5631 224.844C18.7568 226.107 19.1033 226.367 19.3344 226.187C19.4691 226.067 19.7387 226.007 19.9119 226.087C20.0852 226.147 20.3547 226.107 20.5088 225.967C20.6628 225.846 20.8746 225.786 20.9901 225.866C21.1056 225.947 21.1826 225.786 21.1826 225.466C21.1826 225.025 21.2404 224.965 21.6254 225.065C21.972 225.165 22.1645 225.065 22.3955 224.684C22.8383 224.003 22.7998 223.823 22.2222 223.682C21.7794 223.562 21.7217 223.462 21.8372 222.921C21.9527 222.34 21.9334 222.32 21.6254 222.58C21.1248 223.001 20.3162 223.041 19.8734 222.64C19.5461 222.36 19.5269 222.239 19.7002 221.899C19.8734 221.598 19.8734 221.478 19.7002 221.418C19.3151 221.278 19.4114 220.957 19.8349 220.957C20.374 220.957 21.2981 220.436 21.4329 220.055C21.6254 219.554 23.0116 219.654 23.6469 220.236C24.2052 220.777 26.323 221.959 26.7273 221.959C26.8428 221.959 26.9584 221.859 26.9584 221.739C26.9584 221.618 27.0931 221.578 27.2664 221.638C27.6515 221.799 28.4986 220.837 28.4986 220.256C28.4986 219.574 29.2494 218.973 30.0003 219.093C30.5586 219.194 30.6163 219.274 30.6163 219.875C30.6163 221.057 29.1146 223.041 28.3638 222.901C27.9787 222.821 27.921 222.901 27.921 223.382C27.921 223.722 28.0172 223.963 28.1713 223.963C28.3445 223.963 28.3253 224.023 28.1328 224.143C27.9595 224.263 27.921 224.504 27.9787 224.824C28.0558 225.085 27.9787 225.726 27.8055 226.227C27.6322 226.748 27.5359 227.269 27.5937 227.409C27.6322 227.55 27.4204 228.151 27.1124 228.732C26.8236 229.313 26.5733 229.914 26.5733 230.075C26.5733 230.255 26.4 230.535 26.1883 230.716C25.9187 230.956 25.8032 231.317 25.8032 231.898C25.8032 232.379 25.7069 232.78 25.5722 232.82C25.3797 232.9 25.784 233.501 26.7851 234.583C26.9776 234.804 27.5744 234.984 28.3638 235.064C29.4804 235.204 29.7115 235.164 30.5971 234.663C31.1939 234.343 31.887 233.742 32.2721 233.201C32.6571 232.7 33.1962 232.118 33.5042 231.918L34.0433 231.557L34.6401 232.319C34.9674 232.74 35.2177 233.16 35.2177 233.281C35.1599 233.742 35.2562 233.942 35.5257 234.062C35.9685 234.223 36.3343 234.002 36.7386 233.321C37.4125 232.119 38.8949 230.616 39.6073 230.355C40.2426 230.135 40.3196 230.155 40.6469 230.596C41.1282 231.257 41.109 232.038 40.5314 233.862C40.2619 234.703 40.0501 235.605 40.0501 235.866C40.0501 236.126 39.8768 236.727 39.665 237.208C39.4533 237.689 39.28 238.33 39.28 238.611C39.28 239.112 40.1656 240.715 40.7239 241.196C41.6673 241.998 47.4431 241.296 48.5404 240.214C48.7907 239.994 49.0795 239.793 49.195 239.793C49.3105 239.793 49.5993 239.573 49.8304 239.292C50.0614 239.012 50.3309 238.791 50.4464 238.791C50.5427 238.791 50.8315 239.192 51.0433 239.693C51.3898 240.475 51.4476 240.855 51.3513 242.158C51.2358 244.222 51.7364 245.404 53.2188 246.566L54.2584 247.388L56.1837 247.368C57.2233 247.368 58.3977 247.468 58.7635 247.588C59.4181 247.809 60.4193 247.789 60.8043 247.528C60.9198 247.468 61.0738 247.107 61.1316 246.747C61.4204 245.424 62.0172 244.402 62.7103 244.102C63.3456 243.821 63.4227 243.841 64.0195 244.302C64.6356 244.803 65.656 246.226 65.656 246.586C65.656 246.767 65.9062 246.987 67.3694 248.149C68.0818 248.73 69.1022 248.73 71.0274 248.209C71.8168 247.989 72.7024 247.809 72.9912 247.809C73.28 247.809 73.5687 247.729 73.6458 247.628C73.7035 247.528 74.0115 247.388 74.3196 247.308C74.6854 247.228 75.0127 246.967 75.186 246.606C75.4555 246.045 75.8598 245.765 76.4759 245.705C76.6684 245.685 76.9379 245.564 77.0727 245.424C77.4963 245.083 79.0365 245.384 79.5178 245.905C79.7681 246.186 79.9606 246.727 80.0376 247.428C80.1916 249.011 80.9425 250.153 81.9628 250.454C82.4249 250.594 82.8292 250.835 82.887 251.015C82.9447 251.175 83.3298 251.496 83.7533 251.696C84.3887 252.017 84.793 252.057 86.1984 251.957C87.2188 251.897 88.2969 251.676 88.913 251.436C89.4713 251.195 90.2222 251.015 90.588 251.015C91.4158 251.015 91.5314 250.794 91.5506 249.312V248.109L92.8598 248.049C94.0342 247.989 94.169 248.029 94.1112 248.35C94.0727 248.65 94.169 248.69 94.6695 248.65C95.2663 248.59 95.2856 248.61 95.5166 249.692C95.6707 250.474 95.9594 251.035 96.4793 251.656C96.9028 252.117 97.2301 252.598 97.2301 252.738C97.2301 252.858 97.6922 253.259 98.2505 253.62C99.3864 254.381 100.176 254.441 101.908 253.941C102.448 253.78 103.487 253.6 104.18 253.54C104.873 253.48 105.701 253.339 106.009 253.219C106.568 252.999 107.877 251.696 107.915 251.315C108.012 250.454 109.186 249.712 110.822 249.492C111.554 249.392 111.958 249.452 112.44 249.712C112.786 249.893 113.229 250.013 113.421 249.953C113.749 249.853 113.961 250.173 114.095 250.955C114.23 251.696 114.885 253.179 115.25 253.52C115.462 253.74 116.386 254.301 117.272 254.762C119.351 255.844 121.007 256.065 122.162 255.443C122.586 255.223 123.144 254.962 123.414 254.842C123.683 254.742 124.357 254.281 124.935 253.84C125.512 253.379 126.032 253.019 126.109 253.019C126.167 253.019 126.378 252.678 126.59 252.277C127.091 251.315 127.399 251.015 127.861 251.015C128.111 251.015 128.227 251.135 128.188 251.356C128.15 251.596 128.246 251.696 128.438 251.656C128.612 251.636 128.862 251.756 128.997 251.917C129.132 252.077 129.401 252.217 129.594 252.217C129.786 252.217 131.018 252.778 132.327 253.48C133.637 254.181 134.811 254.762 134.965 254.782C135.119 254.782 135.716 254.862 136.274 254.942C137.025 255.043 137.603 254.983 138.488 254.702C139.932 254.261 141.299 253.48 141.472 253.039C141.53 252.858 141.934 252.057 142.358 251.255C142.878 250.273 143.244 249.813 143.475 249.813C143.686 249.813 144.091 249.672 144.418 249.512C144.745 249.332 145.092 249.272 145.246 249.352C145.631 249.592 146.42 250.614 146.767 251.356C146.94 251.696 147.344 252.117 147.672 252.297C147.98 252.478 148.538 252.778 148.885 252.959C149.366 253.219 149.905 253.299 151.31 253.239C153.12 253.199 153.332 253.139 155.18 252.137C156.143 251.616 158.338 249.292 158.549 248.57C158.761 247.889 159.974 246.406 160.513 246.186C160.86 246.045 161.091 246.085 161.399 246.306C161.63 246.466 161.938 246.606 162.111 246.606C162.265 246.606 162.669 246.747 162.978 246.927C163.363 247.147 164.267 247.288 165.731 247.368L167.906 247.468L168.811 246.807C169.312 246.446 170.255 245.564 170.91 244.863C171.564 244.182 172.199 243.601 172.315 243.601C172.431 243.601 172.508 242.178 172.508 239.433L172.488 235.285L169.466 233.762C164.421 231.197 156.701 227.329 152.87 225.426C150.271 224.143 146.844 222.42 143.34 220.656C141.973 219.955 139.932 218.933 138.816 218.392C125.839 212 126.706 212.521 122.605 208.693C120.641 206.83 118.581 204.946 118.042 204.465C116.81 203.383 111.188 198.133 109.783 196.75C108.801 195.789 105.701 193.604 94.5733 185.95C92.1089 184.246 91.1271 183.445 90.7805 182.864C90.511 182.443 90.2992 182.062 90.2992 182.002C90.2992 181.962 89.6446 180.72 88.836 179.257C88.0274 177.774 87.0648 175.99 86.6797 175.269C86.3139 174.548 85.8519 173.686 85.6593 173.365C85.3513 172.824 85.024 172.223 83.272 168.957C82.9832 168.396 81.7896 166.332 80.6344 164.348C79.4793 162.364 78.4204 160.561 78.3049 160.34C78.1701 160.12 77.5925 159.138 76.9957 158.136C76.4181 157.154 74.6854 154.188 73.1452 151.563C71.6242 148.938 70.2381 146.594 70.084 146.313C69.8337 145.892 66.0988 139.58 65.5597 138.638C65.4442 138.458 65.1361 137.937 64.8473 137.476L64.3468 136.655L61.2856 136.534C57.4351 136.354 48.6752 136.414 42.5529 136.615ZM19.1033 208.373C18.9301 208.553 18.8723 208.513 18.8723 208.132C18.8723 207.752 18.9301 207.711 19.1033 207.892C19.2766 208.072 19.2766 208.192 19.1033 208.373Z" fill="url(#paint0_linear_287_183)"/>
<path d="M230.436 17.9262C232.907 13.7776 238.728 17.0172 238.161 18.5984C237.812 19.5468 238.012 20.4742 238.619 20.7001C239.085 20.8699 239.174 20.7468 241.278 17.1493C242.01 15.8951 242.878 14.5871 243.204 14.2284C243.53 13.8698 244.167 13.1012 244.62 12.5112C245.073 11.9212 245.73 11.2716 246.092 11.0831C246.471 10.8615 246.999 10.2912 247.383 9.74918C247.715 9.22202 248.225 8.68484 248.517 8.54424C249.266 8.1597 249.852 7.60016 250.54 6.62264C251.101 5.83434 252.081 5.14653 252.741 5.0792C252.851 5.075 253.392 4.8343 253.941 4.57708C254.5 4.30334 255.291 3.92042 255.736 3.73513C256.166 3.54075 257.12 3.05449 257.853 2.66087L259.178 1.96954L259.664 2.49451C260.214 3.09791 260.862 5.32503 260.827 6.44584C260.81 6.86708 260.479 8.25485 260.102 9.48904C259.716 10.7397 259.421 11.8252 259.427 11.8929C259.488 12.0556 260.349 12.055 260.439 11.8898C260.476 11.8237 260.958 11.5723 261.489 11.3481C262.167 11.0537 262.81 10.547 263.663 9.66019C264.348 8.96101 265.186 8.21712 265.54 8.00297C265.911 7.7979 266.567 7.38451 267.025 7.09844C267.899 6.52468 268.616 6.31609 269.679 6.29805C270.177 6.29195 270.513 6.11085 270.917 5.68771C271.216 5.37862 271.788 4.96198 272.192 4.77506C272.596 4.58814 273.516 4.12584 274.222 3.73968C274.945 3.36258 275.775 3.06554 276.07 3.07691C276.381 3.09736 276.933 2.99211 277.318 2.83824C277.969 2.59334 279.268 1.47914 279.595 0.884259C279.822 0.471146 280.767 0.237621 281.213 0.482634C281.428 0.600604 281.68 0.610354 281.784 0.538431C281.95 0.39296 282 0.420182 282.082 0.701771C282.143 0.86444 282.353 1.10878 282.534 1.2086C283.046 1.48991 283.206 2.37355 282.969 3.70593C282.851 4.35106 282.722 5.29106 282.677 5.80399C282.616 6.30785 282.283 7.50153 281.901 8.43178C281.51 9.37855 281.149 10.4277 281.069 10.7705C280.988 11.1133 280.791 11.6289 280.628 11.9263C280.473 12.2072 280.385 12.5244 280.441 12.6194C280.614 12.9298 282.129 12.3639 283.084 11.6414C283.675 11.1917 284.234 10.918 284.699 10.8937C285.189 10.862 285.894 10.518 286.95 9.80782C287.799 9.24151 288.857 8.68332 289.292 8.55667C289.735 8.45562 290.164 8.26125 290.228 8.14558C290.291 8.0299 290.618 7.86534 290.967 7.77756C291.691 7.59456 291.994 7.1591 291.709 6.70089C291.526 6.40698 291.535 6.39045 291.879 6.42905C292.072 6.47022 292.973 6.94372 293.87 7.50147C295.385 8.4627 295.844 8.80103 297.978 10.5539C299.867 12.0865 300.128 12.3159 300.27 12.5661C300.357 12.7213 300.665 13.0201 300.959 13.2677C301.353 13.5697 301.454 13.7761 301.333 14.0752C301.257 14.2916 301.117 14.4296 301.051 14.3933C300.968 14.348 300.655 14.3697 300.332 14.45C299.813 14.5734 299.724 14.6965 299.224 15.8416L298.679 17.0693L297.293 17.792C296.019 18.4684 295.879 18.6065 295.624 19.3054C295.369 20.0043 295.256 20.0927 294.264 20.451C293.546 20.7017 292.966 21.0928 292.535 21.5655C292.016 22.1192 291.705 22.2928 291.215 22.3245C290.294 22.3565 288.451 23.1291 288.216 23.5588C288.107 23.7571 287.914 23.9521 287.786 23.9893C287.649 24.0431 287.323 24.4018 287.028 24.8207C286.608 25.4289 286.558 25.6379 286.723 25.9648C286.941 26.4289 287.573 26.6473 287.887 26.3894C288.009 26.2845 288.245 26.2851 288.427 26.385C288.955 26.6753 289.499 26.5866 290.276 26.1104C290.69 25.8648 291.085 25.6944 291.151 25.7307C291.233 25.7761 291.5 25.6429 291.728 25.4239C291.963 25.2305 292.374 25.0692 292.643 25.088C292.912 25.1068 293.408 24.9487 293.719 24.733C294.404 24.27 296.338 23.5262 298.924 22.7317C299.957 22.4172 300.838 22.1052 300.883 22.0226C301.001 21.8078 302.491 21.4434 303.735 21.3311C305.173 21.2178 306.514 20.7718 306.759 20.3256C306.868 20.1273 307.056 20.0587 307.221 20.1494C307.684 20.4035 309.491 22.5151 311.201 24.7663C311.296 24.905 311.511 25.2591 311.651 25.5514C313.036 28.1192 313.029 28.0936 312.403 29.2338C312.058 29.8617 310.769 30.9173 310.521 30.7811C310.439 30.7358 310.233 30.8375 310.065 31.0251C309.907 31.1962 309.388 31.7499 308.912 32.2631C308.437 32.7763 307.992 33.3919 307.907 33.6249C307.802 33.933 307.664 34.0289 307.422 33.9605C307.213 33.9103 306.999 33.9864 306.926 34.1186C306.818 34.3169 306.915 34.4134 307.316 34.5049C307.6 34.5749 308.281 34.8627 308.861 35.1382C309.605 35.5044 310.14 35.6263 310.766 35.5829C311.696 35.5344 314.79 34.6751 314.917 34.4438C314.953 34.3777 315.089 34.366 315.221 34.4386C315.337 34.5021 315.741 34.5093 316.089 34.4637L316.734 34.3451L317.323 35.2706C318.326 36.8112 319.203 38.7771 319.846 40.8944C320.324 42.4906 320.376 42.906 320.118 43.0227C319.956 43.0839 319.779 43.288 319.764 43.473C319.731 43.649 319.571 43.8622 319.383 43.9308C319.212 44.0086 319.062 44.1631 319.074 44.2986C319.086 44.434 318.917 44.4275 318.653 44.2823C318.289 44.0827 318.213 44.105 318.114 44.4809C318.033 44.8237 317.86 44.9436 317.437 44.9695C316.667 45.041 316.536 44.9263 316.693 44.367C316.803 43.9325 316.747 43.8376 316.247 43.6917C315.713 43.5277 315.706 43.5021 316.066 43.3557C316.649 43.1166 317.063 42.4407 316.941 41.8792C316.864 41.4712 316.774 41.4002 316.411 41.3947C316.082 41.4073 315.983 41.3528 316.015 41.1769C316.081 40.7829 315.771 40.7203 315.572 41.0838C315.318 41.5465 314.453 42.1038 314.075 42.047C313.572 41.9854 313.001 43.2205 313.181 44.029C313.364 44.7532 313.34 47.1063 313.15 47.4533C313.095 47.5525 312.958 47.6063 312.859 47.5518C312.76 47.4974 312.664 47.5949 312.632 47.7708C312.582 48.1739 311.39 48.4654 310.911 48.2023C310.35 47.8937 309.501 48.2659 309.246 48.9648C309.065 49.4894 309.104 49.5753 309.6 49.8475C310.574 50.3829 312.917 49.9924 313.155 49.2844C313.27 48.9176 313.364 48.9044 313.76 49.1222C314.041 49.2764 314.194 49.4679 314.121 49.6001C314.04 49.7488 314.098 49.7596 314.288 49.6488C314.469 49.5545 314.685 49.6303 314.922 49.8251C315.101 50.0092 315.665 50.2334 316.16 50.3116C316.671 50.3988 317.146 50.5521 317.234 50.6652C317.332 50.7618 317.927 50.8523 318.551 50.851C319.166 50.8663 319.78 50.9237 319.912 50.9963C320.06 51.078 320.373 51.0563 320.622 50.9562C320.947 50.8338 321.299 50.898 321.777 51.1611C322.174 51.3789 322.55 51.4778 322.646 51.3803C322.803 51.2513 323.108 51.8706 323.528 53.2199C323.619 53.4849 323.486 54.0789 323.181 54.7927C322.77 55.8146 322.628 55.9948 321.798 56.528C321.252 56.8951 320.43 57.2177 319.803 57.3032C319.209 57.4068 318.476 57.6064 318.165 57.78L317.614 58.0794L317.961 58.9365C318.153 59.4079 318.382 59.8133 318.481 59.8678C318.888 60.0269 319.008 60.2003 318.98 60.4861C318.904 60.9387 318.55 61.1529 317.798 61.1913C316.489 61.2252 314.552 61.817 314.001 62.3105C313.52 62.756 313.501 62.8311 313.71 63.3117C314.028 64.0243 314.681 64.3616 316.456 64.6917C317.277 64.8415 318.12 65.0681 318.335 65.186C318.55 65.304 319.127 65.4275 319.623 65.4635C320.119 65.4996 320.729 65.6412 320.961 65.7683C321.373 65.9951 322.277 67.4812 322.411 68.1782C322.627 69.3509 319.327 73.9906 317.918 74.4425C317.619 74.5575 317.318 74.7146 317.263 74.8138C317.209 74.9129 316.891 75.061 316.551 75.1322C316.211 75.2035 315.902 75.335 315.848 75.4342C315.802 75.5168 315.997 75.9461 316.31 76.3548C316.791 77.0061 317.077 77.2281 318.196 77.7353C319.952 78.5709 320.69 79.5359 320.95 81.3346L321.137 82.599L320.213 84.2424C319.724 85.1347 319.253 86.1881 319.18 86.5565C319.053 87.2181 318.565 88.0683 318.168 88.2808C318.064 88.3528 317.695 88.3216 317.37 88.2078C316.144 87.8568 315.02 87.9062 314.446 88.365C313.915 88.7833 313.896 88.8584 313.994 89.5794C314.117 90.3351 314.809 91.8552 315.106 92.0185C315.255 92.1002 315.319 92.4148 315.587 94.197C315.73 95.0716 315.25 95.9474 313.913 97.3639C313.359 97.9416 312.794 98.62 312.657 98.8679C312.521 99.1157 312.319 99.3273 312.2 99.348C312.091 99.3522 311.83 99.5531 311.619 99.7812C311.38 100.059 311.011 100.222 310.632 100.207C310.043 100.184 309.621 100.404 309.281 100.906C309.174 101.062 308.948 101.239 308.769 101.291C308.288 101.5 307.811 102.959 308.013 103.608C308.126 103.949 308.482 104.36 309.023 104.743C310.256 105.593 310.843 106.754 310.61 107.766C310.508 108.226 310.516 108.682 310.637 108.813C310.742 108.936 310.825 109.411 310.791 109.866C310.756 110.556 310.598 110.921 309.853 112.082C309.323 112.931 308.633 113.756 308.145 114.176C307.684 114.546 307.181 115.109 307.009 115.423C306.619 116.134 306.383 116.133 305.151 115.478L304.16 114.934L303.494 116.03C302.891 117.011 302.861 117.145 303.152 117.24C303.418 117.343 303.406 117.444 303.137 117.856C302.806 118.341 302.813 118.366 303.596 119.055C304.168 119.541 304.494 120.043 304.761 120.77C304.942 121.342 305.184 121.841 305.3 121.905C305.399 121.959 305.511 122.537 305.545 123.18C305.638 124.499 305.315 125.204 304.086 126.465C303.7 126.855 303.062 127.665 302.685 128.233C302.309 128.801 301.804 129.448 301.559 129.658C301.115 130.037 299.424 130.571 299.092 130.431C298.337 130.124 297.172 130.796 296.219 132.101C295.792 132.683 295.651 133.058 295.639 133.589C295.624 133.968 295.515 134.402 295.375 134.54C295.138 134.776 295.302 135.103 295.883 135.572C296.431 136.024 297.344 137.257 297.453 137.725C297.535 138.007 297.562 139.054 297.524 140.023C297.436 142.298 296.838 143.819 295.782 144.529C295.4 144.793 294.923 145.154 294.697 145.331C294.487 145.517 293.79 145.886 293.154 146.182C292.502 146.469 291.96 146.752 291.924 146.818C291.896 146.868 291.516 146.895 291.086 146.896C290.057 146.89 289.664 147.018 289.446 147.415C289.328 147.629 289.373 147.783 289.573 147.85C289.789 147.926 289.827 148.054 289.703 148.201C289.605 148.34 289.586 148.61 289.654 148.798C289.723 148.986 289.712 149.281 289.621 149.446C289.53 149.612 289.412 150.923 289.373 152.364C289.335 153.806 289.26 155.077 289.204 155.218C289.132 155.35 288.916 155.899 288.719 156.414C288.448 157.104 288.127 157.573 287.478 158.206C286.434 159.246 285.146 160.065 284.701 160.014C284.525 159.982 283.674 159.966 282.814 159.966C281.76 159.968 281.207 160.073 281.098 160.272C280.999 160.453 280.693 160.737 280.406 160.945C280.103 161.144 279.891 161.415 279.884 161.583C279.901 162.022 280.371 163.163 280.819 163.796C281.018 164.099 281.175 164.637 281.169 164.999C281.172 165.345 281.157 165.961 281.142 166.34C281.13 166.871 280.942 167.37 280.231 168.549C279.345 170.084 279.196 170.238 277.499 171.371C276.616 171.961 273.666 172.793 272.971 172.648C272.31 172.521 270.516 172.89 270.081 173.253C269.802 173.487 269.726 173.704 269.763 174.068C269.786 174.339 269.756 174.667 269.675 174.815C269.602 174.948 269.527 175.358 269.531 175.704C269.531 176.134 269.22 176.975 268.597 178.267L267.654 180.179L266.683 180.657C266.15 180.923 264.979 181.333 264.092 181.578C263.222 181.831 262.444 182.113 262.389 182.212C262.335 182.311 261.126 181.733 258.863 180.49L255.453 178.595L255.622 175.311C255.885 169.82 256.335 161.442 256.571 157.292C256.739 154.48 256.933 150.758 257.13 146.952C257.196 145.462 257.316 143.247 257.396 142.044C258.241 128.011 258.263 128.991 257.04 123.738C256.429 121.209 255.847 118.587 255.705 117.907C255.394 116.359 253.715 109.157 253.238 107.324C252.908 106.046 252.568 102.396 251.502 89.3787C251.259 86.4922 251.061 85.2865 250.745 84.7259C250.526 84.304 250.312 83.9498 250.262 83.9226C250.229 83.9044 249.513 82.7799 248.689 81.4235C247.848 80.0579 246.831 78.4241 246.418 77.7669C245.996 77.1263 245.503 76.3395 245.33 76.029C245.029 75.5196 244.688 74.9665 242.821 71.9836C242.495 71.4816 241.356 69.5224 240.265 67.6326C239.174 65.7427 238.187 64.0172 238.059 63.8182C237.941 63.6027 237.404 62.6623 236.859 61.6963C236.322 60.7559 234.694 57.9257 233.256 55.415C231.809 52.9208 230.53 50.6693 230.371 50.4101C230.142 50.0047 226.699 43.9404 226.177 43.0512C226.083 42.8704 225.799 42.3701 225.555 41.9135L225.114 41.1118L223.132 32.4353C224.798 29.0487 227.386 23.0903 230.436 17.9262ZM305.544 34.7571C305.774 34.69 305.768 34.6223 305.455 34.4499C305.141 34.2775 305.081 34.3089 305.148 34.5393C305.215 34.7697 305.314 34.8241 305.544 34.7571Z" fill="url(#paint1_linear_287_183)"/>
<path d="M1189.4 268V221.056H1201.11V230.464H1200.05C1201.46 227.072 1203.64 224.512 1206.58 222.784C1209.59 220.992 1212.98 220.096 1216.76 220.096C1220.53 220.096 1223.64 220.8 1226.07 222.208C1228.5 223.616 1230.32 225.76 1231.54 228.64C1232.76 231.456 1233.36 235.04 1233.36 239.392V268H1221.36V239.968C1221.36 237.536 1221.04 235.552 1220.4 234.016C1219.83 232.48 1218.9 231.36 1217.62 230.656C1216.4 229.888 1214.84 229.504 1212.92 229.504C1210.61 229.504 1208.6 230.016 1206.87 231.04C1205.14 232 1203.8 233.408 1202.84 235.264C1201.88 237.056 1201.4 239.168 1201.4 241.6V268H1189.4Z" fill="black"/>
<path d="M1155.49 268.96C1150.63 268.96 1146.4 267.968 1142.82 265.984C1139.24 264 1136.45 261.184 1134.47 257.536C1132.48 253.824 1131.49 249.472 1131.49 244.48C1131.49 239.488 1132.48 235.168 1134.47 231.52C1136.45 227.872 1139.24 225.056 1142.82 223.072C1146.4 221.088 1150.63 220.096 1155.49 220.096C1160.36 220.096 1164.58 221.088 1168.16 223.072C1171.75 225.056 1174.53 227.872 1176.52 231.52C1178.5 235.168 1179.49 239.488 1179.49 244.48C1179.49 249.472 1178.5 253.824 1176.52 257.536C1174.53 261.184 1171.75 264 1168.16 265.984C1164.58 267.968 1160.36 268.96 1155.49 268.96ZM1155.49 259.84C1159.08 259.84 1161.96 258.56 1164.13 256C1166.31 253.376 1167.4 249.536 1167.4 244.48C1167.4 239.36 1166.31 235.552 1164.13 233.056C1161.96 230.496 1159.08 229.216 1155.49 229.216C1151.91 229.216 1149.03 230.496 1146.85 233.056C1144.68 235.552 1143.59 239.36 1143.59 244.48C1143.59 249.536 1144.68 253.376 1146.85 256C1149.03 258.56 1151.91 259.84 1155.49 259.84Z" fill="black"/>
<path d="M1108.85 210.976V199.264H1122.29V210.976H1108.85ZM1109.61 268V221.056H1121.61V268H1109.61Z" fill="black"/>
<path d="M1094.28 268.96C1088 268.96 1083.33 267.392 1080.26 264.256C1077.19 261.12 1075.65 256.544 1075.65 250.528V230.08H1066.63V221.056H1075.65V207.04H1087.65V221.056H1101.86V230.08H1087.65V249.856C1087.65 252.928 1088.32 255.232 1089.67 256.768C1091.01 258.304 1093.19 259.072 1096.2 259.072C1097.09 259.072 1098.02 258.976 1098.98 258.784C1099.94 258.528 1100.93 258.272 1101.96 258.016L1103.78 266.848C1102.63 267.488 1101.16 268 1099.36 268.384C1097.64 268.768 1095.94 268.96 1094.28 268.96Z" fill="black"/>
<path d="M1035.73 268.96C1032.34 268.96 1029.3 268.32 1026.61 267.04C1023.98 265.696 1021.9 263.904 1020.37 261.664C1018.9 259.424 1018.16 256.896 1018.16 254.08C1018.16 250.624 1019.06 247.904 1020.85 245.92C1022.64 243.872 1025.55 242.4 1029.58 241.504C1033.62 240.608 1039.02 240.16 1045.81 240.16H1050.61V247.072H1045.9C1042.9 247.072 1040.37 247.2 1038.32 247.456C1036.27 247.648 1034.61 248 1033.33 248.512C1032.11 248.96 1031.22 249.6 1030.64 250.432C1030.13 251.264 1029.87 252.288 1029.87 253.504C1029.87 255.616 1030.61 257.344 1032.08 258.688C1033.55 260.032 1035.6 260.704 1038.22 260.704C1040.34 260.704 1042.19 260.224 1043.79 259.264C1045.46 258.24 1046.77 256.864 1047.73 255.136C1048.69 253.408 1049.17 251.424 1049.17 249.184V238.144C1049.17 234.944 1048.46 232.64 1047.06 231.232C1045.65 229.824 1043.28 229.12 1039.95 229.12C1037.33 229.12 1034.64 229.536 1031.89 230.368C1029.14 231.136 1026.35 232.352 1023.54 234.016L1020.08 225.856C1021.74 224.704 1023.7 223.712 1025.94 222.88C1028.24 221.984 1030.64 221.312 1033.14 220.864C1035.7 220.352 1038.1 220.096 1040.34 220.096C1044.94 220.096 1048.72 220.8 1051.66 222.208C1054.67 223.616 1056.91 225.76 1058.38 228.64C1059.86 231.456 1060.59 235.104 1060.59 239.584V268H1049.36V258.016H1050.13C1049.68 260.256 1048.78 262.208 1047.44 263.872C1046.16 265.472 1044.53 266.72 1042.54 267.616C1040.56 268.512 1038.29 268.96 1035.73 268.96Z" fill="black"/>
<path d="M995.034 210.976V199.264H1008.47V210.976H995.034ZM995.802 268V221.056H1007.8V268H995.802Z" fill="black"/>
<path d="M972.217 268.96C967.289 268.96 963.001 267.968 959.353 265.984C955.705 263.936 952.889 261.056 950.905 257.344C948.921 253.632 947.929 249.28 947.929 244.288C947.929 239.296 948.921 235.008 950.905 231.424C952.889 227.776 955.705 224.992 959.353 223.072C963.001 221.088 967.289 220.096 972.217 220.096C975.225 220.096 978.201 220.576 981.145 221.536C984.089 222.496 986.521 223.84 988.441 225.568L984.889 233.92C983.225 232.448 981.337 231.328 979.225 230.56C977.177 229.792 975.193 229.408 973.273 229.408C969.113 229.408 965.881 230.72 963.577 233.344C961.337 235.904 960.217 239.584 960.217 244.384C960.217 249.12 961.337 252.864 963.577 255.616C965.881 258.304 969.113 259.648 973.273 259.648C975.129 259.648 977.113 259.264 979.225 258.496C981.337 257.728 983.225 256.576 984.889 255.04L988.441 263.488C986.521 265.152 984.057 266.496 981.049 267.52C978.105 268.48 975.161 268.96 972.217 268.96Z" fill="black"/>
<path d="M916.617 268.96C911.753 268.96 907.529 267.968 903.945 265.984C900.361 264 897.577 261.184 895.593 257.536C893.609 253.824 892.617 249.472 892.617 244.48C892.617 239.488 893.609 235.168 895.593 231.52C897.577 227.872 900.361 225.056 903.945 223.072C907.529 221.088 911.753 220.096 916.617 220.096C921.481 220.096 925.705 221.088 929.289 223.072C932.873 225.056 935.657 227.872 937.641 231.52C939.625 235.168 940.617 239.488 940.617 244.48C940.617 249.472 939.625 253.824 937.641 257.536C935.657 261.184 932.873 264 929.289 265.984C925.705 267.968 921.481 268.96 916.617 268.96ZM916.617 259.84C920.201 259.84 923.081 258.56 925.257 256C927.433 253.376 928.521 249.536 928.521 244.48C928.521 239.36 927.433 235.552 925.257 233.056C923.081 230.496 920.201 229.216 916.617 229.216C913.033 229.216 910.153 230.496 907.977 233.056C905.801 235.552 904.713 239.36 904.713 244.48C904.713 249.536 905.801 253.376 907.977 256C910.153 258.56 913.033 259.84 916.617 259.84Z" fill="black"/>
<path d="M865.518 268.96C862.894 268.96 860.334 268.736 857.838 268.288C855.406 267.84 853.166 267.232 851.118 266.464C849.07 265.632 847.278 264.608 845.742 263.392L848.814 255.52C850.414 256.544 852.142 257.44 853.998 258.208C855.854 258.976 857.774 259.552 859.758 259.936C861.742 260.32 863.694 260.512 865.614 260.512C868.686 260.512 870.958 260 872.43 258.976C873.966 257.888 874.734 256.48 874.734 254.752C874.734 253.28 874.222 252.16 873.198 251.392C872.238 250.56 870.766 249.952 868.782 249.568L859.182 247.744C855.214 246.976 852.174 245.536 850.062 243.424C848.014 241.248 846.99 238.464 846.99 235.072C846.99 232 847.822 229.344 849.486 227.104C851.214 224.864 853.582 223.136 856.59 221.92C859.598 220.704 863.054 220.096 866.958 220.096C869.198 220.096 871.374 220.32 873.486 220.768C875.598 221.152 877.582 221.76 879.438 222.592C881.358 223.36 883.022 224.384 884.43 225.664L881.166 233.536C879.95 232.512 878.542 231.648 876.942 230.944C875.342 230.176 873.678 229.6 871.95 229.216C870.286 228.768 868.654 228.544 867.054 228.544C863.918 228.544 861.582 229.088 860.046 230.176C858.574 231.264 857.838 232.704 857.838 234.496C857.838 235.84 858.286 236.96 859.182 237.856C860.078 238.752 861.454 239.36 863.31 239.68L872.91 241.504C877.07 242.272 880.206 243.68 882.318 245.728C884.494 247.776 885.582 250.528 885.582 253.984C885.582 257.12 884.75 259.808 883.086 262.048C881.422 264.288 879.086 266.016 876.078 267.232C873.07 268.384 869.55 268.96 865.518 268.96Z" fill="black"/>
<path d="M818.643 268.96C816.019 268.96 813.459 268.736 810.963 268.288C808.531 267.84 806.291 267.232 804.243 266.464C802.195 265.632 800.403 264.608 798.867 263.392L801.939 255.52C803.539 256.544 805.267 257.44 807.123 258.208C808.979 258.976 810.899 259.552 812.883 259.936C814.867 260.32 816.819 260.512 818.739 260.512C821.811 260.512 824.083 260 825.555 258.976C827.091 257.888 827.859 256.48 827.859 254.752C827.859 253.28 827.347 252.16 826.323 251.392C825.363 250.56 823.891 249.952 821.907 249.568L812.307 247.744C808.339 246.976 805.299 245.536 803.187 243.424C801.139 241.248 800.115 238.464 800.115 235.072C800.115 232 800.947 229.344 802.611 227.104C804.339 224.864 806.707 223.136 809.715 221.92C812.723 220.704 816.179 220.096 820.083 220.096C822.323 220.096 824.499 220.32 826.611 220.768C828.723 221.152 830.707 221.76 832.563 222.592C834.483 223.36 836.147 224.384 837.555 225.664L834.291 233.536C833.075 232.512 831.667 231.648 830.067 230.944C828.467 230.176 826.803 229.6 825.075 229.216C823.411 228.768 821.779 228.544 820.179 228.544C817.043 228.544 814.707 229.088 813.171 230.176C811.699 231.264 810.963 232.704 810.963 234.496C810.963 235.84 811.411 236.96 812.307 237.856C813.203 238.752 814.579 239.36 816.435 239.68L826.035 241.504C830.195 242.272 833.331 243.68 835.443 245.728C837.619 247.776 838.707 250.528 838.707 253.984C838.707 257.12 837.875 259.808 836.211 262.048C834.547 264.288 832.211 266.016 829.203 267.232C826.195 268.384 822.675 268.96 818.643 268.96Z" fill="black"/>
<path d="M724.627 268L755.251 200.32H765.331L795.955 268H783.475L775.315 248.992L780.499 252.352H739.987L745.171 248.992L737.107 268H724.627ZM760.147 213.664L746.707 245.632L744.211 242.56H776.275L773.875 245.632L760.339 213.664H760.147Z" fill="black"/>
<path d="M689.557 268.96C683.285 268.96 678.613 267.392 675.541 264.256C672.469 261.12 670.932 256.544 670.932 250.528V230.08H661.909V221.056H670.932V207.04H682.932V221.056H697.141V230.08H682.932V249.856C682.932 252.928 683.604 255.232 684.948 256.768C686.292 258.304 688.469 259.072 691.477 259.072C692.373 259.072 693.3 258.976 694.26 258.784C695.22 258.528 696.213 258.272 697.237 258.016L699.06 266.848C697.908 267.488 696.437 268 694.645 268.384C692.917 268.768 691.221 268.96 689.557 268.96Z" fill="black"/>
<path d="M638.83 268.96C636.206 268.96 633.646 268.736 631.15 268.288C628.718 267.84 626.478 267.232 624.43 266.464C622.382 265.632 620.59 264.608 619.054 263.392L622.126 255.52C623.726 256.544 625.454 257.44 627.31 258.208C629.166 258.976 631.086 259.552 633.07 259.936C635.054 260.32 637.006 260.512 638.926 260.512C641.998 260.512 644.27 260 645.742 258.976C647.278 257.888 648.046 256.48 648.046 254.752C648.046 253.28 647.534 252.16 646.51 251.392C645.55 250.56 644.078 249.952 642.094 249.568L632.494 247.744C628.526 246.976 625.486 245.536 623.374 243.424C621.326 241.248 620.302 238.464 620.302 235.072C620.302 232 621.134 229.344 622.798 227.104C624.526 224.864 626.894 223.136 629.902 221.92C632.91 220.704 636.366 220.096 640.27 220.096C642.51 220.096 644.686 220.32 646.798 220.768C648.91 221.152 650.894 221.76 652.75 222.592C654.67 223.36 656.334 224.384 657.742 225.664L654.478 233.536C653.262 232.512 651.854 231.648 650.254 230.944C648.654 230.176 646.99 229.6 645.262 229.216C643.598 228.768 641.966 228.544 640.366 228.544C637.23 228.544 634.894 229.088 633.358 230.176C631.886 231.264 631.15 232.704 631.15 234.496C631.15 235.84 631.598 236.96 632.494 237.856C633.39 238.752 634.766 239.36 636.622 239.68L646.222 241.504C650.382 242.272 653.518 243.68 655.63 245.728C657.806 247.776 658.894 250.528 658.894 253.984C658.894 257.12 658.062 259.808 656.398 262.048C654.734 264.288 652.398 266.016 649.39 267.232C646.382 268.384 642.862 268.96 638.83 268.96Z" fill="black"/>
<path d="M592.751 268.96C587.439 268.96 582.863 267.968 579.023 265.984C575.183 264 572.207 261.184 570.095 257.536C568.047 253.888 567.023 249.568 567.023 244.576C567.023 239.712 568.015 235.456 569.999 231.808C572.047 228.16 574.831 225.312 578.351 223.264C581.935 221.152 585.999 220.096 590.543 220.096C595.023 220.096 598.863 221.056 602.063 222.976C605.263 224.896 607.727 227.616 609.455 231.136C611.247 234.656 612.143 238.848 612.143 243.712V247.264H576.719V240.352H603.695L602.159 241.792C602.159 237.44 601.199 234.112 599.279 231.808C597.359 229.44 594.607 228.256 591.023 228.256C588.335 228.256 586.031 228.896 584.111 230.176C582.255 231.392 580.815 233.152 579.791 235.456C578.831 237.696 578.351 240.384 578.351 243.52V244.192C578.351 247.712 578.895 250.624 579.983 252.928C581.071 255.232 582.703 256.96 584.879 258.112C587.055 259.264 589.743 259.84 592.943 259.84C595.567 259.84 598.191 259.456 600.815 258.688C603.439 257.856 605.839 256.576 608.015 254.848L611.375 262.912C609.135 264.768 606.319 266.24 602.927 267.328C599.535 268.416 596.143 268.96 592.751 268.96Z" fill="black"/>
<path d="M532.771 268V221.056H544.483V232.384H543.523C544.419 228.544 546.179 225.632 548.803 223.648C551.427 221.6 554.915 220.416 559.267 220.096L562.915 219.808L563.683 229.984L556.771 230.656C552.867 231.04 549.923 232.256 547.939 234.304C545.955 236.288 544.963 239.104 544.963 242.752V268H532.771Z" fill="black"/>
<path d="M498.867 268.96C494.003 268.96 489.779 267.968 486.195 265.984C482.611 264 479.827 261.184 477.843 257.536C475.859 253.824 474.867 249.472 474.867 244.48C474.867 239.488 475.859 235.168 477.843 231.52C479.827 227.872 482.611 225.056 486.195 223.072C489.779 221.088 494.003 220.096 498.867 220.096C503.731 220.096 507.955 221.088 511.539 223.072C515.123 225.056 517.907 227.872 519.891 231.52C521.875 235.168 522.867 239.488 522.867 244.48C522.867 249.472 521.875 253.824 519.891 257.536C517.907 261.184 515.123 264 511.539 265.984C507.955 267.968 503.731 268.96 498.867 268.96ZM498.867 259.84C502.451 259.84 505.331 258.56 507.507 256C509.683 253.376 510.771 249.536 510.771 244.48C510.771 239.36 509.683 235.552 507.507 233.056C505.331 230.496 502.451 229.216 498.867 229.216C495.283 229.216 492.403 230.496 490.227 233.056C488.051 235.552 486.963 239.36 486.963 244.48C486.963 249.536 488.051 253.376 490.227 256C492.403 258.56 495.283 259.84 498.867 259.84Z" fill="black"/>
<path d="M426.392 268V200.32H470.648V210.112H438.68V229.216H468.632V239.008H438.68V268H426.392Z" fill="black"/>
<path d="M1188.75 154.28L1198.54 132.68V137.672L1177.9 90.0559H1190.67L1205.26 126.44H1202.38L1217.26 90.0559H1229.35L1201.13 154.28H1188.75Z" fill="black"/>
<path d="M1168.43 137.96C1162.16 137.96 1157.49 136.392 1154.42 133.256C1151.34 130.12 1149.81 125.544 1149.81 119.528V99.0798H1140.78V90.0559H1149.81V76.0398H1161.81V90.0559H1176.02V99.0798H1161.81V118.856C1161.81 121.928 1162.48 124.232 1163.82 125.768C1165.17 127.304 1167.34 128.072 1170.35 128.072C1171.25 128.072 1172.18 127.976 1173.14 127.784C1174.1 127.528 1175.09 127.272 1176.11 127.016L1177.94 135.848C1176.78 136.488 1175.31 137 1173.52 137.384C1171.79 137.768 1170.1 137.96 1168.43 137.96Z" fill="black"/>
<path d="M1121.69 79.9759V68.2639H1135.13V79.9759H1121.69ZM1122.46 137V90.0559H1134.46V137H1122.46Z" fill="black"/>
<path d="M1066.3 137V90.0559H1078.01V99.4639H1076.96C1078.37 96.0719 1080.54 93.5119 1083.49 91.7839C1086.49 89.9919 1089.89 89.0959 1093.66 89.0959C1097.44 89.0959 1100.54 89.7998 1102.97 91.2078C1105.41 92.6158 1107.23 94.7599 1108.45 97.6399C1109.66 100.456 1110.27 104.04 1110.27 108.392V137H1098.27V108.968C1098.27 106.536 1097.95 104.552 1097.31 103.016C1096.73 101.48 1095.81 100.36 1094.53 99.6559C1093.31 98.8879 1091.74 98.5039 1089.82 98.5039C1087.52 98.5039 1085.5 99.0158 1083.77 100.04C1082.05 101 1080.7 102.408 1079.74 104.264C1078.78 106.056 1078.3 108.168 1078.3 110.6V137H1066.3Z" fill="black"/>
<path d="M1027.7 137.96C1023.8 137.96 1020.56 137.256 1018 135.848C1015.44 134.376 1013.52 132.2 1012.24 129.32C1011.03 126.44 1010.42 122.856 1010.42 118.568V90.0559H1022.42V118.76C1022.42 120.936 1022.71 122.76 1023.28 124.232C1023.92 125.704 1024.85 126.792 1026.07 127.496C1027.35 128.2 1028.95 128.552 1030.87 128.552C1033.04 128.552 1034.93 128.072 1036.53 127.112C1038.2 126.088 1039.48 124.68 1040.37 122.888C1041.33 121.032 1041.81 118.888 1041.81 116.456V90.0559H1053.81V137H1042.1V127.208H1043.44C1042.1 130.664 1040.05 133.32 1037.3 135.176C1034.61 137.032 1031.41 137.96 1027.7 137.96Z" fill="black"/>
<path d="M926.713 137V90.0559H938.425V99.4639H937.369C938.201 97.2879 939.353 95.4319 940.825 93.8959C942.297 92.3599 944.057 91.1758 946.105 90.3438C948.153 89.5119 950.425 89.0959 952.921 89.0959C956.697 89.0959 959.801 89.9919 962.233 91.7839C964.665 93.5759 966.361 96.3278 967.321 100.04H965.977C967.257 96.6478 969.369 93.9919 972.313 92.0719C975.257 90.0879 978.649 89.0959 982.489 89.0959C986.073 89.0959 989.017 89.7998 991.321 91.2078C993.689 92.6158 995.449 94.7599 996.601 97.6399C997.753 100.456 998.329 104.04 998.329 108.392V137H986.329V108.872C986.329 105.288 985.721 102.664 984.505 101C983.353 99.3358 981.369 98.5039 978.553 98.5039C976.505 98.5039 974.713 99.0158 973.177 100.04C971.641 101 970.457 102.408 969.625 104.264C968.857 106.12 968.473 108.36 968.473 110.984V137H956.473V108.872C956.473 105.288 955.865 102.664 954.649 101C953.497 99.3358 951.545 98.5039 948.793 98.5039C946.681 98.5039 944.857 99.0158 943.321 100.04C941.849 101 940.697 102.408 939.865 104.264C939.097 106.12 938.713 108.36 938.713 110.984V137H926.713Z" fill="black"/>
<path d="M842.526 137V90.0559H854.238V99.4639H853.182C854.014 97.2879 855.166 95.4319 856.638 93.8959C858.11 92.3599 859.87 91.1758 861.918 90.3438C863.966 89.5119 866.238 89.0959 868.734 89.0959C872.51 89.0959 875.614 89.9919 878.046 91.7839C880.478 93.5759 882.174 96.3278 883.134 100.04H881.79C883.07 96.6478 885.182 93.9919 888.126 92.0719C891.07 90.0879 894.462 89.0959 898.302 89.0959C901.886 89.0959 904.83 89.7998 907.134 91.2078C909.502 92.6158 911.262 94.7599 912.414 97.6399C913.566 100.456 914.142 104.04 914.142 108.392V137H902.142V108.872C902.142 105.288 901.534 102.664 900.318 101C899.166 99.3358 897.182 98.5039 894.366 98.5039C892.318 98.5039 890.526 99.0158 888.99 100.04C887.454 101 886.27 102.408 885.438 104.264C884.67 106.12 884.286 108.36 884.286 110.984V137H872.286V108.872C872.286 105.288 871.678 102.664 870.462 101C869.31 99.3358 867.358 98.5039 864.606 98.5039C862.494 98.5039 860.67 99.0158 859.134 100.04C857.662 101 856.51 102.408 855.678 104.264C854.91 106.12 854.526 108.36 854.526 110.984V137H842.526Z" fill="black"/>
<path d="M808.429 137.96C803.565 137.96 799.341 136.968 795.757 134.984C792.173 133 789.389 130.184 787.405 126.536C785.421 122.824 784.429 118.472 784.429 113.48C784.429 108.488 785.421 104.168 787.405 100.52C789.389 96.8719 792.173 94.0559 795.757 92.0719C799.341 90.0879 803.565 89.0959 808.429 89.0959C813.293 89.0959 817.517 90.0879 821.101 92.0719C824.685 94.0559 827.469 96.8719 829.453 100.52C831.437 104.168 832.429 108.488 832.429 113.48C832.429 118.472 831.437 122.824 829.453 126.536C827.469 130.184 824.685 133 821.101 134.984C817.517 136.968 813.293 137.96 808.429 137.96ZM808.429 128.84C812.013 128.84 814.893 127.56 817.069 125C819.245 122.376 820.333 118.536 820.333 113.48C820.333 108.36 819.245 104.552 817.069 102.056C814.893 99.4959 812.013 98.2159 808.429 98.2159C804.845 98.2159 801.965 99.4959 799.789 102.056C797.613 104.552 796.525 108.36 796.525 113.48C796.525 118.536 797.613 122.376 799.789 125C801.965 127.56 804.845 128.84 808.429 128.84Z" fill="black"/>
<path d="M757.88 137.96C750.84 137.96 744.792 136.552 739.736 133.736C734.744 130.856 730.904 126.824 728.216 121.64C725.528 116.392 724.184 110.216 724.184 103.112C724.184 96.0079 725.528 89.8639 728.216 84.6799C730.904 79.4959 734.744 75.4959 739.736 72.6799C744.792 69.7999 750.84 68.3599 757.88 68.3599C762.424 68.3599 766.712 69.0639 770.744 70.4719C774.84 71.8799 778.2 73.8959 780.824 76.5199L776.792 86.3119C773.912 83.8799 770.968 82.1199 767.96 81.0319C764.952 79.8799 761.72 79.3039 758.264 79.3039C751.416 79.3039 746.2 81.3839 742.616 85.5439C739.032 89.6399 737.24 95.4959 737.24 103.112C737.24 110.728 739.032 116.616 742.616 120.776C746.2 124.936 751.416 127.016 758.264 127.016C761.72 127.016 764.952 126.472 767.96 125.384C770.968 124.232 773.912 122.44 776.792 120.008L780.824 129.8C778.2 132.36 774.84 134.376 770.744 135.848C766.712 137.256 762.424 137.96 757.88 137.96Z" fill="black"/>
<path d="M662.321 137.96C658.929 137.96 655.889 137.32 653.201 136.04C650.577 134.696 648.497 132.904 646.961 130.664C645.489 128.424 644.753 125.896 644.753 123.08C644.753 119.624 645.649 116.904 647.441 114.92C649.233 112.872 652.145 111.4 656.177 110.504C660.209 109.608 665.617 109.16 672.401 109.16H677.201V116.072H672.497C669.489 116.072 666.961 116.2 664.913 116.456C662.865 116.648 661.201 117 659.921 117.512C658.705 117.96 657.809 118.6 657.233 119.432C656.721 120.264 656.465 121.288 656.465 122.504C656.465 124.616 657.201 126.344 658.673 127.688C660.145 129.032 662.193 129.704 664.817 129.704C666.929 129.704 668.785 129.224 670.385 128.264C672.049 127.24 673.361 125.864 674.321 124.136C675.281 122.408 675.761 120.424 675.761 118.184V107.144C675.761 103.944 675.057 101.64 673.649 100.232C672.241 98.8238 669.873 98.1199 666.545 98.1199C663.921 98.1199 661.233 98.5359 658.481 99.3679C655.729 100.136 652.945 101.352 650.129 103.016L646.673 94.8559C648.337 93.7038 650.289 92.7119 652.529 91.8799C654.833 90.9839 657.233 90.3119 659.729 89.8639C662.289 89.3519 664.689 89.0959 666.929 89.0959C671.537 89.0959 675.313 89.7998 678.257 91.2078C681.265 92.6158 683.505 94.7599 684.977 97.6399C686.449 100.456 687.185 104.104 687.185 108.584V137H675.953V127.016H676.721C676.273 129.256 675.377 131.208 674.033 132.872C672.753 134.472 671.121 135.72 669.137 136.616C667.153 137.512 664.881 137.96 662.321 137.96Z" fill="#066839"/>
<path d="M621.628 79.9759V68.2639H635.068V79.9759H621.628ZM622.396 137V90.0559H634.396V137H622.396Z" fill="#066839"/>
<path d="M592.705 137.96C590.081 137.96 587.521 137.736 585.025 137.288C582.593 136.84 580.353 136.232 578.305 135.464C576.257 134.632 574.465 133.608 572.929 132.392L576.001 124.52C577.601 125.544 579.329 126.44 581.185 127.208C583.041 127.976 584.961 128.552 586.945 128.936C588.929 129.32 590.881 129.512 592.801 129.512C595.873 129.512 598.145 129 599.617 127.976C601.153 126.888 601.921 125.48 601.921 123.752C601.921 122.28 601.409 121.16 600.385 120.392C599.425 119.56 597.953 118.952 595.969 118.568L586.369 116.744C582.401 115.976 579.361 114.536 577.249 112.424C575.201 110.248 574.177 107.464 574.177 104.072C574.177 101 575.009 98.3439 576.673 96.1039C578.401 93.8639 580.769 92.1359 583.777 90.9199C586.785 89.7039 590.241 89.0959 594.145 89.0959C596.385 89.0959 598.561 89.3199 600.673 89.7679C602.785 90.1519 604.769 90.7598 606.625 91.5919C608.545 92.3598 610.209 93.3838 611.617 94.6638L608.353 102.536C607.137 101.512 605.729 100.648 604.129 99.9439C602.529 99.1759 600.865 98.5998 599.137 98.2159C597.473 97.7679 595.841 97.5439 594.241 97.5439C591.105 97.5439 588.769 98.0879 587.233 99.1758C585.761 100.264 585.025 101.704 585.025 103.496C585.025 104.84 585.473 105.96 586.369 106.856C587.265 107.752 588.641 108.36 590.497 108.68L600.097 110.504C604.257 111.272 607.393 112.68 609.505 114.728C611.681 116.776 612.769 119.528 612.769 122.984C612.769 126.12 611.937 128.808 610.273 131.048C608.609 133.288 606.273 135.016 603.265 136.232C600.257 137.384 596.737 137.96 592.705 137.96Z" fill="#066839"/>
<path d="M550.284 79.9759V68.2639H563.724V79.9759H550.284ZM551.052 137V90.0559H563.052V137H551.052Z" fill="#066839"/>
<path d="M513.459 137V90.0559H525.171V101.384H524.211C525.107 97.5438 526.867 94.6318 529.491 92.6479C532.115 90.5998 535.603 89.4159 539.955 89.0959L543.603 88.8079L544.371 98.9838L537.459 99.6559C533.555 100.04 530.611 101.256 528.627 103.304C526.643 105.288 525.651 108.104 525.651 111.752V137H513.459Z" fill="#066839"/>
<path d="M488.222 79.9759V68.2639H501.662V79.9759H488.222ZM488.99 137V90.0559H500.99V137H488.99Z" fill="#066839"/>
<path d="M426.392 137V69.3198H438.68V99.2719H438.872L468.728 69.3198H483.704L447.992 104.648L448.088 99.0798L485.336 137H470.168L438.872 105.704H438.68V137H426.392Z" fill="#066839"/>
<defs>
<linearGradient id="paint0_linear_287_183" x1="327.472" y1="123.579" x2="503.08" y2="418.724" gradientUnits="userSpaceOnUse">
<stop stop-color="#C32122"/>
<stop offset="1" stop-color="#5D1010"/>
</linearGradient>
<linearGradient id="paint1_linear_287_183" x1="327.472" y1="117.019" x2="489.26" y2="404.231" gradientUnits="userSpaceOnUse">
<stop stop-color="#C32122"/>
<stop offset="1" stop-color="#5D1010"/>
</linearGradient>
</defs>
</svg>
