<svg width="1234" height="363" viewBox="0 0 1234 363" fill="none" xmlns="http://www.w3.org/2000/svg">
<rect width="369" height="363" rx="181.5" fill="#29ABE6"/>
<path d="M279.539 27.4814C279.457 27.7275 278.391 28.1787 277.161 28.5068C275.931 28.835 274.455 29.4502 273.881 29.9424C273.307 30.3936 272.2 31.0499 271.421 31.378C270.642 31.7472 269.453 32.5265 268.756 33.1418C266.296 35.3977 261.335 38.9251 260.187 39.2122C259.039 39.4994 259.039 39.4994 259.285 37.8997C260.31 31.7062 260.023 30.0245 257.85 29.1221C256.825 28.6709 256.497 28.7529 254.775 29.9014C253.709 30.5987 252.602 31.1729 252.356 31.1729C252.069 31.1729 250.757 32.3214 249.404 33.716C248.051 35.1516 246.739 36.4641 246.493 36.7102C244.033 39.0072 238.867 45.898 237.719 48.4001C236.694 50.656 233.865 54.0604 233.414 53.5682C233.291 53.4452 233.537 52.5017 233.988 51.4353C235.71 47.4977 233.414 44.1753 229.929 45.4879C229.232 45.734 228.617 46.7184 227.756 48.8513C227.059 50.4919 226.116 52.3377 225.624 52.9119C224.599 54.1835 221.114 64.4787 220.745 67.4319C220.499 69.3187 219.556 72.518 217.998 76.8248C217.67 77.6862 216.522 79.3679 215.374 80.5163C212.75 83.2234 209.921 87.2841 209.921 88.2685C209.921 88.7197 209.429 89.8682 208.855 90.8936C207.871 92.5753 206.559 95.8567 205.206 99.9174C204.919 100.861 204.304 102.05 203.894 102.583C202.992 103.773 198.236 108.531 196.596 109.925C195.899 110.5 194.628 111.812 193.726 112.797C192.783 113.822 191.225 115.381 190.241 116.283C189.216 117.185 186.51 119.893 184.255 122.313C181.959 124.692 179.499 126.989 178.72 127.358C176.875 128.342 171.996 127.973 169.126 126.742C166.092 125.389 162.402 122.928 162.115 122.108C161.992 121.697 161.5 121.164 161.008 120.918C158.548 119.77 151.291 109.023 151.291 106.603C151.291 106.234 150.676 104.552 149.897 102.871C148.831 100.533 148.134 99.5482 147.027 98.8919C144.854 97.5384 143.706 95.9387 143.132 93.3957C142.558 90.8116 142.435 90.6475 139.606 89.6221C138.499 89.2119 137.105 88.5556 136.531 88.1865C135.957 87.8173 134.686 87.3662 133.702 87.2431C132.595 87.1201 131.078 86.4638 129.766 85.5204C127.47 83.9617 125.42 83.3875 123.616 83.8387C122.591 84.0848 122.509 84.2489 122.714 85.6435C123.616 91.9601 124.19 96.8821 124.231 98.4818C124.231 99.6302 124.723 101.558 125.502 103.404C126.199 105.085 126.937 107.095 127.183 107.875C127.388 108.654 127.921 109.679 128.29 110.131C129.274 111.279 131.857 115.627 132.964 118.006C133.456 119.072 134.235 120.508 134.727 121.205C135.178 121.861 135.834 123.174 136.203 124.076C136.572 124.979 137.31 126.824 137.884 128.178C139.483 132.075 139.893 133.674 139.729 135.274C139.606 136.094 139.77 137.694 140.098 138.842C140.713 141.221 140.795 145.569 140.262 146.923C140.057 147.456 139.483 148.933 138.991 150.245C137.802 153.321 137.187 153.65 128.946 155.454C127.142 155.864 125.133 156.398 124.436 156.603C123.78 156.849 122.099 157.218 120.787 157.464C119.434 157.71 117.179 158.449 115.703 159.146C114.268 159.802 112.628 160.376 112.054 160.376C111.48 160.376 109.635 160.951 107.913 161.648C105.043 162.796 104.469 162.919 101.476 162.714C99.426 162.591 97.499 162.181 96.31 161.648C92.128 159.761 80.853 159.761 74.662 161.648C71.259 162.673 69.578 162.632 65.724 161.443C63.961 160.869 61.132 160.294 59.451 160.13C57.77 160.007 55.597 159.597 54.613 159.269C50.677 157.956 41.165 159.679 39.238 162.058C38.582 162.919 38.582 163.001 39.402 164.314C40.427 165.996 40.509 165.955 35.056 166.283C31.407 166.488 28.865 167.021 24.314 168.539C23.576 168.785 22.469 169.154 21.854 169.318C20.091 169.851 14.351 174.322 14.351 175.142C14.351 176.414 16.975 178.301 19.476 178.875C20.747 179.162 21.854 179.531 21.936 179.695C22.223 180.146 19.722 182.115 18.902 182.115C17.836 182.115 13.449 184.535 12.793 185.479C12.465 185.889 11.235 186.832 10.005 187.489C8.77496 188.186 7.46296 189.211 7.01196 189.703C6.60196 190.237 5.53596 190.975 4.67496 191.385C3.81396 191.754 2.78896 192.205 2.46096 192.37C1.72296 192.739 1.39496 194.749 2.00996 195.364C2.54296 195.897 8.11896 197.702 9.30796 197.702C10.415 197.702 12.342 198.563 12.219 198.973C12.014 199.465 6.31496 203.567 4.26496 204.675C2.82996 205.495 2.33796 205.577 2.09196 205.167C1.35396 203.977 2.46096 212.058 3.73196 217.185L4.22396 219.236L4.59296 217.882C4.92096 216.693 5.08496 216.57 6.51996 216.57C7.46296 216.57 8.48796 216.241 9.14396 215.749C9.71796 215.298 10.743 214.929 11.399 214.929C12.055 214.929 12.834 214.642 13.121 214.314C13.367 213.985 14.023 213.616 14.474 213.452C14.966 213.288 16.073 212.55 16.893 211.812C18.246 210.581 21.034 209.597 21.567 210.13C21.69 210.212 21.649 210.786 21.485 211.401C21.321 212.099 19.927 213.534 17.508 215.421C13.572 218.579 9.02096 222.927 9.02096 223.501C9.02096 223.707 8.36496 224.24 7.58596 224.732C6.39696 225.429 6.15096 225.798 6.15096 226.988C6.15096 229.244 7.79096 233.879 8.48796 233.633C8.81596 233.51 9.71796 233.674 10.497 234.002C11.809 234.535 12.096 234.494 14.556 233.592C16.032 233.017 17.631 232.566 18.123 232.566C18.902 232.566 18.943 232.73 18.738 234.494C18.574 236.053 18.246 236.709 17.057 237.775C15.663 239.088 13.121 243.231 13.121 244.215C13.121 244.502 13.777 245.322 14.515 246.061C15.909 247.414 16.073 247.455 19.189 247.455C20.993 247.455 22.633 247.332 22.92 247.168C23.781 246.635 23.371 245.322 22.141 244.666C20.542 243.846 20.583 243.108 22.305 242.205L23.699 241.426L26.446 243.272L29.193 245.076L28.947 247.045C28.783 248.153 28.209 250.039 27.635 251.27C27.061 252.541 26.651 253.854 26.733 254.223C26.815 254.592 27.553 255.249 28.414 255.7C30.259 256.561 30.997 256.356 33.375 254.305L34.851 252.993L35.917 254.1L36.942 255.208L38.377 253.526C41.206 250.244 42.272 251.926 40.632 257.094C39.894 259.514 39.894 259.637 40.632 260.786C41.001 261.483 41.739 262.139 42.19 262.303C43.625 262.755 48.34 261.688 49.611 260.581L50.8 259.596L51.497 260.663C51.907 261.278 52.071 262.139 51.948 262.837C51.661 264.272 52.563 266.364 53.793 267.184C54.367 267.554 55.884 267.841 57.565 267.882C60.599 267.964 60.353 268.087 62.362 265.298C63.223 264.149 64.33 264.559 65.683 266.61C66.216 267.39 67.159 268.21 67.774 268.415C69.373 268.989 74.129 267.964 75.564 266.774C76.22 266.241 77.163 265.79 77.655 265.79C78.639 265.79 79.951 266.938 79.951 267.759C79.951 268.989 81.058 270.302 82.821 271.286C85.117 272.517 85.609 272.558 88.356 271.614C90.98 270.712 91.431 270.384 91.185 269.728C90.898 268.948 92.087 268.128 93.194 268.415C93.686 268.538 94.588 269.399 95.121 270.302C97.54 274.28 98.196 274.609 102.091 273.911C105.494 273.255 106.601 272.763 107.216 271.532C107.872 270.22 108.569 269.892 110.496 269.892C111.972 269.892 112.997 270.671 113.612 272.23C113.817 272.763 114.842 273.747 115.908 274.444C117.548 275.47 118.204 275.675 119.721 275.511C121.648 275.347 124.313 273.829 125.379 272.312C126.076 271.286 126.855 271.409 131.16 273.419C134.399 274.896 135.424 275.06 137.843 274.403C138.909 274.075 139.606 273.542 140.262 272.435C142.107 269.358 143.337 269.153 145.592 271.573L147.15 273.255L149.815 273.091C151.988 272.968 152.808 272.681 154.243 271.655C155.227 270.958 156.293 269.769 156.703 268.989C157.072 268.251 157.81 267.349 158.384 267.061C159.286 266.569 159.696 266.61 161.131 267.184C163.919 268.292 165.723 268.046 167.814 266.282C168.839 265.462 169.987 264.026 170.397 263.124C171.053 261.729 171.422 261.442 172.816 261.196C173.718 261.073 175.85 260.499 177.531 259.965C180.196 259.104 180.729 258.776 181.467 257.463C181.918 256.602 182.738 255.536 183.23 255.084C183.722 254.633 184.214 253.69 184.378 253.034C184.665 251.516 185.403 250.942 186.838 251.106L187.986 251.229L188.314 255.331C188.519 258.161 188.888 259.965 189.503 261.237C190.364 263.001 190.364 263.206 189.872 270.753C189.626 274.978 189.216 279.49 189.011 280.843C188.806 282.156 188.437 285.888 188.191 289.129C187.945 292.41 187.494 296.183 187.207 297.537C186.879 298.932 186.51 301.434 186.346 303.115C186.182 304.797 185.731 309.76 185.28 314.067C183.681 330.022 184.665 337.652 188.888 342.82C191.553 346.101 196.063 347.25 198.031 345.158C199.753 343.353 200.901 343.886 201.68 346.839C201.926 347.783 202.418 348.685 202.746 348.808C203.074 348.931 203.361 349.341 203.361 349.711C203.361 351.597 210.208 356.027 214.062 356.601C215.661 356.848 216.112 356.724 217.342 355.822C219.187 354.469 221.155 353.566 222.303 353.566C223.246 353.566 227.346 354.797 229.929 355.863C231.446 356.519 233.947 356.642 234.275 356.068C234.398 355.904 235.218 355.617 236.079 355.494C237.063 355.33 238.088 354.756 238.826 353.935C240.917 351.761 242.065 351.392 245.837 351.638C248.912 351.802 249.609 351.72 253.094 350.49C255.185 349.752 257.44 348.89 258.137 348.521C260.105 347.496 262.729 344.789 263.016 343.517C263.549 341.097 263.713 340.851 264.492 340.851C264.902 340.851 265.886 341.425 266.583 342.122C268.141 343.599 268.469 343.558 273.389 341.261C276.3 339.867 282.286 336.298 282.901 335.519C283.024 335.355 284.951 334.165 287.206 332.812C292.454 329.653 296.718 326.7 298.768 324.813C300.859 322.927 302.581 320.63 302.581 319.809C302.581 319.071 303.77 318.292 304.918 318.292C305.943 318.251 312.134 312.262 312.954 310.416C313.323 309.596 313.651 308.365 313.651 307.627C313.651 305.535 314.758 303.608 316.152 303.32C317.792 302.951 320.662 301.311 321.687 300.162C323.737 297.865 324.311 296.224 324.311 292.615C324.311 289.949 324.106 288.759 323.491 287.529C322.384 285.355 322.466 284.74 323.942 283.919C326.361 282.566 329.928 278.792 330.42 277.07C331.404 273.583 331.404 271.04 330.502 267.923C329.682 265.216 329.313 264.641 326.73 262.139C325.172 260.581 323.901 259.063 323.901 258.735C323.901 258.366 324.393 257.792 324.967 257.381C326.525 256.356 327.181 254.346 327.222 250.244C327.304 246.102 326.566 244.092 323.778 240.934C322.466 239.416 321.769 239.047 318.653 238.144C316.685 237.529 312.79 236.34 309.961 235.437C307.132 234.535 303.811 233.592 302.581 233.345C301.351 233.099 298.768 232.484 296.841 231.951C294.914 231.459 292.167 230.802 290.691 230.515C289.215 230.269 286.755 229.654 285.156 229.203C281.548 228.136 275.275 226.66 270.068 225.593C267.813 225.142 264.861 224.322 263.508 223.748C262.114 223.173 260.433 222.599 259.777 222.517C259.121 222.394 257.932 222.107 257.112 221.861C255.39 221.287 249.322 218.21 249.035 217.759C248.953 217.554 249.65 217.226 250.593 216.98C253.463 216.2 255.308 214.765 256.456 212.304C257.85 209.351 258.383 208.94 260.146 209.474C262.155 210.13 264.656 208.776 266.173 206.315L267.321 204.47L266.829 200.614C266.378 197.045 266.419 196.717 267.116 196.225C268.51 195.2 269.289 195.569 270.437 197.702C271.052 198.809 271.708 199.753 271.913 199.753C272.733 199.753 274.988 198.522 276.013 197.538C276.833 196.717 277.161 195.938 277.366 194.133C277.489 192.821 277.776 191.426 277.981 191.057C278.227 190.647 278.391 190.073 278.391 189.744C278.391 188.883 279.17 188.473 279.744 189.047C279.99 189.293 280.441 189.498 280.769 189.498C281.507 189.498 284.582 186.873 285.238 185.684C285.935 184.453 285.894 181.623 285.156 180.639C284.828 180.229 284.541 179.736 284.541 179.572C284.541 179.08 286.878 178.014 287.903 178.014C288.436 178.014 289.543 177.521 290.404 176.947C292.372 175.635 293.561 173.01 293.561 170.056C293.561 168.293 293.397 167.718 292.536 166.939C291.962 166.406 291.511 165.544 291.511 165.011C291.511 163.781 293.643 162.427 295.652 162.427C296.472 162.427 297.579 162.099 298.112 161.648C298.645 161.238 299.506 160.787 299.957 160.622C301.515 160.13 302.253 158.9 302.458 156.398C302.663 153.937 302.089 152.173 300.08 149.015C299.629 148.276 299.342 147.538 299.465 147.333C299.588 147.128 300.613 146.841 301.761 146.677C304.836 146.266 305.656 145.733 307.337 143.19C308.485 141.468 308.936 140.36 309.059 138.719C309.223 136.628 309.182 136.545 307.337 134.7C306.312 133.633 305.451 132.485 305.451 132.116C305.451 131.459 307.624 130.475 310.453 129.86C311.232 129.696 312.011 128.916 313.077 127.276C314.43 125.184 314.553 124.733 314.348 122.969C314.02 120.385 314.225 119.975 316.316 118.539C317.71 117.596 318.202 116.857 318.94 114.848C320.047 111.853 319.883 110.869 317.956 108.941C317.177 108.121 316.521 107.3 316.521 107.095C316.521 106.89 317.3 106.193 318.243 105.537C319.186 104.921 320.539 103.527 321.277 102.46C322.384 100.82 322.548 100.328 322.261 99.179C321.605 96.4309 321.113 95.9797 317.956 95.3645C316.152 94.9953 314.881 94.298 314.881 93.6828C314.881 93.3546 315.578 92.7804 316.439 92.3292C318.612 91.2218 321.81 88.2685 322.097 87.1201C322.22 86.5868 322.671 85.4794 323.081 84.7001C323.491 83.8797 323.737 82.8953 323.614 82.4851C323.245 81.0085 321.236 79.2858 319.555 78.9987C317.792 78.7116 314.881 77.5221 314.881 77.153C314.881 76.9889 315.783 76.0045 316.931 74.938C318.038 73.8716 319.063 72.518 319.186 71.9028C319.35 71.2465 319.719 70.016 320.047 69.1136C321.113 66.0373 320.867 64.7248 318.776 62.797C317.792 61.8946 316.808 61.1153 316.644 61.1153C316.439 61.1153 314.922 61.4845 313.241 61.8946C310.084 62.6329 308.731 62.5919 308.731 61.7716C308.731 61.3204 309.018 60.8692 311.232 57.5879C312.667 55.496 313.077 52.2146 312.093 51.0251C310.617 49.2614 307.419 47.1285 306.927 47.5797C306.64 47.7848 305.123 48.154 303.565 48.359C302.007 48.6051 299.547 49.2614 298.112 49.8357C295.488 50.8611 293.561 51.1482 293.561 50.5329C293.561 49.9177 294.217 49.3024 295.488 48.6461C296.185 48.277 297.046 47.6618 297.333 47.2516C297.62 46.8004 298.276 46.2672 298.809 45.9801C299.342 45.693 299.916 45.0777 300.08 44.5855C300.982 42.1655 300.982 42.0014 299.424 40.2377C297.907 38.4329 294.053 35.6848 293.069 35.6848C292.741 35.6848 290.609 36.5052 288.313 37.5306C286.017 38.556 283.598 39.3763 282.901 39.3763C281.794 39.3763 281.712 39.2943 282.081 38.433C282.737 36.7923 283.68 33.0597 283.844 31.296C284.049 29.4912 283.762 29.1221 280.892 27.6045C279.744 26.9482 279.744 26.9482 279.539 27.4814ZM281.261 39.7455C281.261 40.1967 278.391 42.6577 277.899 42.6577C277.038 42.6577 277.735 41.4272 279.088 40.4838C280.728 39.2943 281.261 39.1302 281.261 39.7455ZM31.284 241.754C31.571 242.492 30.095 244.461 29.316 244.461C28.291 244.461 28.209 243.641 29.111 242.41C30.054 241.098 30.956 240.811 31.284 241.754Z" fill="black"/>
<path d="M18.7375 102.706C18.5735 103.117 18.5325 103.568 18.6555 103.691C19.0245 104.06 19.3525 103.445 19.1885 102.665C19.0655 101.968 19.0245 101.968 18.7375 102.706Z" fill="black"/>
<path d="M3.81316 145.446C3.69016 145.774 3.77216 146.266 4.05916 146.553C4.38716 146.882 4.51016 146.718 4.51016 145.897C4.51016 144.667 4.22316 144.462 3.81316 145.446Z" fill="black"/>
<path d="M42.5529 162.615C37.6243 162.795 36.0841 163.016 37.7783 163.296C38.7987 163.457 39.5303 164.118 39.434 164.799C39.357 165.32 39.203 165.34 34.9482 165.46C33.4657 165.5 31.8678 165.641 31.3864 165.761C30.9051 165.881 29.904 166.082 29.1531 166.202C28.4023 166.322 27.4974 166.603 27.1509 166.843C26.7658 167.084 25.9957 167.284 25.3219 167.364C24.6866 167.404 23.955 167.605 23.6854 167.805C22.9731 168.306 22.1837 168.566 20.9708 168.707C19.9889 168.827 18.8915 169.388 18.5065 169.969C18.4487 170.069 17.9674 170.45 17.4669 170.831C16.947 171.211 16.2154 171.753 15.8304 172.073C15.4453 172.374 14.5405 173.015 13.8281 173.496L12.5575 174.378L12.7885 175.099C13.058 175.921 14.733 177.664 15.7534 178.205C16.1384 178.405 17.5439 178.806 18.8338 179.087C20.143 179.367 21.2596 179.648 21.3174 179.688C21.4329 179.828 21.0093 180.63 20.8168 180.63C20.7398 180.63 20.2777 180.95 19.8157 181.331C19.2188 181.812 18.4487 182.153 17.2358 182.493C16.2732 182.774 15.1951 183.175 14.8293 183.395C14.4635 183.635 13.7704 184.036 13.2891 184.317C12.3457 184.838 11.8066 185.399 11.2675 186.381C11.0173 186.842 10.69 187.062 10.1124 187.222C9.68884 187.343 9.03425 187.663 8.66845 187.944C8.30266 188.224 7.43629 188.845 6.7432 189.306C6.05011 189.787 5.37627 190.408 5.2415 190.689C5.10673 190.99 4.74094 191.45 4.41364 191.731C3.87457 192.212 2.23811 192.853 1.54502 192.853C1.0637 192.853 0.389864 193.615 0.389864 194.156C0.389864 194.416 0.274349 194.657 0.158833 194.717C-0.0529445 194.797 -0.0529445 194.857 0.158833 195.077C0.274349 195.218 0.389864 195.538 0.389864 195.759C0.389864 196.38 1.10221 196.981 2.41138 197.442C3.04671 197.662 3.95158 198.023 4.4329 198.244C4.91421 198.444 6.14637 198.744 7.16676 198.865C8.20639 198.985 9.32304 199.185 9.66958 199.286C10.0161 199.386 10.5745 199.466 10.921 199.466C11.2483 199.466 11.5756 199.546 11.6333 199.646C11.8259 199.967 10.5745 201.089 9.45781 201.61C8.76472 201.931 8.2449 202.311 7.99461 202.732C7.72508 203.173 7.07049 203.654 5.91534 204.275C4.99122 204.776 3.97083 205.477 3.64354 205.818C3.3355 206.179 2.95045 206.479 2.81568 206.479C2.68092 206.479 2.37287 206.7 2.12259 206.98C1.60277 207.561 1.0637 207.622 0.794167 207.121C0.620894 206.8 0.601642 206.8 0.466874 207.141C0.409116 207.341 0.389864 208.423 0.447621 209.545C0.563137 211.449 0.640147 212.05 1.15997 214.936C1.60277 217.481 1.67978 217.841 1.8338 218.102C1.93007 218.262 2.04558 218.703 2.12259 219.104C2.1996 219.625 2.33437 219.825 2.66166 219.865C2.89269 219.905 3.08522 219.845 3.08522 219.765C3.08522 219.665 3.25849 219.384 3.48952 219.124C3.85532 218.703 4.00934 218.683 5.28001 218.803L6.64694 218.923L7.97536 218.002C9.20752 217.16 9.40005 217.1 10.1509 217.22C10.9017 217.34 11.0365 217.28 11.8451 216.539C12.4227 215.998 13.058 215.657 13.6934 215.497C14.4442 215.296 14.7523 215.096 15.0218 214.655C15.5031 213.814 17.1011 212.491 17.6016 212.491C17.8327 212.491 18.1022 212.411 18.1985 212.311C18.314 212.21 18.7953 212.09 19.3151 212.03C20.066 211.95 20.2777 212.01 20.4895 212.331C20.7975 212.772 20.682 213.473 20.297 213.633C20.143 213.693 20.0274 213.914 20.0274 214.134C20.0274 214.775 19.6809 215.236 18.8723 215.717C18.4487 215.978 18.1022 216.258 18.1022 216.338C18.1022 216.439 17.8519 216.619 17.5439 216.719C17.2551 216.839 16.9085 217.14 16.793 217.4C16.6775 217.661 16.2925 218.042 15.9459 218.222C15.1951 218.623 13.5778 220.046 11.5948 222.049C10.8055 222.851 10.0931 223.512 9.99688 223.512C9.74659 223.512 8.68771 224.715 7.97536 225.817C7.16676 227.099 6.10787 228.121 5.58805 228.121C5.35702 228.121 5.203 228.261 5.203 228.462C5.203 229.023 6.20413 231.788 7.37853 234.533C7.45554 234.694 7.66732 235.074 7.85985 235.355C9.47706 237.96 9.45781 237.94 10.7862 237.94C11.5178 237.94 13.0965 237.279 13.0965 236.978C13.0965 236.878 13.2891 236.738 13.5393 236.678C13.7704 236.617 14.5212 236.417 15.2143 236.237C15.9074 236.056 16.6775 235.956 16.9278 235.996C17.2551 236.056 17.4091 235.976 17.4669 235.716C17.5246 235.495 17.6979 235.335 17.8519 235.335C18.0829 235.335 18.1214 235.475 18.0059 235.896C17.9289 236.197 17.8519 236.978 17.8134 237.659C17.7749 238.541 17.6209 239.102 17.2743 239.663C16.7738 240.505 14.4827 242.95 14.2132 242.95C14.1362 242.95 14.0592 243.07 14.0592 243.23C14.0592 243.37 13.8666 243.751 13.6549 244.052L13.2313 244.593L13.7704 245.615C14.656 247.338 15.9844 249.162 17.5631 250.845C18.7568 252.107 19.1033 252.368 19.3344 252.187C19.4691 252.067 19.7387 252.007 19.9119 252.087C20.0852 252.147 20.3547 252.107 20.5088 251.967C20.6628 251.847 20.8746 251.787 20.9901 251.867C21.1056 251.947 21.1826 251.787 21.1826 251.466C21.1826 251.025 21.2404 250.965 21.6254 251.065C21.972 251.165 22.1645 251.065 22.3955 250.685C22.8383 250.003 22.7998 249.823 22.2222 249.683C21.7794 249.562 21.7217 249.462 21.8372 248.921C21.9527 248.34 21.9334 248.32 21.6254 248.58C21.1248 249.001 20.3162 249.041 19.8734 248.641C19.5461 248.36 19.5269 248.24 19.7002 247.899C19.8734 247.599 19.8734 247.478 19.7002 247.418C19.3151 247.278 19.4114 246.957 19.8349 246.957C20.374 246.957 21.2981 246.436 21.4329 246.056C21.6254 245.555 23.0116 245.655 23.6469 246.236C24.2052 246.777 26.323 247.959 26.7273 247.959C26.8428 247.959 26.9584 247.859 26.9584 247.739C26.9584 247.619 27.0931 247.579 27.2664 247.639C27.6515 247.799 28.4986 246.837 28.4986 246.256C28.4986 245.575 29.2494 244.974 30.0003 245.094C30.5586 245.194 30.6163 245.274 30.6163 245.875C30.6163 247.058 29.1146 249.041 28.3638 248.901C27.9787 248.821 27.921 248.901 27.921 249.382C27.921 249.723 28.0172 249.963 28.1713 249.963C28.3445 249.963 28.3253 250.023 28.1328 250.143C27.9595 250.264 27.921 250.504 27.9787 250.825C28.0558 251.085 27.9787 251.727 27.8055 252.227C27.6322 252.748 27.5359 253.269 27.5937 253.41C27.6322 253.55 27.4204 254.151 27.1124 254.732C26.8236 255.313 26.5733 255.915 26.5733 256.075C26.5733 256.255 26.4 256.536 26.1883 256.716C25.9187 256.957 25.8032 257.317 25.8032 257.898C25.8032 258.379 25.7069 258.78 25.5722 258.82C25.3797 258.9 25.784 259.501 26.7851 260.584C26.9776 260.804 27.5744 260.984 28.3638 261.065C29.4804 261.205 29.7115 261.165 30.5971 260.664C31.1939 260.343 31.887 259.742 32.2721 259.201C32.6571 258.7 33.1962 258.119 33.5042 257.918L34.0433 257.558L34.6401 258.319C34.9674 258.74 35.2177 259.161 35.2177 259.281C35.1599 259.742 35.2562 259.942 35.5257 260.063C35.9685 260.223 36.3343 260.002 36.7386 259.321C37.4125 258.119 38.8949 256.616 39.6073 256.355C40.2426 256.135 40.3196 256.155 40.6469 256.596C41.1282 257.257 41.109 258.039 40.5314 259.862C40.2619 260.704 40.0501 261.606 40.0501 261.866C40.0501 262.127 39.8768 262.728 39.665 263.209C39.4533 263.69 39.28 264.331 39.28 264.611C39.28 265.112 40.1656 266.715 40.7239 267.196C41.6673 267.998 47.4431 267.297 48.5404 266.214C48.7907 265.994 49.0795 265.794 49.195 265.794C49.3105 265.794 49.5993 265.573 49.8304 265.293C50.0614 265.012 50.3309 264.792 50.4464 264.792C50.5427 264.792 50.8315 265.192 51.0433 265.693C51.3898 266.475 51.4476 266.856 51.3513 268.158C51.2358 270.222 51.7364 271.404 53.2188 272.567L54.2584 273.388L56.1837 273.368C57.2233 273.368 58.3977 273.468 58.7635 273.589C59.4181 273.809 60.4193 273.789 60.8043 273.529C60.9198 273.468 61.0738 273.108 61.1316 272.747C61.4204 271.424 62.0172 270.402 62.7103 270.102C63.3456 269.821 63.4227 269.841 64.0195 270.302C64.6356 270.803 65.656 272.226 65.656 272.587C65.656 272.767 65.9062 272.987 67.3694 274.15C68.0818 274.731 69.1022 274.731 71.0274 274.21C71.8168 273.989 72.7024 273.809 72.9912 273.809C73.28 273.809 73.5687 273.729 73.6458 273.629C73.7035 273.529 74.0115 273.388 74.3196 273.308C74.6854 273.228 75.0127 272.967 75.186 272.607C75.4555 272.046 75.8598 271.765 76.4759 271.705C76.6684 271.685 76.9379 271.565 77.0727 271.424C77.4963 271.084 79.0365 271.384 79.5178 271.905C79.7681 272.186 79.9606 272.727 80.0376 273.428C80.1916 275.011 80.9425 276.154 81.9628 276.454C82.4249 276.594 82.8292 276.835 82.887 277.015C82.9447 277.176 83.3298 277.496 83.7533 277.697C84.3887 278.017 84.793 278.057 86.1984 277.957C87.2188 277.897 88.2969 277.676 88.913 277.436C89.4713 277.196 90.2222 277.015 90.588 277.015C91.4158 277.015 91.5314 276.795 91.5506 275.312V274.11L92.8598 274.05C94.0342 273.989 94.169 274.029 94.1112 274.35C94.0727 274.651 94.169 274.691 94.6695 274.651C95.2663 274.591 95.2856 274.611 95.5166 275.693C95.6707 276.474 95.9594 277.035 96.4793 277.656C96.9028 278.117 97.2301 278.598 97.2301 278.739C97.2301 278.859 97.6922 279.26 98.2505 279.62C99.3864 280.382 100.176 280.442 101.908 279.941C102.448 279.781 103.487 279.6 104.18 279.54C104.873 279.48 105.701 279.34 106.009 279.219C106.568 278.999 107.877 277.697 107.915 277.316C108.012 276.454 109.186 275.713 110.822 275.492C111.554 275.392 111.958 275.452 112.44 275.713C112.786 275.893 113.229 276.013 113.421 275.953C113.749 275.853 113.961 276.174 114.095 276.955C114.23 277.697 114.885 279.179 115.25 279.52C115.462 279.74 116.386 280.302 117.272 280.762C119.351 281.845 121.007 282.065 122.162 281.444C122.586 281.223 123.144 280.963 123.414 280.843C123.683 280.742 124.357 280.282 124.935 279.841C125.512 279.38 126.032 279.019 126.109 279.019C126.167 279.019 126.378 278.678 126.59 278.278C127.091 277.316 127.399 277.015 127.861 277.015C128.111 277.015 128.227 277.135 128.188 277.356C128.15 277.596 128.246 277.697 128.438 277.656C128.612 277.636 128.862 277.757 128.997 277.917C129.132 278.077 129.401 278.218 129.594 278.218C129.786 278.218 131.018 278.779 132.327 279.48C133.637 280.181 134.811 280.762 134.965 280.782C135.119 280.782 135.716 280.863 136.274 280.943C137.025 281.043 137.603 280.983 138.488 280.702C139.932 280.261 141.299 279.48 141.472 279.039C141.53 278.859 141.934 278.057 142.358 277.256C142.878 276.274 143.244 275.813 143.475 275.813C143.686 275.813 144.091 275.673 144.418 275.512C144.745 275.332 145.092 275.272 145.246 275.352C145.631 275.592 146.42 276.614 146.767 277.356C146.94 277.697 147.344 278.117 147.672 278.298C147.98 278.478 148.538 278.779 148.885 278.959C149.366 279.219 149.905 279.3 151.31 279.24C153.12 279.199 153.332 279.139 155.18 278.137C156.143 277.616 158.338 275.292 158.549 274.571C158.761 273.889 159.974 272.406 160.513 272.186C160.86 272.046 161.091 272.086 161.399 272.306C161.63 272.466 161.938 272.607 162.111 272.607C162.265 272.607 162.669 272.747 162.978 272.927C163.363 273.148 164.267 273.288 165.731 273.368L167.906 273.468L168.811 272.807C169.312 272.446 170.255 271.565 170.91 270.863C171.564 270.182 172.199 269.601 172.315 269.601C172.431 269.601 172.508 268.178 172.508 265.433L172.488 261.285L169.466 259.762C164.421 257.197 156.701 253.33 152.87 251.426C150.271 250.143 146.844 248.42 143.34 246.657C141.973 245.955 139.932 244.933 138.816 244.392C125.839 238 126.706 238.521 122.605 234.694C120.641 232.83 118.581 230.947 118.042 230.466C116.81 229.383 111.188 224.133 109.783 222.751C108.801 221.789 105.701 219.605 94.5733 211.95C92.1089 210.247 91.1271 209.445 90.7805 208.864C90.511 208.443 90.2992 208.062 90.2992 208.002C90.2992 207.962 89.6446 206.72 88.836 205.257C88.0274 203.774 87.0648 201.991 86.6797 201.269C86.3139 200.548 85.8519 199.686 85.6593 199.366C85.3513 198.825 85.024 198.223 83.272 194.957C82.9832 194.396 81.7896 192.332 80.6344 190.348C79.4793 188.365 78.4204 186.561 78.3049 186.341C78.1701 186.12 77.5925 185.138 76.9957 184.136C76.4181 183.154 74.6854 180.189 73.1452 177.564C71.6242 174.939 70.2381 172.594 70.084 172.314C69.8337 171.893 66.0988 165.581 65.5597 164.639C65.4442 164.458 65.1361 163.937 64.8473 163.477L64.3468 162.655L61.2856 162.535C57.4351 162.354 48.6752 162.415 42.5529 162.615ZM19.1033 234.373C18.9301 234.553 18.8723 234.513 18.8723 234.133C18.8723 233.752 18.9301 233.712 19.1033 233.892C19.2766 234.073 19.2766 234.193 19.1033 234.373Z" fill="url(#paint0_linear_285_100)"/>
<path d="M230.436 43.9262C232.907 39.7776 238.728 43.0172 238.161 44.5984C237.812 45.5468 238.012 46.4741 238.619 46.7001C239.085 46.8699 239.174 46.7468 241.278 43.1493C242.01 41.8951 242.878 40.5871 243.204 40.2284C243.53 39.8697 244.167 39.1012 244.62 38.5112C245.073 37.9212 245.73 37.2716 246.092 37.083C246.471 36.8614 246.999 36.2912 247.383 35.7492C247.715 35.222 248.225 34.6848 248.517 34.5442C249.266 34.1597 249.852 33.6001 250.54 32.6226C251.101 31.8343 252.081 31.1465 252.741 31.0792C252.851 31.075 253.392 30.8343 253.941 30.5771C254.5 30.3033 255.291 29.9204 255.736 29.7351C256.166 29.5407 257.12 29.0545 257.853 28.6608L259.178 27.9695L259.664 28.4945C260.214 29.0979 260.862 31.325 260.827 32.4458C260.81 32.867 260.479 34.2548 260.102 35.489C259.716 36.7397 259.421 37.8252 259.427 37.8929C259.488 38.0556 260.349 38.055 260.439 37.8898C260.476 37.8237 260.958 37.5723 261.489 37.3481C262.167 37.0536 262.81 36.5469 263.663 35.6602C264.348 34.961 265.186 34.2171 265.54 34.0029C265.91 33.7979 266.567 33.3845 267.025 33.0984C267.899 32.5247 268.616 32.3161 269.679 32.298C270.177 32.2919 270.513 32.1108 270.917 31.6877C271.216 31.3786 271.788 30.962 272.192 30.775C272.596 30.5881 273.516 30.1258 274.222 29.7396C274.945 29.3626 275.775 29.0655 276.07 29.0769C276.381 29.0973 276.933 28.9921 277.318 28.8382C277.969 28.5933 279.268 27.4791 279.595 26.8842C279.822 26.4711 280.767 26.2376 281.213 26.4826C281.428 26.6006 281.68 26.6103 281.784 26.5384C281.95 26.3929 282 26.4202 282.082 26.7017C282.143 26.8644 282.353 27.1088 282.534 27.2086C283.046 27.4899 283.206 28.3735 282.969 29.7059C282.851 30.351 282.722 31.291 282.677 31.804C282.616 32.3078 282.283 33.5015 281.901 34.4318C281.51 35.3785 281.149 36.4277 281.069 36.7705C280.988 37.1133 280.791 37.6288 280.628 37.9263C280.473 38.2072 280.385 38.5244 280.441 38.6193C280.614 38.9298 282.129 38.3639 283.084 37.6414C283.675 37.1917 284.234 36.918 284.699 36.8937C285.189 36.862 285.894 36.518 286.95 35.8078C287.799 35.2415 288.857 34.6833 289.292 34.5566C289.735 34.4556 290.164 34.2612 290.228 34.1455C290.291 34.0299 290.618 33.8653 290.967 33.7775C291.691 33.5945 291.994 33.1591 291.709 32.7009C291.526 32.4069 291.535 32.3904 291.879 32.429C292.072 32.4702 292.973 32.9437 293.87 33.5014C295.385 34.4627 295.844 34.801 297.978 36.5539C299.867 38.0864 300.128 38.3159 300.27 38.566C300.357 38.7213 300.665 39.02 300.959 39.2676C301.353 39.5697 301.454 39.7761 301.333 40.0752C301.257 40.2916 301.117 40.4296 301.051 40.3933C300.968 40.3479 300.655 40.3696 300.332 40.45C299.813 40.5734 299.724 40.6965 299.224 41.8415L298.679 43.0692L297.293 43.792C296.019 44.4684 295.879 44.6064 295.624 45.3053C295.369 46.0042 295.256 46.0927 294.264 46.451C293.546 46.7017 292.966 47.0927 292.535 47.5654C292.016 48.1192 291.705 48.2928 291.215 48.3245C290.294 48.3565 288.451 49.1291 288.216 49.5587C288.107 49.757 287.914 49.9521 287.786 49.9893C287.649 50.0431 287.323 50.4018 287.028 50.8207C286.608 51.4289 286.558 51.6378 286.723 51.9648C286.941 52.4288 287.573 52.6473 287.887 52.3894C288.009 52.2844 288.245 52.2851 288.427 52.3849C288.955 52.6753 289.499 52.5866 290.276 52.1103C290.69 51.8648 291.085 51.6944 291.151 51.7307C291.233 51.7761 291.5 51.6429 291.728 51.4239C291.963 51.2305 292.374 51.0691 292.643 51.088C292.912 51.1068 293.408 50.9487 293.719 50.7329C294.404 50.27 296.338 49.5262 298.924 48.7316C299.957 48.4171 300.838 48.1052 300.883 48.0226C301.001 47.8077 302.491 47.4434 303.735 47.3311C305.173 47.2178 306.514 46.7718 306.759 46.3256C306.868 46.1273 307.056 46.0586 307.221 46.1494C307.684 46.4035 309.491 48.515 311.201 50.7662C311.297 50.9049 311.511 51.2591 311.651 51.5514C313.036 54.1192 313.029 54.0936 312.403 55.2337C312.058 55.8617 310.769 56.9172 310.521 56.7811C310.439 56.7357 310.233 56.8375 310.065 57.0251C309.907 57.1961 309.388 57.7498 308.912 58.263C308.437 58.7763 307.992 59.3919 307.907 59.6248C307.802 59.933 307.664 60.0289 307.422 59.9605C307.213 59.9102 306.999 59.9863 306.926 60.1185C306.818 60.3168 306.915 60.4134 307.316 60.5048C307.6 60.5748 308.281 60.8627 308.861 61.1381C309.605 61.5044 310.14 61.6263 310.766 61.5829C311.696 61.5344 314.79 60.6751 314.917 60.4437C314.954 60.3776 315.089 60.366 315.221 60.4386C315.337 60.5021 315.741 60.5093 316.089 60.4636L316.734 60.3451L317.323 61.2706C318.326 62.8111 319.203 64.7771 319.846 66.8944C320.324 68.4906 320.376 68.906 320.118 69.0226C319.956 69.0839 319.779 69.288 319.764 69.473C319.731 69.6489 319.571 69.8621 319.383 69.9308C319.212 70.0086 319.062 70.1631 319.074 70.2985C319.086 70.434 318.917 70.4275 318.653 70.2823C318.289 70.0827 318.213 70.105 318.114 70.4809C318.033 70.8237 317.86 70.9436 317.437 70.9694C316.667 71.041 316.537 70.9262 316.693 70.367C316.803 69.9325 316.747 69.8375 316.247 69.6917C315.713 69.5276 315.706 69.5021 316.066 69.3556C316.649 69.1166 317.063 68.4407 316.941 67.8791C316.864 67.4712 316.774 67.4002 316.411 67.3946C316.082 67.4072 315.983 67.3528 316.015 67.1769C316.081 66.7828 315.771 66.7203 315.572 67.0838C315.318 67.5465 314.453 68.1037 314.075 68.047C313.572 67.9854 313.001 69.2205 313.181 70.029C313.364 70.7532 313.34 73.1063 313.15 73.4533C313.095 73.5525 312.958 73.6062 312.859 73.5518C312.76 73.4973 312.664 73.5949 312.632 73.7708C312.582 74.1739 311.39 74.4654 310.911 74.2022C310.35 73.8937 309.501 74.2659 309.246 74.9648C309.065 75.4894 309.104 75.5753 309.6 75.8475C310.574 76.3829 312.917 75.9924 313.155 75.2844C313.27 74.9176 313.364 74.9043 313.76 75.1221C314.041 75.2764 314.194 75.4679 314.121 75.6001C314.04 75.7488 314.098 75.7595 314.288 75.6487C314.469 75.5545 314.685 75.6303 314.922 75.8251C315.101 76.0091 315.665 76.2334 316.16 76.3116C316.671 76.3988 317.146 76.5521 317.234 76.6652C317.332 76.7618 317.927 76.8522 318.551 76.851C319.166 76.8663 319.78 76.9237 319.912 76.9963C320.06 77.078 320.373 77.0563 320.622 76.9562C320.947 76.8338 321.299 76.898 321.778 77.1611C322.174 77.3789 322.55 77.4778 322.646 77.3802C322.803 77.2513 323.108 77.8706 323.528 79.2199C323.619 79.4849 323.486 80.0788 323.181 80.7927C322.77 81.8146 322.628 81.9947 321.798 82.528C321.253 82.8951 320.43 83.2177 319.803 83.3032C319.209 83.4068 318.476 83.6063 318.165 83.78L317.614 84.0793L317.961 84.9364C318.153 85.4079 318.382 85.8133 318.481 85.8677C318.888 86.0269 319.008 86.2002 318.98 86.486C318.904 86.9387 318.55 87.1528 317.798 87.1913C316.489 87.2252 314.552 87.817 314.001 88.3104C313.52 88.7559 313.501 88.8311 313.71 89.3117C314.028 90.0242 314.681 90.3616 316.456 90.6917C317.277 90.8415 318.12 91.068 318.335 91.186C318.55 91.304 319.127 91.4275 319.623 91.4635C320.119 91.4995 320.729 91.6412 320.961 91.7682C321.373 91.9951 322.277 93.4812 322.411 94.1782C322.627 95.3509 319.327 99.9906 317.918 100.442C317.619 100.557 317.318 100.715 317.263 100.814C317.209 100.913 316.891 101.061 316.551 101.132C316.211 101.203 315.902 101.335 315.848 101.434C315.802 101.517 315.997 101.946 316.31 102.355C316.791 103.006 317.077 103.228 318.196 103.735C319.952 104.571 320.69 105.536 320.95 107.335L321.137 108.599L320.213 110.242C319.724 111.135 319.253 112.188 319.18 112.556C319.053 113.218 318.565 114.068 318.168 114.281C318.064 114.353 317.695 114.322 317.37 114.208C316.144 113.857 315.02 113.906 314.446 114.365C313.915 114.783 313.896 114.858 313.994 115.579C314.117 116.335 314.809 117.855 315.106 118.018C315.255 118.1 315.319 118.415 315.587 120.197C315.73 121.072 315.25 121.947 313.913 123.364C313.359 123.942 312.794 124.62 312.657 124.868C312.521 125.116 312.319 125.327 312.2 125.348C312.091 125.352 311.83 125.553 311.619 125.781C311.38 126.059 311.011 126.222 310.632 126.207C310.043 126.184 309.621 126.404 309.281 126.906C309.174 127.062 308.948 127.239 308.769 127.291C308.288 127.5 307.811 128.959 308.013 129.608C308.126 129.949 308.482 130.36 309.023 130.743C310.256 131.592 310.843 132.754 310.61 133.766C310.508 134.226 310.516 134.682 310.637 134.813C310.742 134.936 310.825 135.411 310.791 135.866C310.756 136.556 310.598 136.921 309.853 138.082C309.323 138.931 308.633 139.756 308.145 140.176C307.684 140.546 307.181 141.109 307.009 141.423C306.619 142.134 306.383 142.133 305.151 141.478L304.16 140.934L303.494 142.03C302.891 143.011 302.861 143.145 303.152 143.24C303.418 143.343 303.406 143.444 303.137 143.856C302.806 144.341 302.813 144.366 303.596 145.055C304.168 145.541 304.494 146.043 304.761 146.77C304.942 147.342 305.184 147.841 305.3 147.905C305.399 147.959 305.511 148.537 305.545 149.18C305.638 150.499 305.315 151.204 304.086 152.464C303.7 152.855 303.062 153.665 302.685 154.233C302.309 154.801 301.804 155.448 301.559 155.657C301.115 156.037 299.424 156.571 299.092 156.431C298.337 156.124 297.172 156.796 296.219 158.101C295.792 158.683 295.651 159.058 295.639 159.589C295.624 159.968 295.515 160.402 295.375 160.54C295.138 160.776 295.302 161.103 295.883 161.572C296.431 162.024 297.344 163.257 297.453 163.725C297.535 164.007 297.562 165.054 297.524 166.023C297.436 168.298 296.838 169.819 295.782 170.529C295.4 170.793 294.923 171.154 294.697 171.331C294.487 171.517 293.79 171.886 293.154 172.182C292.502 172.469 291.96 172.752 291.924 172.818C291.896 172.868 291.516 172.895 291.086 172.896C290.057 172.89 289.664 173.018 289.446 173.415C289.328 173.629 289.373 173.783 289.573 173.85C289.789 173.926 289.827 174.054 289.703 174.201C289.605 174.34 289.586 174.61 289.654 174.798C289.723 174.986 289.712 175.281 289.621 175.446C289.53 175.612 289.412 176.923 289.373 178.364C289.335 179.806 289.26 181.077 289.204 181.218C289.132 181.35 288.916 181.899 288.719 182.414C288.448 183.104 288.127 183.573 287.478 184.206C286.434 185.246 285.146 186.065 284.701 186.014C284.525 185.982 283.674 185.966 282.814 185.966C281.76 185.968 281.207 186.073 281.098 186.272C280.999 186.453 280.693 186.737 280.406 186.945C280.103 187.144 279.891 187.415 279.884 187.583C279.901 188.022 280.371 189.163 280.819 189.796C281.018 190.099 281.175 190.637 281.169 190.999C281.172 191.345 281.157 191.96 281.142 192.34C281.13 192.871 280.942 193.37 280.231 194.549C279.345 196.084 279.196 196.238 277.499 197.371C276.616 197.961 273.666 198.792 272.971 198.648C272.31 198.521 270.516 198.89 270.081 199.253C269.802 199.487 269.726 199.704 269.763 200.068C269.786 200.339 269.756 200.667 269.675 200.815C269.602 200.947 269.527 201.358 269.531 201.704C269.531 202.134 269.22 202.975 268.597 204.267L267.654 206.179L266.683 206.657C266.15 206.923 264.979 207.333 264.092 207.577C263.222 207.831 262.444 208.113 262.389 208.212C262.335 208.311 261.126 207.733 258.863 206.49L255.453 204.595L255.622 201.311C255.885 195.82 256.335 187.442 256.571 183.292C256.739 180.48 256.933 176.758 257.13 172.952C257.196 171.461 257.316 169.247 257.396 168.044C258.241 154.011 258.263 154.991 257.04 149.738C256.429 147.209 255.847 144.587 255.705 143.907C255.394 142.359 253.715 135.157 253.238 133.324C252.908 132.046 252.568 128.396 251.502 115.379C251.259 112.492 251.061 111.286 250.745 110.726C250.526 110.304 250.312 109.95 250.262 109.923C250.229 109.904 249.513 108.78 248.689 107.423C247.848 106.058 246.831 104.424 246.418 103.767C245.996 103.126 245.503 102.339 245.33 102.029C245.029 101.52 244.688 100.966 242.821 97.9836C242.495 97.4816 241.356 95.5224 240.265 93.6326C239.174 91.7427 238.187 90.0171 238.059 89.8182C237.941 89.6027 237.404 88.6623 236.859 87.6963C236.322 86.7559 234.694 83.9257 233.256 81.415C231.809 78.9208 230.53 76.6693 230.371 76.41C230.142 76.0046 226.699 69.9404 226.177 69.0512C226.083 68.8704 225.799 68.3701 225.555 67.9135L225.114 67.1118L223.132 58.4352C224.798 55.0487 227.386 49.0902 230.436 43.9262ZM305.544 60.7571C305.774 60.69 305.768 60.6223 305.455 60.4499C305.141 60.2775 305.081 60.3089 305.148 60.5393C305.215 60.7697 305.314 60.8241 305.544 60.7571Z" fill="url(#paint1_linear_285_100)"/>
<path d="M1189.4 294V247.056H1201.11V256.464H1200.05C1201.46 253.072 1203.64 250.512 1206.58 248.784C1209.59 246.992 1212.98 246.096 1216.76 246.096C1220.53 246.096 1223.64 246.8 1226.07 248.208C1228.5 249.616 1230.32 251.76 1231.54 254.64C1232.76 257.456 1233.36 261.04 1233.36 265.392V294H1221.36V265.968C1221.36 263.536 1221.04 261.552 1220.4 260.016C1219.83 258.48 1218.9 257.36 1217.62 256.656C1216.4 255.888 1214.84 255.504 1212.92 255.504C1210.61 255.504 1208.6 256.016 1206.87 257.04C1205.14 258 1203.8 259.408 1202.84 261.264C1201.88 263.056 1201.4 265.168 1201.4 267.6V294H1189.4Z" fill="black"/>
<path d="M1155.49 294.96C1150.63 294.96 1146.4 293.968 1142.82 291.984C1139.24 290 1136.45 287.184 1134.47 283.536C1132.48 279.824 1131.49 275.472 1131.49 270.48C1131.49 265.488 1132.48 261.168 1134.47 257.52C1136.45 253.872 1139.24 251.056 1142.82 249.072C1146.4 247.088 1150.63 246.096 1155.49 246.096C1160.36 246.096 1164.58 247.088 1168.16 249.072C1171.75 251.056 1174.53 253.872 1176.52 257.52C1178.5 261.168 1179.49 265.488 1179.49 270.48C1179.49 275.472 1178.5 279.824 1176.52 283.536C1174.53 287.184 1171.75 290 1168.16 291.984C1164.58 293.968 1160.36 294.96 1155.49 294.96ZM1155.49 285.84C1159.08 285.84 1161.96 284.56 1164.13 282C1166.31 279.376 1167.4 275.536 1167.4 270.48C1167.4 265.36 1166.31 261.552 1164.13 259.056C1161.96 256.496 1159.08 255.216 1155.49 255.216C1151.91 255.216 1149.03 256.496 1146.85 259.056C1144.68 261.552 1143.59 265.36 1143.59 270.48C1143.59 275.536 1144.68 279.376 1146.85 282C1149.03 284.56 1151.91 285.84 1155.49 285.84Z" fill="black"/>
<path d="M1108.85 236.976V225.264H1122.29V236.976H1108.85ZM1109.62 294V247.056H1121.62V294H1109.62Z" fill="black"/>
<path d="M1094.27 294.96C1088 294.96 1083.33 293.392 1080.26 290.256C1077.19 287.12 1075.65 282.544 1075.65 276.528V256.08H1066.63V247.056H1075.65V233.04H1087.65V247.056H1101.86V256.08H1087.65V275.856C1087.65 278.928 1088.32 281.232 1089.67 282.768C1091.01 284.304 1093.19 285.072 1096.19 285.072C1097.09 285.072 1098.02 284.976 1098.98 284.784C1099.94 284.528 1100.93 284.272 1101.95 284.016L1103.78 292.848C1102.63 293.488 1101.15 294 1099.36 294.384C1097.63 294.768 1095.94 294.96 1094.27 294.96Z" fill="black"/>
<path d="M1035.73 294.96C1032.34 294.96 1029.3 294.32 1026.61 293.04C1023.98 291.696 1021.9 289.904 1020.37 287.664C1018.9 285.424 1018.16 282.896 1018.16 280.08C1018.16 276.624 1019.06 273.904 1020.85 271.92C1022.64 269.872 1025.55 268.4 1029.58 267.504C1033.62 266.608 1039.02 266.16 1045.81 266.16H1050.61V273.072H1045.9C1042.9 273.072 1040.37 273.2 1038.32 273.456C1036.27 273.648 1034.61 274 1033.33 274.512C1032.11 274.96 1031.22 275.6 1030.64 276.432C1030.13 277.264 1029.87 278.288 1029.87 279.504C1029.87 281.616 1030.61 283.344 1032.08 284.688C1033.55 286.032 1035.6 286.704 1038.22 286.704C1040.34 286.704 1042.19 286.224 1043.79 285.264C1045.46 284.24 1046.77 282.864 1047.73 281.136C1048.69 279.408 1049.17 277.424 1049.17 275.184V264.144C1049.17 260.944 1048.46 258.64 1047.06 257.232C1045.65 255.824 1043.28 255.12 1039.95 255.12C1037.33 255.12 1034.64 255.536 1031.89 256.368C1029.14 257.136 1026.35 258.352 1023.54 260.016L1020.08 251.856C1021.74 250.704 1023.7 249.712 1025.94 248.88C1028.24 247.984 1030.64 247.312 1033.14 246.864C1035.7 246.352 1038.1 246.096 1040.34 246.096C1044.94 246.096 1048.72 246.8 1051.66 248.208C1054.67 249.616 1056.91 251.76 1058.38 254.64C1059.86 257.456 1060.59 261.104 1060.59 265.584V294H1049.36V284.016H1050.13C1049.68 286.256 1048.78 288.208 1047.44 289.872C1046.16 291.472 1044.53 292.72 1042.54 293.616C1040.56 294.512 1038.29 294.96 1035.73 294.96Z" fill="black"/>
<path d="M995.035 236.976V225.264H1008.48V236.976H995.035ZM995.803 294V247.056H1007.8V294H995.803Z" fill="black"/>
<path d="M972.218 294.96C967.29 294.96 963.002 293.968 959.354 291.984C955.706 289.936 952.89 287.056 950.906 283.344C948.922 279.632 947.93 275.28 947.93 270.288C947.93 265.296 948.922 261.008 950.906 257.424C952.89 253.776 955.706 250.992 959.354 249.072C963.002 247.088 967.29 246.096 972.218 246.096C975.226 246.096 978.202 246.576 981.146 247.536C984.09 248.496 986.522 249.84 988.442 251.568L984.89 259.92C983.226 258.448 981.338 257.328 979.226 256.56C977.178 255.792 975.194 255.408 973.274 255.408C969.114 255.408 965.882 256.72 963.578 259.344C961.338 261.904 960.218 265.584 960.218 270.384C960.218 275.12 961.338 278.864 963.578 281.616C965.882 284.304 969.114 285.648 973.274 285.648C975.13 285.648 977.114 285.264 979.226 284.496C981.338 283.728 983.226 282.576 984.89 281.04L988.442 289.488C986.522 291.152 984.058 292.496 981.05 293.52C978.106 294.48 975.162 294.96 972.218 294.96Z" fill="black"/>
<path d="M916.617 294.96C911.753 294.96 907.529 293.968 903.945 291.984C900.361 290 897.577 287.184 895.593 283.536C893.609 279.824 892.617 275.472 892.617 270.48C892.617 265.488 893.609 261.168 895.593 257.52C897.577 253.872 900.361 251.056 903.945 249.072C907.529 247.088 911.753 246.096 916.617 246.096C921.481 246.096 925.705 247.088 929.289 249.072C932.873 251.056 935.657 253.872 937.641 257.52C939.625 261.168 940.617 265.488 940.617 270.48C940.617 275.472 939.625 279.824 937.641 283.536C935.657 287.184 932.873 290 929.289 291.984C925.705 293.968 921.481 294.96 916.617 294.96ZM916.617 285.84C920.201 285.84 923.081 284.56 925.257 282C927.433 279.376 928.521 275.536 928.521 270.48C928.521 265.36 927.433 261.552 925.257 259.056C923.081 256.496 920.201 255.216 916.617 255.216C913.033 255.216 910.153 256.496 907.977 259.056C905.801 261.552 904.713 265.36 904.713 270.48C904.713 275.536 905.801 279.376 907.977 282C910.153 284.56 913.033 285.84 916.617 285.84Z" fill="black"/>
<path d="M865.518 294.96C862.894 294.96 860.334 294.736 857.838 294.288C855.406 293.84 853.166 293.232 851.118 292.464C849.07 291.632 847.278 290.608 845.742 289.392L848.814 281.52C850.414 282.544 852.142 283.44 853.998 284.208C855.854 284.976 857.774 285.552 859.758 285.936C861.742 286.32 863.694 286.512 865.614 286.512C868.686 286.512 870.958 286 872.43 284.976C873.966 283.888 874.734 282.48 874.734 280.752C874.734 279.28 874.222 278.16 873.198 277.392C872.238 276.56 870.766 275.952 868.782 275.568L859.182 273.744C855.214 272.976 852.174 271.536 850.062 269.424C848.014 267.248 846.99 264.464 846.99 261.072C846.99 258 847.822 255.344 849.486 253.104C851.214 250.864 853.582 249.136 856.59 247.92C859.598 246.704 863.054 246.096 866.958 246.096C869.198 246.096 871.374 246.32 873.486 246.768C875.598 247.152 877.582 247.76 879.438 248.592C881.358 249.36 883.022 250.384 884.43 251.664L881.166 259.536C879.95 258.512 878.542 257.648 876.942 256.944C875.342 256.176 873.678 255.6 871.95 255.216C870.286 254.768 868.654 254.544 867.054 254.544C863.918 254.544 861.582 255.088 860.046 256.176C858.574 257.264 857.838 258.704 857.838 260.496C857.838 261.84 858.286 262.96 859.182 263.856C860.078 264.752 861.454 265.36 863.31 265.68L872.91 267.504C877.07 268.272 880.206 269.68 882.318 271.728C884.494 273.776 885.582 276.528 885.582 279.984C885.582 283.12 884.75 285.808 883.086 288.048C881.422 290.288 879.086 292.016 876.078 293.232C873.07 294.384 869.55 294.96 865.518 294.96Z" fill="black"/>
<path d="M818.643 294.96C816.019 294.96 813.459 294.736 810.963 294.288C808.531 293.84 806.291 293.232 804.243 292.464C802.195 291.632 800.403 290.608 798.867 289.392L801.939 281.52C803.539 282.544 805.267 283.44 807.123 284.208C808.979 284.976 810.899 285.552 812.883 285.936C814.867 286.32 816.819 286.512 818.739 286.512C821.811 286.512 824.083 286 825.555 284.976C827.091 283.888 827.859 282.48 827.859 280.752C827.859 279.28 827.347 278.16 826.323 277.392C825.363 276.56 823.891 275.952 821.907 275.568L812.307 273.744C808.339 272.976 805.299 271.536 803.187 269.424C801.139 267.248 800.115 264.464 800.115 261.072C800.115 258 800.947 255.344 802.611 253.104C804.339 250.864 806.707 249.136 809.715 247.92C812.723 246.704 816.179 246.096 820.083 246.096C822.323 246.096 824.499 246.32 826.611 246.768C828.723 247.152 830.707 247.76 832.563 248.592C834.483 249.36 836.147 250.384 837.555 251.664L834.291 259.536C833.075 258.512 831.667 257.648 830.067 256.944C828.467 256.176 826.803 255.6 825.075 255.216C823.411 254.768 821.779 254.544 820.179 254.544C817.043 254.544 814.707 255.088 813.171 256.176C811.699 257.264 810.963 258.704 810.963 260.496C810.963 261.84 811.411 262.96 812.307 263.856C813.203 264.752 814.579 265.36 816.435 265.68L826.035 267.504C830.195 268.272 833.331 269.68 835.443 271.728C837.619 273.776 838.707 276.528 838.707 279.984C838.707 283.12 837.875 285.808 836.211 288.048C834.547 290.288 832.211 292.016 829.203 293.232C826.195 294.384 822.675 294.96 818.643 294.96Z" fill="black"/>
<path d="M724.627 294L755.251 226.32H765.331L795.955 294H783.475L775.315 274.992L780.499 278.352H739.987L745.171 274.992L737.107 294H724.627ZM760.147 239.664L746.707 271.632L744.211 268.56H776.275L773.875 271.632L760.339 239.664H760.147Z" fill="black"/>
<path d="M689.556 294.96C683.284 294.96 678.612 293.392 675.54 290.256C672.468 287.12 670.932 282.544 670.932 276.528V256.08H661.908V247.056H670.932V233.04H682.932V247.056H697.14V256.08H682.932V275.856C682.932 278.928 683.604 281.232 684.948 282.768C686.292 284.304 688.468 285.072 691.476 285.072C692.372 285.072 693.3 284.976 694.26 284.784C695.22 284.528 696.212 284.272 697.236 284.016L699.06 292.848C697.908 293.488 696.436 294 694.644 294.384C692.916 294.768 691.22 294.96 689.556 294.96Z" fill="black"/>
<path d="M638.831 294.96C636.207 294.96 633.647 294.736 631.151 294.288C628.719 293.84 626.479 293.232 624.431 292.464C622.383 291.632 620.591 290.608 619.055 289.392L622.127 281.52C623.727 282.544 625.455 283.44 627.311 284.208C629.167 284.976 631.087 285.552 633.071 285.936C635.055 286.32 637.007 286.512 638.927 286.512C641.999 286.512 644.271 286 645.743 284.976C647.279 283.888 648.047 282.48 648.047 280.752C648.047 279.28 647.535 278.16 646.511 277.392C645.551 276.56 644.079 275.952 642.095 275.568L632.495 273.744C628.527 272.976 625.487 271.536 623.375 269.424C621.327 267.248 620.303 264.464 620.303 261.072C620.303 258 621.135 255.344 622.799 253.104C624.527 250.864 626.895 249.136 629.903 247.92C632.911 246.704 636.367 246.096 640.271 246.096C642.511 246.096 644.687 246.32 646.799 246.768C648.911 247.152 650.895 247.76 652.751 248.592C654.671 249.36 656.335 250.384 657.743 251.664L654.479 259.536C653.263 258.512 651.855 257.648 650.255 256.944C648.655 256.176 646.991 255.6 645.263 255.216C643.599 254.768 641.967 254.544 640.367 254.544C637.231 254.544 634.895 255.088 633.359 256.176C631.887 257.264 631.151 258.704 631.151 260.496C631.151 261.84 631.599 262.96 632.495 263.856C633.391 264.752 634.767 265.36 636.623 265.68L646.223 267.504C650.383 268.272 653.519 269.68 655.631 271.728C657.807 273.776 658.895 276.528 658.895 279.984C658.895 283.12 658.063 285.808 656.399 288.048C654.735 290.288 652.399 292.016 649.391 293.232C646.383 294.384 642.863 294.96 638.831 294.96Z" fill="black"/>
<path d="M592.751 294.96C587.439 294.96 582.863 293.968 579.023 291.984C575.183 290 572.207 287.184 570.095 283.536C568.047 279.888 567.023 275.568 567.023 270.576C567.023 265.712 568.015 261.456 569.999 257.808C572.047 254.16 574.831 251.312 578.351 249.264C581.935 247.152 585.999 246.096 590.543 246.096C595.023 246.096 598.863 247.056 602.063 248.976C605.263 250.896 607.727 253.616 609.455 257.136C611.247 260.656 612.143 264.848 612.143 269.712V273.264H576.719V266.352H603.695L602.159 267.792C602.159 263.44 601.199 260.112 599.279 257.808C597.359 255.44 594.607 254.256 591.023 254.256C588.335 254.256 586.031 254.896 584.111 256.176C582.255 257.392 580.815 259.152 579.791 261.456C578.831 263.696 578.351 266.384 578.351 269.52V270.192C578.351 273.712 578.895 276.624 579.983 278.928C581.071 281.232 582.703 282.96 584.879 284.112C587.055 285.264 589.743 285.84 592.943 285.84C595.567 285.84 598.191 285.456 600.815 284.688C603.439 283.856 605.839 282.576 608.015 280.848L611.375 288.912C609.135 290.768 606.319 292.24 602.927 293.328C599.535 294.416 596.143 294.96 592.751 294.96Z" fill="black"/>
<path d="M532.771 294V247.056H544.483V258.384H543.523C544.419 254.544 546.179 251.632 548.803 249.648C551.427 247.6 554.915 246.416 559.267 246.096L562.915 245.808L563.683 255.984L556.771 256.656C552.867 257.04 549.923 258.256 547.939 260.304C545.955 262.288 544.963 265.104 544.963 268.752V294H532.771Z" fill="black"/>
<path d="M498.867 294.96C494.003 294.96 489.779 293.968 486.195 291.984C482.611 290 479.827 287.184 477.843 283.536C475.859 279.824 474.867 275.472 474.867 270.48C474.867 265.488 475.859 261.168 477.843 257.52C479.827 253.872 482.611 251.056 486.195 249.072C489.779 247.088 494.003 246.096 498.867 246.096C503.731 246.096 507.955 247.088 511.539 249.072C515.123 251.056 517.907 253.872 519.891 257.52C521.875 261.168 522.867 265.488 522.867 270.48C522.867 275.472 521.875 279.824 519.891 283.536C517.907 287.184 515.123 290 511.539 291.984C507.955 293.968 503.731 294.96 498.867 294.96ZM498.867 285.84C502.451 285.84 505.331 284.56 507.507 282C509.683 279.376 510.771 275.536 510.771 270.48C510.771 265.36 509.683 261.552 507.507 259.056C505.331 256.496 502.451 255.216 498.867 255.216C495.283 255.216 492.403 256.496 490.227 259.056C488.051 261.552 486.963 265.36 486.963 270.48C486.963 275.536 488.051 279.376 490.227 282C492.403 284.56 495.283 285.84 498.867 285.84Z" fill="black"/>
<path d="M426.393 294V226.32H470.649V236.112H438.681V255.216H468.633V265.008H438.681V294H426.393Z" fill="black"/>
<path d="M1188.74 180.28L1198.54 158.68V163.672L1177.9 116.056H1190.66L1205.26 152.44H1202.38L1217.26 116.056H1229.35L1201.13 180.28H1188.74Z" fill="black"/>
<path d="M1168.43 163.96C1162.16 163.96 1157.49 162.392 1154.42 159.256C1151.34 156.12 1149.81 151.544 1149.81 145.528V125.08H1140.78V116.056H1149.81V102.04H1161.81V116.056H1176.02V125.08H1161.81V144.856C1161.81 147.928 1162.48 150.232 1163.82 151.768C1165.17 153.304 1167.34 154.072 1170.35 154.072C1171.25 154.072 1172.18 153.976 1173.14 153.784C1174.1 153.528 1175.09 153.272 1176.11 153.016L1177.94 161.848C1176.78 162.488 1175.31 163 1173.52 163.384C1171.79 163.768 1170.1 163.96 1168.43 163.96Z" fill="black"/>
<path d="M1121.69 105.976V94.2642H1135.13V105.976H1121.69ZM1122.46 163V116.056H1134.46V163H1122.46Z" fill="black"/>
<path d="M1066.3 163V116.056H1078.01V125.464H1076.96C1078.37 122.072 1080.54 119.512 1083.49 117.784C1086.49 115.992 1089.89 115.096 1093.66 115.096C1097.44 115.096 1100.54 115.8 1102.97 117.208C1105.41 118.616 1107.23 120.76 1108.45 123.64C1109.66 126.456 1110.27 130.04 1110.27 134.392V163H1098.27V134.968C1098.27 132.536 1097.95 130.552 1097.31 129.016C1096.73 127.48 1095.81 126.36 1094.53 125.656C1093.31 124.888 1091.74 124.504 1089.82 124.504C1087.52 124.504 1085.5 125.016 1083.77 126.04C1082.05 127 1080.7 128.408 1079.74 130.264C1078.78 132.056 1078.3 134.168 1078.3 136.6V163H1066.3Z" fill="black"/>
<path d="M1027.7 163.96C1023.8 163.96 1020.56 163.256 1018 161.848C1015.44 160.376 1013.52 158.2 1012.24 155.32C1011.03 152.44 1010.42 148.856 1010.42 144.568V116.056H1022.42V144.76C1022.42 146.936 1022.71 148.76 1023.28 150.232C1023.92 151.704 1024.85 152.792 1026.07 153.496C1027.35 154.2 1028.95 154.552 1030.87 154.552C1033.04 154.552 1034.93 154.072 1036.53 153.112C1038.2 152.088 1039.48 150.68 1040.37 148.888C1041.33 147.032 1041.81 144.888 1041.81 142.456V116.056H1053.81V163H1042.1V153.208H1043.44C1042.1 156.664 1040.05 159.32 1037.3 161.176C1034.61 163.032 1031.41 163.96 1027.7 163.96Z" fill="black"/>
<path d="M926.713 163V116.056H938.425V125.464H937.369C938.201 123.288 939.353 121.432 940.825 119.896C942.297 118.36 944.057 117.176 946.105 116.344C948.153 115.512 950.425 115.096 952.921 115.096C956.697 115.096 959.801 115.992 962.233 117.784C964.665 119.576 966.361 122.328 967.321 126.04H965.977C967.257 122.648 969.369 119.992 972.313 118.072C975.257 116.088 978.649 115.096 982.489 115.096C986.073 115.096 989.017 115.8 991.321 117.208C993.689 118.616 995.449 120.76 996.601 123.64C997.753 126.456 998.329 130.04 998.329 134.392V163H986.329V134.872C986.329 131.288 985.721 128.664 984.505 127C983.353 125.336 981.369 124.504 978.553 124.504C976.505 124.504 974.713 125.016 973.177 126.04C971.641 127 970.457 128.408 969.625 130.264C968.857 132.12 968.473 134.36 968.473 136.984V163H956.473V134.872C956.473 131.288 955.865 128.664 954.649 127C953.497 125.336 951.545 124.504 948.793 124.504C946.681 124.504 944.857 125.016 943.321 126.04C941.849 127 940.697 128.408 939.865 130.264C939.097 132.12 938.713 134.36 938.713 136.984V163H926.713Z" fill="black"/>
<path d="M842.525 163V116.056H854.237V125.464H853.181C854.013 123.288 855.165 121.432 856.637 119.896C858.109 118.36 859.869 117.176 861.917 116.344C863.965 115.512 866.237 115.096 868.733 115.096C872.509 115.096 875.613 115.992 878.045 117.784C880.477 119.576 882.173 122.328 883.133 126.04H881.789C883.069 122.648 885.181 119.992 888.125 118.072C891.069 116.088 894.461 115.096 898.301 115.096C901.885 115.096 904.829 115.8 907.133 117.208C909.501 118.616 911.261 120.76 912.413 123.64C913.565 126.456 914.141 130.04 914.141 134.392V163H902.141V134.872C902.141 131.288 901.533 128.664 900.317 127C899.165 125.336 897.181 124.504 894.365 124.504C892.317 124.504 890.525 125.016 888.989 126.04C887.453 127 886.269 128.408 885.437 130.264C884.669 132.12 884.285 134.36 884.285 136.984V163H872.285V134.872C872.285 131.288 871.677 128.664 870.461 127C869.309 125.336 867.357 124.504 864.605 124.504C862.493 124.504 860.669 125.016 859.133 126.04C857.661 127 856.509 128.408 855.677 130.264C854.909 132.12 854.525 134.36 854.525 136.984V163H842.525Z" fill="black"/>
<path d="M808.43 163.96C803.566 163.96 799.342 162.968 795.758 160.984C792.174 159 789.39 156.184 787.406 152.536C785.422 148.824 784.43 144.472 784.43 139.48C784.43 134.488 785.422 130.168 787.406 126.52C789.39 122.872 792.174 120.056 795.758 118.072C799.342 116.088 803.566 115.096 808.43 115.096C813.294 115.096 817.518 116.088 821.102 118.072C824.686 120.056 827.47 122.872 829.454 126.52C831.438 130.168 832.43 134.488 832.43 139.48C832.43 144.472 831.438 148.824 829.454 152.536C827.47 156.184 824.686 159 821.102 160.984C817.518 162.968 813.294 163.96 808.43 163.96ZM808.43 154.84C812.014 154.84 814.894 153.56 817.07 151C819.246 148.376 820.334 144.536 820.334 139.48C820.334 134.36 819.246 130.552 817.07 128.056C814.894 125.496 812.014 124.216 808.43 124.216C804.846 124.216 801.966 125.496 799.79 128.056C797.614 130.552 796.526 134.36 796.526 139.48C796.526 144.536 797.614 148.376 799.79 151C801.966 153.56 804.846 154.84 808.43 154.84Z" fill="black"/>
<path d="M757.88 163.96C750.84 163.96 744.792 162.552 739.736 159.736C734.744 156.856 730.904 152.824 728.216 147.64C725.528 142.392 724.184 136.216 724.184 129.112C724.184 122.008 725.528 115.864 728.216 110.68C730.904 105.496 734.744 101.496 739.736 98.6799C744.792 95.7999 750.84 94.3599 757.88 94.3599C762.424 94.3599 766.712 95.0639 770.744 96.4719C774.84 97.8799 778.2 99.8959 780.824 102.52L776.792 112.312C773.912 109.88 770.968 108.12 767.96 107.032C764.952 105.88 761.72 105.304 758.264 105.304C751.416 105.304 746.2 107.384 742.616 111.544C739.032 115.64 737.24 121.496 737.24 129.112C737.24 136.728 739.032 142.616 742.616 146.776C746.2 150.936 751.416 153.016 758.264 153.016C761.72 153.016 764.952 152.472 767.96 151.384C770.968 150.232 773.912 148.44 776.792 146.008L780.824 155.8C778.2 158.36 774.84 160.376 770.744 161.848C766.712 163.256 762.424 163.96 757.88 163.96Z" fill="black"/>
<path d="M662.322 163.96C658.93 163.96 655.89 163.32 653.202 162.04C650.578 160.696 648.498 158.904 646.962 156.664C645.49 154.424 644.754 151.896 644.754 149.08C644.754 145.624 645.65 142.904 647.442 140.92C649.234 138.872 652.146 137.4 656.178 136.504C660.21 135.608 665.618 135.16 672.402 135.16H677.202V142.072H672.498C669.49 142.072 666.962 142.2 664.914 142.456C662.866 142.648 661.202 143 659.922 143.512C658.706 143.96 657.81 144.6 657.234 145.432C656.722 146.264 656.466 147.288 656.466 148.504C656.466 150.616 657.202 152.344 658.674 153.688C660.146 155.032 662.194 155.704 664.818 155.704C666.93 155.704 668.786 155.224 670.386 154.264C672.05 153.24 673.362 151.864 674.322 150.136C675.282 148.408 675.762 146.424 675.762 144.184V133.144C675.762 129.944 675.058 127.64 673.65 126.232C672.242 124.824 669.874 124.12 666.546 124.12C663.922 124.12 661.234 124.536 658.482 125.368C655.73 126.136 652.946 127.352 650.13 129.016L646.674 120.856C648.338 119.704 650.29 118.712 652.53 117.88C654.834 116.984 657.234 116.312 659.73 115.864C662.29 115.352 664.69 115.096 666.93 115.096C671.538 115.096 675.314 115.8 678.258 117.208C681.266 118.616 683.506 120.76 684.978 123.64C686.45 126.456 687.186 130.104 687.186 134.584V163H675.954V153.016H676.722C676.274 155.256 675.378 157.208 674.034 158.872C672.754 160.472 671.122 161.72 669.138 162.616C667.154 163.512 664.882 163.96 662.322 163.96Z" fill="#066839"/>
<path d="M621.629 105.976V94.2642H635.069V105.976H621.629ZM622.397 163V116.056H634.397V163H622.397Z" fill="#066839"/>
<path d="M592.706 163.96C590.082 163.96 587.522 163.736 585.026 163.288C582.594 162.84 580.354 162.232 578.306 161.464C576.258 160.632 574.466 159.608 572.93 158.392L576.002 150.52C577.602 151.544 579.33 152.44 581.186 153.208C583.042 153.976 584.962 154.552 586.946 154.936C588.93 155.32 590.882 155.512 592.802 155.512C595.874 155.512 598.146 155 599.618 153.976C601.154 152.888 601.922 151.48 601.922 149.752C601.922 148.28 601.41 147.16 600.386 146.392C599.426 145.56 597.954 144.952 595.97 144.568L586.37 142.744C582.402 141.976 579.362 140.536 577.25 138.424C575.202 136.248 574.178 133.464 574.178 130.072C574.178 127 575.01 124.344 576.674 122.104C578.402 119.864 580.77 118.136 583.778 116.92C586.786 115.704 590.242 115.096 594.146 115.096C596.386 115.096 598.562 115.32 600.674 115.768C602.786 116.152 604.77 116.76 606.626 117.592C608.546 118.36 610.21 119.384 611.618 120.664L608.354 128.536C607.138 127.512 605.73 126.648 604.13 125.944C602.53 125.176 600.866 124.6 599.138 124.216C597.474 123.768 595.842 123.544 594.242 123.544C591.106 123.544 588.77 124.088 587.234 125.176C585.762 126.264 585.026 127.704 585.026 129.496C585.026 130.84 585.474 131.96 586.37 132.856C587.266 133.752 588.642 134.36 590.498 134.68L600.098 136.504C604.258 137.272 607.394 138.68 609.506 140.728C611.682 142.776 612.77 145.528 612.77 148.984C612.77 152.12 611.938 154.808 610.274 157.048C608.61 159.288 606.274 161.016 603.266 162.232C600.258 163.384 596.738 163.96 592.706 163.96Z" fill="#066839"/>
<path d="M550.285 105.976V94.2642H563.725V105.976H550.285ZM551.053 163V116.056H563.053V163H551.053Z" fill="#066839"/>
<path d="M513.459 163V116.056H525.171V127.384H524.211C525.107 123.544 526.867 120.632 529.491 118.648C532.115 116.6 535.603 115.416 539.955 115.096L543.603 114.808L544.371 124.984L537.459 125.656C533.555 126.04 530.611 127.256 528.627 129.304C526.643 131.288 525.651 134.104 525.651 137.752V163H513.459Z" fill="#066839"/>
<path d="M488.223 105.976V94.2642H501.663V105.976H488.223ZM488.991 163V116.056H500.991V163H488.991Z" fill="#066839"/>
<path d="M426.393 163V95.3198H438.681V125.272H438.873L468.729 95.3198H483.705L447.993 130.648L448.089 125.08L485.337 163H470.169L438.873 131.704H438.681V163H426.393Z" fill="#066839"/>
<defs>
<linearGradient id="paint0_linear_285_100" x1="45.8026" y1="237.271" x2="111.809" y2="194.33" gradientUnits="userSpaceOnUse">
<stop stop-color="#C32122"/>
<stop offset="1" stop-color="#5D1010"/>
</linearGradient>
<linearGradient id="paint1_linear_285_100" x1="295.353" y1="84.9857" x2="227.574" y2="119.684" gradientUnits="userSpaceOnUse">
<stop stop-color="#C32122"/>
<stop offset="1" stop-color="#5D1010"/>
</linearGradient>
</defs>
</svg>
