<svg width="369" height="363" viewBox="0 0 369 363" fill="none" xmlns="http://www.w3.org/2000/svg">
<rect width="369" height="363" rx="181.5" fill="#29ABE6"/>
<path d="M270.784 50.7411C270.715 50.9478 269.82 51.3267 268.787 51.6023C267.754 51.8779 266.514 52.3947 266.032 52.8081C265.55 53.187 264.62 53.7382 263.966 54.0138C263.312 54.3239 262.313 54.9784 261.728 55.4952C259.661 57.3899 255.495 60.3526 254.531 60.5937C253.566 60.8349 253.566 60.8349 253.773 59.4914C254.634 54.2894 254.393 52.877 252.568 52.1191C251.707 51.7401 251.431 51.809 249.985 52.7736C249.09 53.3592 248.16 53.8416 247.953 53.8416C247.712 53.8416 246.61 54.8062 245.474 55.9775C244.338 57.1832 243.236 58.2856 243.029 58.4923C240.963 60.4215 236.624 66.2091 235.66 68.3105C234.799 70.2053 232.423 73.0646 232.044 72.6512C231.941 72.5479 232.147 71.7555 232.526 70.8598C233.972 67.5526 232.044 64.7622 229.117 65.8646C228.532 66.0713 228.015 66.8981 227.292 68.6895C226.706 70.0675 225.914 71.6177 225.501 72.1C224.64 73.168 221.713 81.8149 221.403 84.2953C221.197 85.88 220.405 88.5671 219.096 92.1844C218.821 92.9078 217.857 94.3203 216.892 95.2849C214.688 97.5586 212.312 100.969 212.312 101.796C212.312 102.175 211.899 103.139 211.417 104.001C210.591 105.413 209.489 108.169 208.352 111.58C208.111 112.372 207.595 113.371 207.25 113.819C206.493 114.818 202.498 118.814 201.121 119.985C200.535 120.468 199.468 121.57 198.71 122.397C197.918 123.258 196.61 124.567 195.783 125.325C194.922 126.083 192.65 128.357 190.756 130.389C188.827 132.387 186.761 134.317 186.107 134.627C184.557 135.454 180.459 135.143 178.049 134.11C175.501 132.973 172.401 130.906 172.16 130.217C172.057 129.873 171.644 129.425 171.231 129.218C169.164 128.253 163.069 119.228 163.069 117.195C163.069 116.885 162.553 115.473 161.898 114.06C161.003 112.096 160.418 111.27 159.488 110.718C157.663 109.582 156.699 108.238 156.217 106.102C155.734 103.932 155.631 103.794 153.255 102.933C152.325 102.588 151.155 102.037 150.672 101.727C150.19 101.417 149.123 101.038 148.296 100.935C147.367 100.831 146.092 100.28 144.991 99.4877C143.062 98.1786 141.34 97.6964 139.825 98.0753C138.964 98.282 138.895 98.4198 139.068 99.5911C139.825 104.896 140.307 109.03 140.342 110.374C140.342 111.339 140.755 112.958 141.409 114.508C141.995 115.92 142.614 117.608 142.821 118.263C142.993 118.918 143.441 119.779 143.751 120.158C144.577 121.122 146.747 124.774 147.677 126.772C148.09 127.668 148.744 128.874 149.157 129.459C149.536 130.01 150.087 131.113 150.397 131.871C150.707 132.629 151.327 134.179 151.809 135.316C153.152 138.588 153.496 139.932 153.358 141.276C153.255 141.965 153.393 143.308 153.668 144.273C154.185 146.271 154.254 149.922 153.806 151.059C153.634 151.507 153.152 152.747 152.739 153.85C151.74 156.434 151.223 156.709 144.302 158.225C142.787 158.569 141.099 159.017 140.514 159.19C139.963 159.396 138.551 159.706 137.449 159.913C136.313 160.12 134.419 160.74 133.179 161.325C131.974 161.877 130.596 162.359 130.114 162.359C129.632 162.359 128.083 162.841 126.636 163.427C124.226 164.391 123.744 164.495 121.23 164.323C119.508 164.219 117.89 163.875 116.891 163.427C113.379 161.842 103.909 161.842 98.7089 163.427C95.8507 164.288 94.4389 164.254 91.2019 163.255C89.7212 162.772 87.3451 162.29 85.9333 162.152C84.5214 162.049 82.6963 161.704 81.8698 161.429C78.564 160.326 70.5749 161.773 68.9564 163.771C68.4055 164.495 68.4055 164.564 69.0942 165.666C69.9551 167.079 70.0239 167.044 65.444 167.32C62.3792 167.492 60.2442 167.94 56.4218 169.214C55.802 169.421 54.8722 169.731 54.3557 169.869C52.875 170.317 48.054 174.072 48.054 174.761C48.054 175.829 50.2578 177.414 52.3584 177.896C53.4259 178.137 54.3557 178.447 54.4246 178.585C54.6656 178.964 52.565 180.617 51.8763 180.617C50.981 180.617 47.2964 182.65 46.7454 183.442C46.4699 183.787 45.4368 184.579 44.4038 185.13C43.3707 185.716 42.2687 186.577 41.89 186.991C41.5456 187.439 40.6503 188.059 39.9271 188.403C39.204 188.713 38.3431 189.092 38.0676 189.23C37.4477 189.54 37.1723 191.228 37.6888 191.745C38.1365 192.193 42.8197 193.708 43.8184 193.708C44.7481 193.708 46.3666 194.432 46.2633 194.776C46.0911 195.19 41.3045 198.635 39.5828 199.565C38.3775 200.254 37.9643 200.323 37.7577 199.978C37.1378 198.979 38.0676 205.766 39.1351 210.072L39.5483 211.795L39.8582 210.658C40.1337 209.659 40.2715 209.555 41.4767 209.555C42.2687 209.555 43.1296 209.28 43.6806 208.866C44.1627 208.487 45.0236 208.177 45.5746 208.177C46.1256 208.177 46.7798 207.936 47.0209 207.661C47.2275 207.385 47.7785 207.075 48.1573 206.937C48.5705 206.799 49.5003 206.179 50.189 205.559C51.3253 204.526 53.667 203.699 54.1146 204.147C54.2179 204.216 54.1835 204.698 54.0458 205.215C53.908 205.8 52.7372 207.006 50.7055 208.591C47.3997 211.243 43.5773 214.895 43.5773 215.377C43.5773 215.55 43.0263 215.998 42.3721 216.411C41.3734 216.997 41.1668 217.307 41.1668 218.306C41.1668 220.2 42.5442 224.093 43.1296 223.887C43.4051 223.783 44.1627 223.921 44.817 224.197C45.9189 224.644 46.16 224.61 48.2261 223.852C49.4658 223.37 50.8088 222.991 51.222 222.991C51.8763 222.991 51.9108 223.129 51.7386 224.61C51.6008 225.919 51.3253 226.47 50.3267 227.366C49.1559 228.468 47.0209 231.948 47.0209 232.775C47.0209 233.016 47.5719 233.705 48.1917 234.325C49.3625 235.462 49.5003 235.496 52.1174 235.496C53.6325 235.496 55.01 235.393 55.251 235.255C55.9742 234.807 55.6298 233.705 54.5967 233.154C53.2537 232.465 53.2882 231.845 54.7345 231.087L55.9053 230.432L58.2125 231.982L60.5197 233.498L60.3131 235.152C60.1753 236.082 59.6932 237.667 59.2111 238.7C58.729 239.768 58.3847 240.87 58.4535 241.18C58.5224 241.49 59.1423 242.042 59.8654 242.421C61.415 243.144 62.0349 242.972 64.0321 241.249L65.2718 240.147L66.1671 241.077L67.028 242.007L68.2333 240.595C70.6094 237.839 71.5047 239.251 70.1273 243.592C69.5074 245.624 69.5074 245.728 70.1273 246.692C70.4372 247.278 71.057 247.829 71.4358 247.967C72.6411 248.346 76.6012 247.45 77.6687 246.52L78.6673 245.693L79.2527 246.589C79.5971 247.106 79.7348 247.829 79.6315 248.415C79.3905 249.621 80.148 251.378 81.1811 252.067C81.6632 252.377 82.9373 252.618 84.3492 252.652C86.8974 252.721 86.6908 252.825 88.3782 250.482C89.1013 249.517 90.0311 249.862 91.1675 251.584C91.6151 252.239 92.4072 252.928 92.9237 253.1C94.2667 253.582 98.2612 252.721 99.4665 251.722C100.017 251.274 100.809 250.895 101.223 250.895C102.049 250.895 103.151 251.86 103.151 252.549C103.151 253.582 104.081 254.685 105.562 255.512C107.49 256.545 107.903 256.58 110.21 255.787C112.414 255.029 112.793 254.754 112.587 254.203C112.345 253.548 113.344 252.859 114.274 253.1C114.687 253.203 115.445 253.927 115.892 254.685C117.924 258.026 118.475 258.302 121.746 257.716C124.605 257.165 125.534 256.752 126.051 255.718C126.602 254.616 127.187 254.34 128.806 254.34C130.045 254.34 130.906 254.995 131.423 256.304C131.595 256.752 132.456 257.579 133.351 258.164C134.729 259.026 135.28 259.198 136.554 259.06C138.172 258.922 140.411 257.648 141.306 256.373C141.891 255.512 142.546 255.615 146.161 257.303C148.882 258.543 149.743 258.681 151.774 258.13C152.67 257.854 153.255 257.406 153.806 256.476C155.356 253.892 156.389 253.72 158.283 255.753L159.591 257.165L161.83 257.027C163.655 256.924 164.343 256.683 165.549 255.822C166.375 255.236 167.27 254.237 167.615 253.582C167.925 252.962 168.545 252.204 169.027 251.963C169.784 251.55 170.129 251.584 171.334 252.067C173.675 252.997 175.191 252.79 176.947 251.309C177.808 250.62 178.772 249.414 179.116 248.656C179.667 247.485 179.977 247.244 181.148 247.037C181.906 246.934 183.696 246.451 185.108 246.003C187.346 245.28 187.794 245.004 188.414 243.902C188.793 243.179 189.481 242.283 189.895 241.904C190.308 241.525 190.721 240.733 190.859 240.181C191.1 238.907 191.72 238.424 192.925 238.562L193.889 238.666L194.165 242.111C194.337 244.488 194.647 246.003 195.163 247.071C195.887 248.553 195.887 248.725 195.473 255.064C195.267 258.612 194.922 262.402 194.75 263.538C194.578 264.641 194.268 267.776 194.061 270.497C193.855 273.253 193.476 276.423 193.235 277.56C192.959 278.731 192.65 280.832 192.512 282.245C192.374 283.657 191.995 287.826 191.616 291.443C190.274 304.844 191.1 311.252 194.647 315.592C196.885 318.348 200.673 319.313 202.326 317.556C203.772 316.04 204.737 316.488 205.391 318.968C205.597 319.761 206.011 320.519 206.286 320.622C206.562 320.725 206.803 321.07 206.803 321.38C206.803 322.965 212.553 326.685 215.79 327.168C217.133 327.374 217.512 327.271 218.545 326.513C220.095 325.376 221.748 324.618 222.712 324.618C223.504 324.618 226.948 325.652 229.117 326.547C230.391 327.099 232.492 327.202 232.767 326.72C232.87 326.582 233.559 326.341 234.282 326.237C235.109 326.1 235.97 325.617 236.59 324.928C238.346 323.102 239.31 322.792 242.478 322.999C245.061 323.137 245.646 323.068 248.573 322.034C250.329 321.414 252.223 320.691 252.809 320.381C254.462 319.52 256.666 317.246 256.907 316.178C257.354 314.145 257.492 313.939 258.146 313.939C258.491 313.939 259.317 314.421 259.903 315.007C261.211 316.247 261.487 316.212 265.619 314.283C268.064 313.112 273.091 310.115 273.608 309.46C273.711 309.322 275.33 308.323 277.224 307.187C281.631 304.534 285.213 302.054 286.935 300.469C288.691 298.884 290.137 296.955 290.137 296.266C290.137 295.646 291.136 294.991 292.1 294.991C292.961 294.957 298.161 289.927 298.849 288.377C299.159 287.688 299.435 286.654 299.435 286.034C299.435 284.277 300.365 282.658 301.535 282.417C302.913 282.107 305.323 280.729 306.184 279.764C307.906 277.835 308.388 276.457 308.388 273.426C308.388 271.186 308.216 270.187 307.699 269.154C306.77 267.328 306.838 266.811 308.078 266.122C310.11 264.985 313.106 261.816 313.519 260.369C314.345 257.441 314.345 255.305 313.588 252.687C312.899 250.413 312.589 249.931 310.42 247.829C309.111 246.52 308.044 245.246 308.044 244.97C308.044 244.66 308.457 244.178 308.939 243.833C310.248 242.972 310.799 241.284 310.833 237.839C310.902 234.359 310.282 232.671 307.94 230.019C306.838 228.744 306.253 228.434 303.636 227.676C301.983 227.159 298.712 226.16 296.336 225.402C293.959 224.644 291.17 223.852 290.137 223.645C289.104 223.439 286.935 222.922 285.316 222.474C283.698 222.061 281.39 221.51 280.151 221.268C278.911 221.062 276.845 220.545 275.502 220.166C272.472 219.27 267.203 218.03 262.83 217.134C260.936 216.755 258.456 216.066 257.32 215.584C256.149 215.102 254.737 214.62 254.186 214.551C253.635 214.447 252.637 214.206 251.948 213.999C250.502 213.517 245.405 210.933 245.164 210.554C245.095 210.382 245.681 210.107 246.473 209.9C248.883 209.245 250.433 208.04 251.397 205.973C252.568 203.492 253.015 203.148 254.496 203.596C256.183 204.147 258.284 203.01 259.558 200.943L260.522 199.393L260.109 196.154C259.73 193.157 259.765 192.882 260.35 192.468C261.521 191.607 262.175 191.917 263.139 193.708C263.656 194.639 264.207 195.431 264.379 195.431C265.068 195.431 266.962 194.397 267.823 193.571C268.511 192.882 268.787 192.227 268.959 190.711C269.062 189.609 269.303 188.438 269.476 188.127C269.682 187.783 269.82 187.301 269.82 187.025C269.82 186.302 270.474 185.957 270.956 186.439C271.163 186.646 271.542 186.818 271.817 186.818C272.437 186.818 275.02 184.614 275.571 183.615C276.156 182.581 276.122 180.204 275.502 179.377C275.226 179.033 274.985 178.619 274.985 178.482C274.985 178.068 276.948 177.172 277.809 177.172C278.257 177.172 279.187 176.759 279.91 176.277C281.563 175.174 282.561 172.97 282.561 170.489C282.561 169.008 282.423 168.525 281.7 167.871C281.218 167.423 280.839 166.7 280.839 166.252C280.839 165.218 282.63 164.081 284.317 164.081C285.006 164.081 285.936 163.806 286.384 163.427C286.831 163.082 287.554 162.703 287.933 162.566C289.242 162.152 289.862 161.119 290.034 159.017C290.206 156.95 289.724 155.469 288.037 152.816C287.658 152.196 287.417 151.576 287.52 151.404C287.623 151.232 288.484 150.99 289.448 150.853C292.031 150.508 292.72 150.06 294.132 147.924C295.096 146.477 295.475 145.547 295.578 144.169C295.716 142.412 295.681 142.344 294.132 140.793C293.271 139.898 292.548 138.933 292.548 138.623C292.548 138.072 294.373 137.245 296.749 136.728C297.403 136.59 298.057 135.936 298.953 134.558C300.089 132.801 300.192 132.422 300.02 130.941C299.745 128.77 299.917 128.426 301.673 127.22C302.844 126.428 303.257 125.808 303.877 124.119C304.807 121.605 304.669 120.778 303.051 119.159C302.396 118.47 301.845 117.781 301.845 117.608C301.845 117.436 302.5 116.851 303.292 116.299C304.084 115.783 305.22 114.611 305.84 113.716C306.77 112.338 306.907 111.924 306.666 110.96C306.115 108.651 305.702 108.272 303.051 107.756C301.535 107.446 300.468 106.86 300.468 106.343C300.468 106.068 301.053 105.585 301.776 105.206C303.601 104.276 306.287 101.796 306.529 100.831C306.632 100.383 307.011 99.4533 307.355 98.7988C307.699 98.1098 307.906 97.283 307.803 96.9385C307.493 95.6983 305.805 94.2513 304.393 94.0102C302.913 93.769 300.468 92.77 300.468 92.46C300.468 92.3222 301.225 91.4954 302.19 90.5997C303.119 89.704 303.98 88.5671 304.084 88.0504C304.221 87.4992 304.531 86.4657 304.807 85.7078C305.702 83.124 305.495 82.0216 303.739 80.4025C302.913 79.6446 302.086 78.99 301.949 78.99C301.776 78.99 300.502 79.3001 299.09 79.6446C296.439 80.2647 295.302 80.2302 295.302 79.5412C295.302 79.1623 295.544 78.7833 297.403 76.0273C298.608 74.2704 298.953 71.5144 298.126 70.5153C296.887 69.034 294.201 67.2426 293.787 67.6215C293.546 67.7938 292.272 68.1038 290.964 68.2761C289.655 68.4828 287.589 69.034 286.384 69.5163C284.18 70.3775 282.561 70.6187 282.561 70.1019C282.561 69.5852 283.112 69.0684 284.18 68.5172C284.765 68.2072 285.488 67.6904 285.729 67.3459C285.97 66.967 286.521 66.5192 286.969 66.278C287.417 66.0369 287.899 65.5201 288.037 65.1067C288.794 63.0741 288.794 62.9363 287.486 61.455C286.211 59.9392 282.974 57.6311 282.148 57.6311C281.873 57.6311 280.082 58.3201 278.153 59.1813C276.225 60.0426 274.193 60.7316 273.608 60.7316C272.678 60.7316 272.609 60.6627 272.919 59.9392C273.47 58.5612 274.262 55.4263 274.4 53.9449C274.572 52.4291 274.331 52.1191 271.921 50.8444C270.956 50.2932 270.956 50.2932 270.784 50.7411ZM272.231 61.0416C272.231 61.4206 269.82 63.4875 269.407 63.4875C268.684 63.4875 269.269 62.4541 270.405 61.6617C271.783 60.6627 272.231 60.5249 272.231 61.0416ZM62.2759 230.708C62.517 231.328 61.2773 232.981 60.623 232.981C59.7621 232.981 59.6932 232.292 60.4508 231.259C61.2428 230.156 62.0004 229.915 62.2759 230.708Z" fill="black"/>
<path d="M51.7383 113.923C51.6006 114.267 51.5661 114.646 51.6694 114.749C51.9794 115.059 52.2548 114.543 52.1171 113.888C52.0138 113.303 51.9794 113.303 51.7383 113.923Z" fill="black"/>
<path d="M39.2027 149.82C39.0994 150.095 39.1683 150.509 39.4094 150.75C39.6848 151.025 39.7881 150.888 39.7881 150.199C39.7881 149.165 39.5471 148.993 39.2027 149.82Z" fill="black"/>
<path d="M71.7676 164.418C67.6248 164.569 66.3302 164.754 67.7543 164.989C68.612 165.123 69.2269 165.677 69.146 166.248C69.0812 166.684 68.9518 166.701 65.3754 166.802C64.1294 166.835 62.7862 166.953 62.3817 167.054C61.9771 167.154 61.1356 167.322 60.5045 167.423C59.8734 167.524 59.1128 167.759 58.8215 167.96C58.4978 168.162 57.8505 168.33 57.2841 168.397C56.7501 168.43 56.1352 168.598 55.9086 168.766C55.3099 169.186 54.6464 169.404 53.6269 169.522C52.8016 169.622 51.8792 170.092 51.5555 170.579C51.507 170.663 51.1024 170.982 50.6816 171.301C50.2447 171.62 49.6298 172.073 49.3061 172.342C48.9825 172.594 48.2219 173.131 47.6231 173.534L46.5551 174.273L46.7493 174.877C46.9758 175.565 48.3837 177.026 49.2414 177.479C49.5651 177.647 50.7464 177.983 51.8306 178.218C52.931 178.453 53.8696 178.688 53.9182 178.722C54.0153 178.839 53.6592 179.511 53.4974 179.511C53.4327 179.511 53.0443 179.779 52.6559 180.098C52.1543 180.501 51.507 180.787 50.4875 181.072C49.6783 181.307 48.7721 181.643 48.4646 181.828C48.1572 182.029 47.5746 182.365 47.17 182.6C46.3771 183.036 45.924 183.506 45.4709 184.329C45.2605 184.715 44.9854 184.9 44.4999 185.034C44.1439 185.135 43.5937 185.404 43.2862 185.639C42.9787 185.874 42.2505 186.394 41.668 186.78C41.0854 187.183 40.519 187.704 40.4057 187.939C40.2924 188.19 39.985 188.577 39.7099 188.812C39.2567 189.214 37.8812 189.752 37.2987 189.752C36.8941 189.752 36.3277 190.39 36.3277 190.843C36.3277 191.061 36.2306 191.263 36.1335 191.313C35.9555 191.38 35.9555 191.431 36.1335 191.615C36.2306 191.733 36.3277 192.001 36.3277 192.186C36.3277 192.706 36.9265 193.21 38.0269 193.596C38.5609 193.781 39.3215 194.083 39.726 194.268C40.1306 194.436 41.1663 194.688 42.024 194.788C42.8978 194.889 43.8364 195.057 44.1277 195.141C44.419 195.225 44.8883 195.292 45.1796 195.292C45.4547 195.292 45.7298 195.359 45.7783 195.443C45.9402 195.712 44.8883 196.652 43.9497 197.088C43.3671 197.357 42.9302 197.676 42.7198 198.028C42.4933 198.398 41.9431 198.801 40.9721 199.321C40.1953 199.741 39.3377 200.328 39.0626 200.614C38.8036 200.916 38.48 201.168 38.3667 201.168C38.2534 201.168 37.9945 201.353 37.7841 201.588C37.3472 202.074 36.8941 202.125 36.6675 201.705C36.5219 201.436 36.5057 201.436 36.3924 201.722C36.3439 201.89 36.3277 202.796 36.3762 203.736C36.4733 205.331 36.5381 205.835 36.975 208.253C37.3472 210.385 37.4119 210.687 37.5414 210.905C37.6223 211.039 37.7194 211.409 37.7841 211.745C37.8489 212.181 37.9621 212.349 38.2372 212.383C38.4314 212.416 38.5933 212.366 38.5933 212.299C38.5933 212.215 38.7389 211.98 38.9331 211.761C39.2406 211.409 39.37 211.392 40.4381 211.493L41.587 211.593L42.7036 210.821C43.7393 210.116 43.9011 210.066 44.5323 210.166C45.1634 210.267 45.2767 210.217 45.9563 209.596C46.4418 209.142 46.9758 208.857 47.5099 208.723C48.141 208.555 48.3999 208.387 48.6265 208.018C49.031 207.312 50.3742 206.204 50.7949 206.204C50.9891 206.204 51.2157 206.137 51.2966 206.053C51.3937 205.969 51.7982 205.869 52.2352 205.818C52.8663 205.751 53.0443 205.801 53.2223 206.07C53.4812 206.439 53.3841 207.027 53.0605 207.161C52.931 207.212 52.8339 207.396 52.8339 207.581C52.8339 208.118 52.5426 208.504 51.863 208.907C51.507 209.126 51.2157 209.361 51.2157 209.428C51.2157 209.512 51.0053 209.663 50.7464 209.747C50.5036 209.847 50.2124 210.099 50.1153 210.318C50.0182 210.536 49.6945 210.855 49.4032 211.006C48.7721 211.342 47.4128 212.534 45.746 214.212C45.0825 214.884 44.4837 215.438 44.4028 215.438C44.1924 215.438 43.3024 216.445 42.7036 217.369C42.024 218.443 41.1339 219.299 40.697 219.299C40.5028 219.299 40.3733 219.417 40.3733 219.585C40.3733 220.055 41.2148 222.372 42.202 224.672C42.2667 224.806 42.4447 225.125 42.6065 225.36C43.9659 227.543 43.9497 227.526 45.0663 227.526C45.6812 227.526 47.0082 226.972 47.0082 226.72C47.0082 226.636 47.17 226.518 47.3804 226.468C47.5746 226.418 48.2057 226.25 48.7883 226.099C49.3709 225.948 50.0182 225.864 50.2285 225.897C50.5036 225.948 50.6331 225.88 50.6816 225.662C50.7302 225.478 50.8758 225.343 51.0053 225.343C51.1995 225.343 51.2319 225.461 51.1348 225.813C51.07 226.065 51.0053 226.72 50.9729 227.291C50.9406 228.029 50.8111 228.499 50.5198 228.97C50.0991 229.675 48.1733 231.723 47.9468 231.723C47.8821 231.723 47.8173 231.824 47.8173 231.958C47.8173 232.075 47.6555 232.394 47.4775 232.646L47.1215 233.1L47.5746 233.956C48.319 235.4 49.4356 236.927 50.7626 238.338C51.7659 239.395 52.0572 239.613 52.2514 239.462C52.3646 239.362 52.5912 239.311 52.7368 239.378C52.8825 239.429 53.109 239.395 53.2385 239.278C53.368 239.177 53.546 239.127 53.6431 239.194C53.7402 239.261 53.8049 239.127 53.8049 238.858C53.8049 238.489 53.8534 238.438 54.1771 238.522C54.4684 238.606 54.6302 238.522 54.8244 238.203C55.1966 237.632 55.1642 237.481 54.6787 237.364C54.3065 237.263 54.258 237.179 54.3551 236.726C54.4522 236.239 54.436 236.222 54.1771 236.44C53.7563 236.793 53.0767 236.827 52.7045 236.491C52.4294 236.256 52.4132 236.155 52.5588 235.87C52.7045 235.618 52.7045 235.517 52.5588 235.467C52.2352 235.349 52.3161 235.081 52.6721 235.081C53.1252 235.081 53.902 234.644 54.0153 234.325C54.1771 233.905 55.3422 233.989 55.8763 234.476C56.3456 234.929 58.1256 235.92 58.4655 235.92C58.5626 235.92 58.6597 235.836 58.6597 235.735C58.6597 235.635 58.7729 235.601 58.9186 235.651C59.2422 235.786 59.9543 234.98 59.9543 234.493C59.9543 233.922 60.5854 233.418 61.2165 233.519C61.6858 233.603 61.7344 233.67 61.7344 234.174C61.7344 235.164 60.4721 236.827 59.841 236.709C59.5173 236.642 59.4688 236.709 59.4688 237.112C59.4688 237.397 59.5497 237.599 59.6792 237.599C59.8248 237.599 59.8086 237.649 59.6468 237.75C59.5012 237.851 59.4688 238.052 59.5173 238.321C59.5821 238.539 59.5173 239.076 59.3717 239.496C59.2261 239.932 59.1451 240.369 59.1937 240.486C59.2261 240.604 59.048 241.108 58.7891 241.594C58.5464 242.081 58.336 242.585 58.336 242.719C58.336 242.87 58.1904 243.105 58.0124 243.257C57.7858 243.458 57.6887 243.76 57.6887 244.247C57.6887 244.65 57.6078 244.986 57.4945 245.019C57.3327 245.086 57.6725 245.59 58.514 246.497C58.6758 246.681 59.1775 246.832 59.841 246.9C60.7796 247.017 60.9738 246.984 61.7182 246.564C62.2198 246.295 62.8024 245.792 63.1261 245.338C63.4497 244.919 63.9028 244.432 64.1617 244.264L64.6149 243.962L65.1165 244.6C65.3916 244.952 65.602 245.305 65.602 245.405C65.5534 245.792 65.6344 245.959 65.8609 246.06C66.2331 246.195 66.5406 246.01 66.8804 245.439C67.4468 244.432 68.6929 243.173 69.2916 242.954C69.8256 242.77 69.8904 242.786 70.1655 243.156C70.57 243.71 70.5539 244.365 70.0684 245.892C69.8418 246.597 69.6638 247.353 69.6638 247.571C69.6638 247.789 69.5182 248.293 69.3402 248.696C69.1622 249.099 69.0165 249.636 69.0165 249.871C69.0165 250.291 69.7609 251.634 70.2302 252.037C71.0232 252.708 75.8779 252.121 76.8003 251.214C77.0107 251.03 77.2535 250.862 77.3505 250.862C77.4476 250.862 77.6904 250.677 77.8846 250.442C78.0788 250.207 78.3053 250.022 78.4024 250.022C78.4833 250.022 78.7261 250.358 78.9041 250.778C79.1954 251.433 79.2439 251.751 79.163 252.843C79.0659 254.572 79.4867 255.562 80.7327 256.536L81.6066 257.225L83.2248 257.208C84.0987 257.208 85.0858 257.292 85.3933 257.392C85.9435 257.577 86.785 257.56 87.1086 257.342C87.2057 257.292 87.3352 256.989 87.3838 256.687C87.6265 255.579 88.1282 254.723 88.7107 254.471C89.2447 254.236 89.3095 254.253 89.8111 254.639C90.329 255.059 91.1867 256.251 91.1867 256.553C91.1867 256.704 91.397 256.889 92.6269 257.862C93.2257 258.349 94.0833 258.349 95.7016 257.913C96.3651 257.728 97.1095 257.577 97.3522 257.577C97.595 257.577 97.8377 257.51 97.9024 257.426C97.951 257.342 98.2099 257.225 98.4688 257.157C98.7763 257.09 99.0514 256.872 99.197 256.57C99.4236 256.1 99.7634 255.865 100.281 255.814C100.443 255.798 100.67 255.697 100.783 255.579C101.139 255.294 102.434 255.546 102.838 255.982C103.048 256.217 103.21 256.671 103.275 257.258C103.405 258.584 104.036 259.541 104.893 259.793C105.282 259.911 105.622 260.112 105.67 260.263C105.719 260.398 106.042 260.666 106.398 260.834C106.932 261.103 107.272 261.136 108.453 261.052C109.311 261.002 110.217 260.817 110.735 260.616C111.205 260.414 111.836 260.263 112.143 260.263C112.839 260.263 112.936 260.079 112.952 258.836V257.829L114.053 257.779C115.04 257.728 115.153 257.762 115.105 258.03C115.072 258.282 115.153 258.316 115.574 258.282C116.075 258.232 116.092 258.249 116.286 259.155C116.415 259.81 116.658 260.28 117.095 260.8C117.451 261.187 117.726 261.59 117.726 261.707C117.726 261.808 118.114 262.144 118.584 262.446C119.539 263.084 120.202 263.134 121.658 262.714C122.112 262.58 122.985 262.429 123.568 262.379C124.151 262.328 124.846 262.211 125.105 262.11C125.575 261.925 126.675 260.834 126.707 260.515C126.788 259.793 127.775 259.172 129.151 258.987C129.766 258.903 130.106 258.954 130.51 259.172C130.802 259.323 131.174 259.424 131.336 259.373C131.611 259.289 131.789 259.558 131.902 260.213C132.015 260.834 132.566 262.076 132.873 262.362C133.051 262.546 133.828 263.017 134.572 263.403C136.32 264.309 137.712 264.494 138.683 263.973C139.039 263.789 139.508 263.571 139.734 263.47C139.961 263.386 140.527 263 141.013 262.63C141.498 262.244 141.935 261.942 142 261.942C142.049 261.942 142.227 261.657 142.405 261.321C142.825 260.515 143.084 260.263 143.473 260.263C143.683 260.263 143.78 260.364 143.748 260.549C143.715 260.75 143.796 260.834 143.958 260.8C144.104 260.784 144.314 260.884 144.427 261.019C144.541 261.153 144.767 261.271 144.929 261.271C145.091 261.271 146.127 261.741 147.227 262.328C148.327 262.916 149.315 263.403 149.444 263.419C149.573 263.419 150.075 263.487 150.544 263.554C151.176 263.638 151.661 263.587 152.405 263.352C153.619 262.983 154.768 262.328 154.914 261.959C154.962 261.808 155.302 261.136 155.658 260.465C156.095 259.642 156.402 259.256 156.597 259.256C156.775 259.256 157.115 259.138 157.39 259.004C157.665 258.853 157.956 258.803 158.085 258.87C158.409 259.071 159.073 259.927 159.364 260.549C159.51 260.834 159.849 261.187 160.124 261.338C160.383 261.489 160.853 261.741 161.144 261.892C161.549 262.11 162.002 262.177 163.183 262.127C164.704 262.093 164.882 262.043 166.436 261.203C167.245 260.767 169.09 258.819 169.268 258.215C169.446 257.644 170.465 256.402 170.918 256.217C171.21 256.1 171.404 256.133 171.663 256.318C171.857 256.452 172.116 256.57 172.261 256.57C172.391 256.57 172.731 256.687 172.99 256.838C173.313 257.023 174.074 257.141 175.304 257.208L177.132 257.292L177.893 256.738C178.314 256.435 179.107 255.697 179.657 255.109C180.207 254.538 180.741 254.052 180.838 254.052C180.935 254.052 181 252.86 181 250.56L180.984 247.084L178.443 245.808C174.203 243.659 167.714 240.419 164.494 238.824C162.309 237.75 159.429 236.306 156.483 234.829C155.334 234.241 153.619 233.385 152.68 232.932C141.773 227.576 142.502 228.013 139.055 224.806C137.404 223.245 135.673 221.667 135.219 221.264C134.184 220.357 129.458 215.958 128.277 214.8C127.452 213.994 124.846 212.164 115.493 205.751C113.422 204.324 112.596 203.653 112.305 203.166C112.078 202.813 111.9 202.494 111.9 202.444C111.9 202.41 111.35 201.369 110.67 200.144C109.991 198.901 109.182 197.407 108.858 196.803C108.551 196.198 108.162 195.477 108 195.208C107.741 194.755 107.466 194.251 105.994 191.515C105.751 191.044 104.748 189.315 103.777 187.653C102.806 185.991 101.916 184.48 101.819 184.295C101.705 184.111 101.22 183.288 100.718 182.449C100.233 181.626 98.7763 179.141 97.4817 176.942C96.2033 174.743 95.0381 172.779 94.9087 172.544C94.6983 172.191 91.5589 166.903 91.1057 166.114C91.0086 165.962 90.7497 165.526 90.507 165.14L90.0862 164.452L87.5132 164.351C84.2767 164.2 76.9136 164.25 71.7676 164.418ZM52.0572 224.537C51.9115 224.688 51.863 224.655 51.863 224.336C51.863 224.017 51.9115 223.983 52.0572 224.134C52.2028 224.286 52.2028 224.386 52.0572 224.537Z" fill="url(#paint0_linear_290_237)"/>
<path d="M229.542 64.5535C231.617 61.0691 236.506 63.79 236.03 65.1181C235.737 65.9146 235.905 66.6935 236.415 66.8833C236.806 67.0259 236.881 66.9225 238.648 63.901C239.262 62.8476 239.992 61.749 240.266 61.4478C240.539 61.1465 241.074 60.501 241.455 60.0055C241.835 59.51 242.387 58.9644 242.691 58.806C243.01 58.6199 243.453 58.1409 243.775 57.6857C244.055 57.2429 244.483 56.7917 244.728 56.6736C245.357 56.3507 245.85 55.8807 246.427 55.0597C246.899 54.3976 247.721 53.8199 248.276 53.7634C248.368 53.7598 248.822 53.5577 249.284 53.3416C249.753 53.1117 250.417 52.7901 250.792 52.6345C251.152 52.4712 251.954 52.0628 252.569 51.7322L253.682 51.1516L254.09 51.5925C254.552 52.0993 255.096 53.9698 255.067 54.9112C255.053 55.265 254.775 56.4306 254.458 57.4672C254.134 58.5176 253.887 59.4293 253.892 59.4862C253.943 59.6228 254.665 59.6224 254.742 59.4836C254.772 59.4281 255.177 59.2169 255.623 59.0286C256.193 58.7813 256.733 58.3557 257.449 57.6109C258.024 57.0237 258.728 56.3989 259.026 56.219C259.337 56.0468 259.889 55.6996 260.273 55.4593C261.007 54.9774 261.609 54.8022 262.502 54.7871C262.92 54.782 263.202 54.6298 263.542 54.2745C263.793 54.0148 264.274 53.6649 264.613 53.5079C264.952 53.3509 265.724 52.9627 266.318 52.6383C266.925 52.3216 267.622 52.0721 267.869 52.0817C268.131 52.0988 268.595 52.0104 268.918 51.8812C269.465 51.6755 270.556 50.7397 270.83 50.2401C271.021 49.8931 271.815 49.6969 272.189 49.9027C272.37 50.0018 272.582 50.01 272.669 49.9496C272.808 49.8274 272.85 49.8503 272.919 50.0868C272.97 50.2234 273.146 50.4286 273.299 50.5125C273.729 50.7487 273.863 51.4909 273.664 52.61C273.565 53.1518 273.457 53.9413 273.419 54.3721C273.367 54.7953 273.088 55.7979 272.767 56.5792C272.439 57.3744 272.136 58.2556 272.068 58.5435C272 58.8314 271.835 59.2644 271.698 59.5142C271.568 59.7502 271.494 60.0166 271.541 60.0963C271.686 60.3571 272.958 59.8818 273.761 59.2749C274.257 58.8973 274.727 58.6673 275.117 58.647C275.529 58.6203 276.121 58.3314 277.008 57.7349C277.72 57.2593 278.61 56.7905 278.975 56.6841C279.347 56.5992 279.707 56.436 279.761 56.3388C279.814 56.2417 280.088 56.1034 280.382 56.0297C280.99 55.876 281.245 55.5103 281.004 55.1254C280.851 54.8786 280.859 54.8647 281.148 54.8971C281.309 54.9317 282.066 55.3294 282.82 55.7978C284.092 56.6052 284.478 56.8893 286.27 58.3616C287.856 59.6487 288.076 59.8414 288.195 60.0516C288.268 60.1819 288.527 60.4329 288.774 60.6408C289.104 60.8945 289.19 61.0679 289.088 61.3191C289.024 61.5009 288.907 61.6168 288.851 61.5863C288.782 61.5482 288.519 61.5664 288.247 61.6338C287.811 61.7375 287.736 61.8409 287.317 62.8026L286.859 63.8338L285.695 64.4408C284.625 65.0089 284.507 65.1249 284.293 65.7119C284.079 66.2989 283.984 66.3732 283.151 66.6741C282.548 66.8847 282.061 67.2131 281.698 67.6101C281.262 68.0752 281.002 68.221 280.59 68.2476C279.817 68.2745 278.269 68.9234 278.071 69.2843C277.979 69.4508 277.817 69.6146 277.71 69.6459C277.595 69.6911 277.321 69.9923 277.074 70.3442C276.721 70.855 276.679 71.0305 276.817 71.3051C277 71.6949 277.531 71.8783 277.795 71.6617C277.897 71.5736 278.096 71.5741 278.248 71.658C278.692 71.9019 279.148 71.8274 279.801 71.4274C280.149 71.2211 280.481 71.078 280.536 71.1085C280.605 71.1466 280.829 71.0348 281.021 70.8508C281.218 70.6884 281.563 70.5529 281.789 70.5687C282.015 70.5845 282.431 70.4517 282.693 70.2705C283.268 69.8816 284.893 69.257 287.065 68.5896C287.932 68.3254 288.672 68.0634 288.71 67.994C288.809 67.8136 290.06 67.5076 291.105 67.4133C292.313 67.3181 293.44 66.9435 293.645 66.5688C293.737 66.4022 293.895 66.3446 294.034 66.4208C294.422 66.6342 295.94 68.4077 297.376 70.2984C297.456 70.4149 297.636 70.7124 297.754 70.9579C298.917 73.1146 298.911 73.0931 298.385 74.0507C298.096 74.5781 297.013 75.4646 296.805 75.3503C296.736 75.3122 296.563 75.3976 296.422 75.5552C296.289 75.6989 295.853 76.1639 295.454 76.595C295.055 77.026 294.681 77.5431 294.609 77.7387C294.521 77.9975 294.405 78.0781 294.202 78.0206C294.026 77.9784 293.847 78.0424 293.786 78.1534C293.694 78.32 293.776 78.4011 294.113 78.4779C294.352 78.5367 294.923 78.7784 295.41 79.0098C296.036 79.3174 296.485 79.4197 297.011 79.3833C297.792 79.3426 300.391 78.6209 300.497 78.4265C300.528 78.371 300.642 78.3612 300.752 78.4222C300.85 78.4756 301.189 78.4816 301.481 78.4433L302.023 78.3437L302.518 79.121C303.36 80.4149 304.097 82.0661 304.637 83.8444C305.039 85.1851 305.082 85.534 304.866 85.6319C304.729 85.6833 304.581 85.8548 304.568 86.0102C304.541 86.158 304.406 86.337 304.248 86.3947C304.104 86.46 303.979 86.5898 303.988 86.7036C303.998 86.8173 303.857 86.8119 303.635 86.6899C303.33 86.5222 303.265 86.541 303.182 86.8567C303.114 87.1446 302.969 87.2453 302.614 87.267C301.967 87.3271 301.857 87.2308 301.989 86.761C302.081 86.3961 302.034 86.3163 301.614 86.1938C301.166 86.0561 301.16 86.0346 301.462 85.9116C301.951 85.7108 302.299 85.1431 302.197 84.6715C302.132 84.3288 302.057 84.2692 301.752 84.2646C301.476 84.2752 301.392 84.2294 301.419 84.0817C301.475 83.7507 301.215 83.6982 301.047 84.0035C300.834 84.3921 300.107 84.8601 299.79 84.8125C299.367 84.7607 298.888 85.7981 299.039 86.4771C299.193 87.0854 299.173 89.0618 299.013 89.3532C298.967 89.4365 298.852 89.4817 298.769 89.4359C298.686 89.3902 298.605 89.4721 298.578 89.6199C298.536 89.9584 297.535 90.2033 297.133 89.9822C296.661 89.7231 295.948 90.0357 295.734 90.6227C295.582 91.0633 295.615 91.1355 296.031 91.3641C296.85 91.8138 298.817 91.4858 299.017 90.8911C299.114 90.5831 299.193 90.5719 299.525 90.7549C299.761 90.8844 299.89 91.0453 299.829 91.1563C299.76 91.2812 299.809 91.2902 299.969 91.1971C300.121 91.118 300.302 91.1817 300.501 91.3453C300.651 91.4998 301.126 91.6882 301.541 91.7539C301.97 91.8271 302.369 91.9559 302.443 92.0509C302.525 92.132 303.025 92.208 303.549 92.2069C304.066 92.2198 304.581 92.268 304.692 92.329C304.817 92.3976 305.08 92.3794 305.288 92.2953C305.562 92.1924 305.857 92.2464 306.259 92.4674C306.592 92.6503 306.908 92.7334 306.989 92.6514C307.12 92.5431 307.377 93.0633 307.73 94.1965C307.806 94.4191 307.695 94.918 307.438 95.5175C307.093 96.3758 306.974 96.5271 306.276 96.975C305.818 97.2833 305.128 97.5543 304.601 97.6261C304.102 97.7131 303.486 97.8807 303.225 98.0266L302.762 98.278L303.053 98.9978C303.215 99.3938 303.407 99.7343 303.491 99.7801C303.833 99.9137 303.933 100.059 303.91 100.299C303.846 100.68 303.548 100.859 302.917 100.892C301.818 100.92 300.19 101.417 299.728 101.832C299.324 102.206 299.308 102.269 299.483 102.673C299.751 103.271 300.299 103.554 301.79 103.832C302.479 103.957 303.187 104.148 303.368 104.247C303.548 104.346 304.033 104.45 304.45 104.48C304.866 104.51 305.379 104.629 305.573 104.736C305.92 104.926 306.679 106.175 306.791 106.76C306.973 107.745 304.201 111.642 303.018 112.021C302.766 112.118 302.513 112.25 302.468 112.333C302.422 112.416 302.155 112.541 301.869 112.601C301.584 112.66 301.325 112.771 301.279 112.854C301.241 112.924 301.404 113.284 301.667 113.627C302.071 114.174 302.311 114.361 303.251 114.787C304.726 115.489 305.346 116.299 305.564 117.81L305.721 118.872L304.946 120.252C304.534 121.002 304.139 121.886 304.077 122.196C303.971 122.751 303.561 123.466 303.228 123.644C303.141 123.704 302.83 123.678 302.557 123.583C301.528 123.288 300.584 123.329 300.102 123.715C299.656 124.066 299.639 124.129 299.722 124.735C299.825 125.369 300.406 126.646 300.656 126.783C300.781 126.852 300.834 127.116 301.06 128.613C301.18 129.348 300.777 130.083 299.654 131.273C299.189 131.758 298.714 132.328 298.599 132.536C298.485 132.744 298.315 132.922 298.215 132.939C298.123 132.943 297.904 133.112 297.727 133.303C297.527 133.536 297.217 133.673 296.898 133.661C296.403 133.642 296.049 133.827 295.764 134.248C295.674 134.379 295.484 134.528 295.333 134.571C294.93 134.747 294.528 135.972 294.699 136.517C294.794 136.804 295.092 137.149 295.547 137.471C296.582 138.184 297.076 139.16 296.88 140.01C296.794 140.396 296.801 140.779 296.903 140.889C296.991 140.992 297.06 141.391 297.031 141.773C297.002 142.353 296.87 142.66 296.244 143.635C295.799 144.347 295.219 145.041 294.809 145.393C294.422 145.704 294 146.177 293.855 146.441C293.527 147.038 293.329 147.037 292.295 146.487L291.463 146.03L290.903 146.951C290.397 147.774 290.371 147.887 290.616 147.967C290.839 148.054 290.829 148.138 290.603 148.484C290.325 148.891 290.331 148.913 290.989 149.491C291.469 149.899 291.743 150.321 291.968 150.932C292.119 151.412 292.322 151.831 292.419 151.884C292.503 151.93 292.597 152.416 292.626 152.955C292.704 154.064 292.433 154.656 291.4 155.714C291.076 156.042 290.54 156.723 290.224 157.2C289.908 157.676 289.483 158.22 289.278 158.396C288.905 158.715 287.485 159.163 287.206 159.046C286.571 158.788 285.593 159.352 284.793 160.448C284.434 160.938 284.316 161.252 284.306 161.698C284.293 162.016 284.201 162.381 284.084 162.497C283.885 162.695 284.023 162.97 284.511 163.364C284.97 163.743 285.738 164.779 285.829 165.172C285.898 165.409 285.921 166.288 285.889 167.102C285.815 169.013 285.313 170.29 284.425 170.887C284.105 171.108 283.704 171.411 283.514 171.56C283.338 171.716 282.752 172.027 282.219 172.275C281.671 172.516 281.216 172.754 281.185 172.809C281.162 172.851 280.843 172.874 280.481 172.874C279.617 172.869 279.287 172.977 279.105 173.31C279.005 173.491 279.043 173.62 279.211 173.676C279.393 173.74 279.424 173.847 279.32 173.971C279.237 174.088 279.222 174.314 279.279 174.472C279.337 174.63 279.327 174.878 279.251 175.017C279.175 175.155 279.076 176.257 279.043 177.468C279.011 178.678 278.948 179.746 278.901 179.864C278.84 179.975 278.659 180.436 278.494 180.869C278.266 181.449 277.996 181.842 277.451 182.374C276.575 183.247 275.493 183.935 275.119 183.892C274.971 183.865 274.256 183.852 273.534 183.853C272.648 183.854 272.185 183.942 272.093 184.109C272.009 184.261 271.752 184.5 271.512 184.674C271.257 184.842 271.079 185.069 271.073 185.21C271.087 185.579 271.482 186.537 271.858 187.069C272.026 187.323 272.157 187.775 272.152 188.079C272.155 188.37 272.142 188.887 272.13 189.205C272.12 189.651 271.962 190.07 271.364 191.061C270.62 192.35 270.495 192.48 269.07 193.431C268.328 193.927 265.85 194.625 265.267 194.503C264.712 194.397 263.205 194.707 262.839 195.012C262.605 195.208 262.541 195.39 262.572 195.696C262.592 195.924 262.567 196.199 262.498 196.324C262.437 196.435 262.374 196.78 262.377 197.07C262.378 197.432 262.117 198.138 261.593 199.223L260.801 200.829L259.986 201.23C259.538 201.454 258.554 201.798 257.809 202.004C257.079 202.216 256.425 202.453 256.379 202.537C256.334 202.62 255.318 202.134 253.418 201.09L250.554 199.498L250.696 196.74C250.916 192.128 251.294 185.092 251.493 181.606C251.633 179.245 251.797 176.119 251.962 172.922C252.018 171.67 252.118 169.81 252.185 168.799C252.895 157.014 252.913 157.836 251.887 153.424C251.374 151.3 250.885 149.098 250.765 148.527C250.504 147.227 249.094 141.178 248.693 139.639C248.416 138.565 248.13 135.5 247.235 124.566C247.031 122.142 246.865 121.129 246.6 120.658C246.415 120.304 246.235 120.006 246.194 119.984C246.166 119.968 245.565 119.024 244.872 117.885C244.166 116.738 243.312 115.365 242.965 114.813C242.61 114.275 242.197 113.615 242.051 113.354C241.798 112.926 241.512 112.461 239.944 109.956C239.67 109.534 238.713 107.889 237.797 106.302C236.881 104.714 236.052 103.265 235.945 103.098C235.845 102.917 235.394 102.127 234.937 101.316C234.486 100.526 233.118 98.1489 231.911 96.0402C230.695 93.9453 229.621 92.0543 229.488 91.8366C229.295 91.4961 226.404 86.4027 225.965 85.6559C225.886 85.5041 225.647 85.0838 225.442 84.7003L225.072 84.027L223.408 76.7396C224.807 73.8952 226.98 68.8908 229.542 64.5535ZM292.625 78.6897C292.818 78.6334 292.813 78.5765 292.55 78.4317C292.286 78.2869 292.236 78.3133 292.292 78.5068C292.348 78.7003 292.431 78.746 292.625 78.6897Z" fill="url(#paint1_linear_290_237)"/>
<defs>
<linearGradient id="paint0_linear_290_237" x1="74.4991" y1="226.966" x2="129.872" y2="190.824" gradientUnits="userSpaceOnUse">
<stop stop-color="#C32122"/>
<stop offset="1" stop-color="#5D1010"/>
</linearGradient>
<linearGradient id="paint1_linear_290_237" x1="284.065" y1="99.0392" x2="227.138" y2="128.182" gradientUnits="userSpaceOnUse">
<stop stop-color="#C32122"/>
<stop offset="1" stop-color="#5D1010"/>
</linearGradient>
</defs>
</svg>
