<?xml version="1.0" encoding="UTF-8"?> <svg xmlns="http://www.w3.org/2000/svg" width="206" height="60" viewBox="0 0 206 60" fill="none"><g clip-path="url(#clip0_1_2)"><path d="M12.8894 41.7506H201.898V40.7048H12.8894V41.7506Z" fill="#393536"></path><path d="M22.3788 46.7692C21.6536 46.4178 20.7098 46.2861 19.6552 46.2861C16.4703 46.2861 14.6471 48.6364 14.6471 52.3483C14.6471 55.8625 16.6021 58.8278 20.5122 58.8278C21.456 58.8278 22.3788 58.5862 22.9279 58.0811C23.4774 57.6419 24.0039 56.8947 24.5749 55.9284C24.6852 55.9284 25.0586 56.1261 25.1025 56.2798C24.8829 57.2246 23.938 58.9376 23.4335 59.245C22.7961 59.4646 21.412 59.7946 20.0724 59.7946C15.1747 59.7946 12.451 57.1148 12.451 52.5459C12.451 50.1737 13.5271 47.8019 15.9428 46.5057C17.1072 45.8688 18.5346 45.495 20.4024 45.495C22.269 45.495 23.7404 45.8688 24.7291 45.9347C24.5969 46.7033 24.3992 48.3284 24.3773 49.3172C24.2894 49.405 23.719 49.4709 23.697 49.3611C23.4774 47.6037 23.1919 47.1645 22.3788 46.7692Z" fill="#393536"></path><path d="M40.8475 58.059C42.2091 56.961 42.6922 55.1377 42.6922 53.1168C42.6922 50.7451 41.9022 48.4606 40.1667 47.2528C39.3762 46.7032 38.4313 46.3738 37.2888 46.3738C36.5207 46.3738 35.8614 46.5495 35.3124 46.8569C33.7092 47.8018 32.962 49.7783 32.962 52.0188C32.962 54.3252 33.819 56.8287 35.7516 58.081C36.5207 58.5641 37.3772 58.8277 38.4972 58.8277C39.4201 58.8277 40.2766 58.5422 40.8475 58.059ZM32.6985 57.7955C31.3809 56.3461 30.8099 54.5009 30.8099 52.5239C30.8099 50.8988 31.293 49.4928 32.1714 48.2849C33.3798 46.6154 35.7735 45.4954 38.036 45.4954C42.5165 45.4954 44.7796 48.7681 44.7796 52.3482C44.7796 54.2813 44.3398 55.6648 43.4394 56.9166C42.0779 58.8057 39.8588 59.7945 37.6627 59.7945C35.5539 59.7945 33.841 59.0253 32.6985 57.7955Z" fill="#393536"></path><path d="M50.3103 45.8248C50.8599 45.8248 51.9574 45.8907 53.0559 45.8907C53.4957 45.8907 53.869 45.8907 54.0447 45.8687C54.1325 46.0884 54.2643 46.3299 54.8348 47.0546C57.0753 49.8661 61.5783 55.3574 62.6324 56.5872C62.6763 56.6091 62.6983 56.5872 62.7203 56.5657C62.7203 53.5566 62.7422 49.4489 62.6324 47.8677C62.5885 47.2303 62.4567 46.8789 61.7979 46.7033C61.4026 46.5935 60.9195 46.5056 60.326 46.4397C60.2382 46.3519 60.2601 45.8907 60.326 45.8248C60.8975 45.8248 61.9082 45.8907 63.2473 45.8907C63.9945 45.8907 65.2902 45.8248 65.5757 45.8248C65.6635 45.8907 65.6635 46.3519 65.5757 46.4397C65.1804 46.5056 64.8954 46.5715 64.6094 46.6593C64.0384 46.857 63.9067 47.2523 63.8627 47.8457C63.731 49.5367 63.7529 52.3482 63.6871 56.4999C63.6871 57.5101 63.709 58.7838 63.731 59.5085C63.4894 59.4865 62.4787 59.4865 62.2157 59.5085C61.0512 57.8395 55.011 50.2834 53.6933 48.6363C53.6714 48.6144 53.6055 48.6363 53.6055 48.6583C53.5616 50.9208 53.5616 56.0601 53.6274 57.2904C53.6714 58.1689 53.9569 58.4763 54.5273 58.6081C54.8573 58.7179 55.2965 58.7618 55.8455 58.8277C55.9333 58.9155 55.8674 59.3767 55.8016 59.4646C55.2745 59.4646 54.2863 59.3987 53.0559 59.3987C51.7158 59.3987 50.8818 59.4646 50.4201 59.4646C50.3542 59.3987 50.3542 58.8936 50.4201 58.8277C50.9038 58.7838 51.2551 58.7179 51.5846 58.6301C52.0897 58.4763 52.3752 58.1908 52.4191 57.3344C52.5069 56.1919 52.5728 52.6118 52.6167 47.9995C52.6167 47.6695 52.5069 47.1864 52.0233 46.9229C51.6065 46.6374 51.1234 46.5276 50.2664 46.4397C50.2005 46.3739 50.2225 45.8907 50.3103 45.8248Z" fill="#393536"></path><path d="M73.0181 58.3886C73.5677 58.8059 74.3363 58.9816 75.1708 58.9816C76.2913 58.9816 77.5206 58.3228 77.5206 56.6752C77.5206 55.2258 76.6207 54.5445 74.6432 53.3805C72.6887 52.2605 71.3711 51.1839 71.3711 49.2075C71.3711 46.8571 73.3036 45.4951 75.6979 45.4951C77.2132 45.4951 78.1141 45.7811 79.037 45.8689C78.8827 46.5936 78.7509 47.8234 78.6631 48.9C78.5972 49.0313 78.0921 49.0313 78.0262 48.922C77.8945 47.6258 77.6968 47.0109 77.1692 46.6595C76.6866 46.3081 76.0492 46.1983 75.3904 46.1983C73.8751 46.1983 73.106 47.3622 73.084 48.4383C73.084 49.6686 73.6555 50.3055 74.5773 50.9424C75.4563 51.5139 76.5549 52.0409 77.301 52.4801C78.4435 53.2048 79.4103 54.1272 79.4103 55.7309C79.4103 57.8835 77.6309 59.7941 74.5334 59.7941C73.2158 59.7941 71.8976 59.3769 71.3711 59.1133C71.1734 58.8279 70.822 56.5654 70.7562 55.8187C70.8001 55.6869 71.3271 55.5552 71.4369 55.6211C71.8317 56.9832 72.2715 57.8616 73.0181 58.3886Z" fill="#393536"></path><path d="M85.0964 45.8029C85.6454 45.8029 86.7874 45.8907 88.0177 45.8907H92.3445C93.179 45.8907 94.3215 45.8688 94.7822 45.8029C94.8041 45.8248 94.8705 45.8907 94.8705 45.9127C94.6943 46.5715 94.5406 48.0434 94.4752 48.9218C94.3874 49.0316 93.8603 49.0316 93.7944 48.9658C93.7286 48.3289 93.6407 47.9556 93.5529 47.6256C93.3767 47.0986 93.179 46.857 92.4543 46.7911C92.0371 46.7692 89.3793 46.7692 89.0938 46.7911C88.9401 46.835 88.8303 47.0986 88.8303 47.2084C88.8083 48.4387 88.8083 50.8769 88.8083 51.8651C88.8083 51.931 88.8522 52.0188 88.9181 52.0188C89.7965 52.0408 91.488 52.0408 92.2786 51.9749C92.7618 51.931 92.9155 51.6674 93.0253 51.3156C93.1131 51.0745 93.201 50.7671 93.2669 50.4371C93.3991 50.3712 93.9042 50.3932 93.9921 50.503C93.9262 50.9428 93.8384 51.7992 93.8384 52.5679C93.8384 53.3804 93.8603 54.0173 93.8823 54.5668C93.7725 54.6766 93.2449 54.6986 93.1351 54.5888C93.0692 54.1271 93.0473 53.9514 92.9594 53.6884C92.8716 53.3804 92.7178 53.0949 92.2127 53.051C91.5539 52.9851 89.7306 52.9851 88.9181 53.0071C88.8742 53.0071 88.8083 53.1169 88.8083 53.1828C88.8083 54.1935 88.8083 56.5218 88.8522 57.576C88.8522 58.0152 89.0938 58.3226 89.3573 58.4105C89.7965 58.5203 91.7076 58.5422 92.608 58.5422C93.5529 58.5203 93.8384 58.3226 94.2336 57.8175C94.5845 57.4222 95.0462 56.5438 95.3317 55.8844C95.4415 55.8625 95.8807 56.0162 95.9685 56.126C95.8587 56.8068 95.3756 58.4764 95.0462 59.1357C94.9144 59.3767 94.7822 59.4865 93.6846 59.4865C91.8394 59.4865 90.2577 59.3987 87.9738 59.3987C86.5019 59.3987 85.4039 59.4646 84.5029 59.4646C84.4151 59.3987 84.3931 58.9375 84.481 58.8277C85.1623 58.7618 85.7552 58.7179 86.1505 58.6081C86.6776 58.4763 86.8313 58.1909 86.8972 57.4222C86.9191 57.005 86.9191 54.5888 86.9191 52.1067C86.9191 50.1077 86.9191 48.1532 86.8972 47.7574C86.8533 46.9668 86.7654 46.7692 86.2384 46.6374C85.9529 46.5495 85.5795 46.4837 85.0744 46.4178C84.9646 46.3299 85.0085 45.9127 85.0964 45.8029Z" fill="#393536"></path><path d="M105.125 46.7034C105.059 46.7473 104.971 46.923 104.971 47.0328C104.927 47.7795 104.927 50.7666 104.927 52.4801C104.927 52.524 104.971 52.5899 105.037 52.5899C106.508 52.6338 107.453 52.5899 107.871 52.4142C108.574 52.0848 109.298 51.2937 109.298 49.8663C109.298 47.8019 108.244 46.5936 105.894 46.5936C105.718 46.5936 105.345 46.6155 105.125 46.7034ZM101.171 45.8249C101.699 45.8249 103.017 45.8908 103.697 45.8908C105.323 45.8908 106.465 45.8469 107.343 45.8469C109.913 45.8469 111.276 47.3842 111.276 49.2294C111.276 51.0741 110.089 52.1727 108.771 52.7656C108.728 52.8095 108.706 52.8754 108.728 52.9193C109.496 54.1496 111.232 56.5653 112.307 57.6639C113.208 58.5863 113.516 58.6961 114.833 58.8717C114.877 58.9376 114.833 59.4427 114.701 59.4866C113.757 59.5306 112 59.4647 111.188 59.0694C110.858 58.9157 110.506 58.6521 110.133 58.191C109.298 57.2027 107.958 55.0061 107.124 53.8197C106.97 53.6001 106.75 53.4903 106.574 53.4903C106.267 53.4464 105.323 53.4684 105.015 53.4684C104.971 53.4684 104.927 53.5781 104.927 53.6001C104.927 54.808 104.927 56.8508 104.971 57.5755C105.015 58.3227 105.169 58.5204 105.674 58.6302C106.004 58.6961 106.399 58.7619 106.904 58.8278C107.014 58.9157 106.97 59.3768 106.86 59.4647C106.443 59.4647 105.388 59.3988 103.939 59.3988C102.511 59.3988 101.567 59.4647 101.149 59.4647C101.04 59.3768 101.04 58.9157 101.149 58.8278C101.633 58.7619 101.984 58.718 102.27 58.6521C102.797 58.5423 102.973 58.2788 103.017 57.4443C103.039 56.9387 103.061 53.9515 103.061 52.7436C103.061 50.5031 103.061 48.3065 103.039 47.6257C103.017 47.0108 102.863 46.7473 102.313 46.6155C101.984 46.5497 101.567 46.4838 101.127 46.4398C101.04 46.352 101.084 45.8689 101.171 45.8249Z" fill="#393536"></path><path d="M116.588 45.8249C117.115 45.8249 118.323 45.8907 119.268 45.8907C120.586 45.8907 121.749 45.8249 122.079 45.8249C122.189 45.8688 122.211 46.3739 122.101 46.4398C121.617 46.5276 121.244 46.6154 120.959 46.6813C120.586 46.7692 120.542 47.0546 120.651 47.3621C121.31 49.2512 123.814 55.9503 124.231 56.9386C124.253 56.9386 124.297 56.9386 124.341 56.9166C124.869 55.7088 127.197 49.8442 127.812 47.9336C128.075 47.1211 127.966 46.7911 127.306 46.6593C126.977 46.5935 126.626 46.5276 126.12 46.4398C126.055 46.3519 126.098 45.8688 126.186 45.8249C126.538 45.8249 127.416 45.8907 128.778 45.8907C129.942 45.8907 130.558 45.8249 131.085 45.8249C131.172 45.8907 131.172 46.3519 131.085 46.4398C130.711 46.5056 130.404 46.5715 130.118 46.6593C129.437 46.879 129.239 47.3182 128.712 48.5485C128.032 50.1077 126.56 53.7762 125.462 56.4999C124.935 57.8175 124.539 58.9156 124.319 59.5963C123.99 59.5305 123.331 59.5305 123.001 59.5963C122.782 58.7399 122.474 57.7516 122.057 56.6092C120.959 53.6445 119.597 50.0199 118.96 48.3948C118.455 47.1864 118.213 46.835 117.554 46.6374C117.269 46.5715 116.939 46.5056 116.522 46.4398C116.434 46.3519 116.478 45.8688 116.588 45.8249Z" fill="#393536"></path><path d="M150.956 45.8248C151.506 45.8248 152.603 45.8907 153.702 45.8907C154.142 45.8907 154.515 45.8907 154.691 45.8687C154.778 46.0884 154.91 46.3299 155.481 47.0546C157.721 49.8661 162.224 55.3574 163.278 56.5872C163.322 56.6091 163.344 56.5872 163.366 56.5657C163.366 53.5566 163.388 49.4489 163.278 47.8677C163.234 47.2303 163.103 46.8789 162.444 46.7033C162.049 46.5935 161.565 46.5056 160.972 46.4397C160.884 46.3519 160.906 45.8907 160.972 45.8248C161.543 45.8248 162.554 45.8907 163.893 45.8907C164.64 45.8907 165.936 45.8248 166.222 45.8248C166.309 45.8907 166.309 46.3519 166.222 46.4397C165.826 46.5056 165.541 46.5715 165.255 46.6593C164.684 46.857 164.553 47.2523 164.509 47.8457C164.377 49.5367 164.399 52.3482 164.333 56.4999C164.333 57.5101 164.355 58.7838 164.377 59.5085C164.135 59.4865 163.125 59.4865 162.862 59.5085C161.697 57.8395 155.657 50.2834 154.339 48.6363C154.317 48.6144 154.251 48.6363 154.251 48.6583C154.208 50.9208 154.208 56.0601 154.273 57.2904C154.317 58.1689 154.603 58.4763 155.173 58.6081C155.503 58.7179 155.942 58.7618 156.491 58.8277C156.579 58.9155 156.513 59.3767 156.447 59.4646C155.92 59.4646 154.932 59.3987 153.702 59.3987C152.362 59.3987 151.528 59.4646 151.066 59.4646C151 59.3987 151 58.8936 151.066 58.8277C151.55 58.7838 151.901 58.7179 152.231 58.6301C152.736 58.4763 153.021 58.1908 153.065 57.3344C153.153 56.1919 153.219 52.6118 153.263 47.9995C153.263 47.6695 153.153 47.1864 152.669 46.9229C152.252 46.6374 151.769 46.5276 150.912 46.4397C150.846 46.3739 150.868 45.8907 150.956 45.8248Z" fill="#393536"></path><path d="M181.791 46.7692C181.066 46.4178 180.122 46.2861 179.067 46.2861C175.883 46.2861 174.059 48.6364 174.059 52.3483C174.059 55.8625 176.014 58.8278 179.924 58.8278C180.868 58.8278 181.791 58.5862 182.34 58.0811C182.89 57.6419 183.416 56.8947 183.987 55.9284C184.098 55.9284 184.471 56.1261 184.515 56.2798C184.295 57.2246 183.35 58.9376 182.846 59.245C182.208 59.4646 180.824 59.7946 179.485 59.7946C174.587 59.7946 171.863 57.1148 171.863 52.5459C171.863 50.1737 172.939 47.8019 175.355 46.5057C176.519 45.8688 177.947 45.495 179.815 45.495C181.681 45.495 183.153 45.8688 184.141 45.9347C184.01 46.7033 183.812 48.3284 183.79 49.3172C183.702 49.405 183.131 49.4709 183.109 49.3611C182.89 47.6037 182.604 47.1645 181.791 46.7692Z" fill="#393536"></path><path d="M189.409 45.8248C189.958 45.8248 191.122 45.8907 192.133 45.8907C192.879 45.8907 194.307 45.8468 194.57 45.8248C194.681 45.8907 194.703 46.3519 194.592 46.4397C194.351 46.4837 193.955 46.5495 193.802 46.5935C193.516 46.6813 193.494 46.9009 193.648 47.2084C194.219 48.4387 195.954 51.7772 196.416 52.5459C196.438 52.5459 196.525 52.5459 196.547 52.5239C197.316 51.2716 198.853 48.4826 199.271 47.4719C199.469 47.0546 199.447 46.7472 198.832 46.6154C198.546 46.5495 198.283 46.5276 197.8 46.4397C197.712 46.3299 197.756 45.8688 197.866 45.8248C198.524 45.8468 199.513 45.8907 200.281 45.8907C201.336 45.8907 201.863 45.8688 202.61 45.8248C202.719 45.8688 202.719 46.3738 202.632 46.4397C202.368 46.4837 202.039 46.5495 201.709 46.6154C201.05 46.7911 200.743 47.121 200.171 48.0214C199.227 49.4928 197.602 52.3702 197.096 53.3584C197.009 53.5566 196.921 53.9294 196.921 54.127C196.921 54.984 196.943 56.0821 196.965 57.2026C196.987 58.1689 197.096 58.5202 197.69 58.652C198.041 58.7399 198.437 58.7838 199.029 58.8497C199.095 58.9375 199.051 59.3987 198.964 59.4646C198.415 59.4646 197.206 59.3987 195.932 59.3987C194.373 59.3987 193.385 59.4646 192.77 59.4646C192.682 59.3987 192.682 58.9155 192.77 58.8497C193.341 58.7838 193.89 58.7179 194.263 58.6301C194.856 58.4763 194.988 58.103 195.01 57.4222C195.032 56.3461 195.032 55.5331 195.032 54.5887C195.032 54.2813 194.966 53.7982 194.856 53.5346C194.395 52.48 193.099 50.0638 192.221 48.4606C191.364 46.9668 191.166 46.7911 190.375 46.5935C190.112 46.5276 189.826 46.5056 189.365 46.4397C189.299 46.3519 189.321 45.9127 189.409 45.8248Z" fill="#393536"></path><path d="M44.7298 5.41654C44.7612 5.56034 44.7596 5.68844 44.7586 5.78151C44.7581 5.80033 44.7586 5.81916 44.7591 5.83798H202.064V4.79223H44.5421C44.5714 4.92609 44.607 5.0542 44.654 5.17603C44.677 5.23616 44.7084 5.31772 44.7298 5.41654Z" fill="#393536"></path><path d="M26.0042 22.5421C24.502 21.6584 22.2924 20.598 20.525 19.4493C18.6694 18.1677 17.5206 16.8866 17.5206 14.4124C17.5227 14.3115 17.5316 14.2095 17.5399 14.1081C17.6497 12.8113 18.2934 11.4974 19.4699 10.6916C19.7585 10.494 20.0795 10.3282 20.4325 10.2001L20.3687 9.51357C20.3405 9.51671 20.3107 9.51828 20.2809 9.51828C20.2803 9.51828 20.2092 9.51566 20.2092 9.51566C20.17 9.52351 20.1308 9.52979 20.0921 9.5324L20.0362 9.53397C20.021 9.53397 20.0048 9.53084 19.9891 9.53031C19.954 9.52822 19.919 9.52665 19.8819 9.5209L19.7893 9.50625L19.7972 9.55959C19.7554 9.56587 19.7078 9.58155 19.6602 9.59515C19.5697 9.62077 19.4678 9.64951 19.359 9.66572C19.2419 9.68298 19.1091 9.70233 18.9601 9.70233C18.9365 9.70233 18.913 9.70181 18.8895 9.70076C18.8754 9.74678 18.844 9.86076 18.844 9.86076C18.8179 9.95279 18.7969 10.0464 18.7765 10.14C18.7452 10.278 18.7138 10.4161 18.6725 10.5515C18.5182 11.0608 18.2458 11.4995 18.0173 11.8315C18.0142 11.8451 18.0121 11.8592 18.009 11.8728C17.9907 11.958 17.965 12.0746 17.9075 12.197C17.8244 12.3737 17.7135 12.5076 17.6163 12.6195C17.5065 12.7455 17.3925 12.8683 17.2785 12.9912C16.9988 13.2929 16.7342 13.5779 16.5564 13.8911L16.5235 13.9507C16.468 14.0521 16.3985 14.1787 16.2929 14.3036C16.2495 14.3549 16.2024 14.4019 16.1548 14.4485C16.1381 14.4647 16.1208 14.4814 16.1062 14.4976C16.0686 14.5384 16.0246 14.6069 15.9781 14.6791C15.8741 14.8406 15.7543 14.9677 15.6487 15.0801C15.5771 15.1559 15.5091 15.2281 15.4694 15.2887C15.4165 15.3677 15.3663 15.4493 15.3167 15.5308C15.1938 15.73 15.0673 15.9361 14.8984 16.1358C14.7227 16.3444 14.524 16.517 14.3525 16.6649C14.3227 16.6958 14.2667 16.8051 14.2296 16.8772C14.2029 16.929 14.1768 16.9792 14.1501 17.0268C14.2521 17.7928 14.4607 18.4898 14.7713 19.1293C15.804 21.2553 17.9185 22.7842 20.6573 24.3538C24.6343 26.6953 26.4461 28.0652 26.4461 30.9813C26.4461 34.2953 23.9713 35.6208 21.7182 35.6208C20.0393 35.6208 18.4926 35.2673 17.3878 34.4276C15.8856 33.3677 15.0019 31.5999 14.2071 28.8605C13.986 28.7282 12.925 28.9928 12.8367 29.2584C12.9695 30.7606 13.6764 35.3112 14.0743 35.8859C15.1347 36.4161 17.7857 37.2558 20.4372 37.2558C26.6673 37.2558 30.2458 33.4116 30.2458 29.0817C30.2458 25.8561 28.3018 24.0004 26.0042 22.5421Z" fill="#393536"></path><path d="M25.7387 10.8332C26.7991 11.5402 27.197 12.7773 27.4621 15.3844C27.595 15.605 28.6109 15.605 28.7437 15.3399C28.8812 13.6542 29.0726 11.7875 29.2969 10.3527L28.4514 10.5054L28.8305 9.96474C28.8012 9.96265 28.7699 9.96056 28.7416 9.95847C28.6365 9.9522 28.5058 9.94383 28.3667 9.91298C28.2146 9.87951 28.0828 9.82566 27.9767 9.78226C27.9082 9.75455 27.8433 9.72841 27.7973 9.71742C27.7539 9.70697 27.7089 9.70331 27.6645 9.69756C27.6232 9.69285 27.5814 9.68762 27.5401 9.68135C27.3356 9.6505 27.1516 9.59612 26.9644 9.54174C26.7055 9.4654 26.4608 9.39376 26.2161 9.34095C26.0253 9.29965 25.8595 9.2756 25.7089 9.26776C25.504 9.2573 25.3251 9.19822 25.1808 9.15064L25.1035 9.12554C24.8812 9.05704 24.6229 9.03298 24.3495 9.00789C24.2376 8.99795 24.1257 8.9875 24.0143 8.97442C23.917 8.96292 23.8198 8.9488 23.722 8.9352C23.5191 8.90644 23.3267 8.87978 23.15 8.87664C22.9884 8.99481 22.7845 9.09259 22.5471 9.10044H22.5184C22.4776 9.10044 22.4363 9.09783 22.3897 9.09207C22.3406 9.11403 22.2904 9.13442 22.2391 9.15011C22.1937 9.1637 22.1466 9.17468 22.099 9.18304C22.0248 9.26043 21.951 9.34201 21.9071 9.40789L21.5547 9.93966C21.7502 9.91822 21.9505 9.90514 22.1597 9.90514C23.4852 9.90514 24.7672 10.1263 25.7387 10.8332Z" fill="#393536"></path><path d="M66.5205 9.28684C63.9579 9.28684 62.0138 9.15403 61.218 9.15403C61.0413 9.28684 60.9974 10.2144 61.1741 10.3912C62.1461 10.5679 62.8086 10.6123 63.4277 10.7891C64.8855 11.0542 65.3717 11.6288 65.4162 13.8379C65.5929 18.3446 65.5046 23.2931 65.3273 26.651C64.9299 33.6325 61.3508 34.7373 57.6839 34.7373C53.4857 34.7373 50.9231 32.7488 50.0395 30.2746C49.5537 29.3025 49.2886 27.6236 49.2002 25.7679C49.1119 23.4259 49.0674 17.461 49.1558 13.131C49.2002 11.5844 49.4653 11.0981 50.4813 10.7891C51.0115 10.6123 51.6301 10.5679 52.6026 10.3912C52.7349 10.2589 52.7349 9.28684 52.5581 9.15403C51.4538 9.15403 49.4209 9.28684 47.344 9.28684C45.9872 9.28684 44.35 9.23036 43.1542 9.19115L43.1385 9.20422L42.9116 9.20736C42.8206 9.20841 42.7249 9.21312 42.6293 9.2173C42.531 9.22201 42.4332 9.22619 42.3396 9.22828C42.3354 9.23089 42.3312 9.23403 42.3265 9.23664C42.1315 9.36684 41.8878 9.43063 41.6154 9.44841C41.5511 9.78775 41.5636 10.2976 41.6886 10.3912C42.4839 10.524 43.5004 10.6568 43.9861 10.8335C44.9142 11.1425 45.1793 11.8495 45.2238 12.9982C45.3116 15.2518 45.2238 26.4748 45.5767 29.2581C46.1514 34.0743 49.2442 37.2555 56.2256 37.2555C60.8651 37.2555 65.6368 35.4442 66.9184 29.4792C67.6693 26.3864 67.5365 23.1608 67.8016 14.1025C67.846 11.9817 68.1111 11.1865 69.3921 10.8335C69.8784 10.6568 70.5853 10.5679 71.2484 10.3912C71.4251 10.3028 71.3806 9.28684 71.2484 9.15403C70.497 9.15403 68.509 9.28684 66.5205 9.28684Z" fill="#393536"></path><path d="M101.865 9.28685C100.319 9.28685 98.3305 9.19848 97.005 9.15404C96.7838 9.24293 96.6955 10.1705 96.8722 10.3912C97.8448 10.5679 98.3744 10.6123 98.9491 10.7452C100.186 11.0097 100.231 11.6288 99.8327 12.468C98.9935 14.5004 95.9007 20.1119 94.354 22.6306C94.3101 22.6746 94.1334 22.6746 94.0889 22.6746C93.1614 21.1279 89.6706 14.4121 88.5214 11.9378C88.2123 11.3193 88.2568 10.8774 88.8309 10.7007C89.1399 10.6123 89.9357 10.4795 90.4215 10.3912C90.6427 10.2144 90.5982 9.28685 90.377 9.15404C89.8474 9.19848 86.9747 9.28685 85.4725 9.28685C83.4406 9.28685 81.0986 9.15404 79.9943 9.15404C79.817 9.33077 79.7731 10.2144 79.9054 10.3912C80.8335 10.524 81.4076 10.5679 81.9384 10.7007C83.5289 11.0981 83.9263 11.4521 85.6497 14.4565C87.417 17.6816 90.0241 22.5423 90.9517 24.663C91.1729 25.1932 91.3057 26.1653 91.3057 26.7838C91.3057 28.684 91.3057 30.3185 91.2612 32.4837C91.2168 33.8531 90.9517 34.6045 89.759 34.914C89.0076 35.0908 87.9033 35.2231 86.7546 35.3553C86.5778 35.4881 86.5778 36.4602 86.7546 36.593C87.9917 36.593 89.9802 36.4602 93.1169 36.4602C95.6795 36.4602 98.1093 36.593 99.2147 36.593C99.3914 36.4602 99.4798 35.5326 99.347 35.3553C98.1538 35.2231 97.3585 35.1347 96.6516 34.9579C95.4583 34.6928 95.2377 33.9859 95.1932 32.0419C95.1493 29.7883 95.1049 27.5791 95.1049 25.8557C95.1049 25.4583 95.2816 24.707 95.4584 24.3096C96.4748 22.3211 99.7444 16.5329 101.644 13.5729C102.793 11.7611 103.412 11.0981 104.737 10.7452C105.4 10.6123 106.063 10.4795 106.593 10.3912C106.77 10.2589 106.77 9.24293 106.549 9.15404C105.047 9.24293 103.986 9.28685 101.865 9.28685Z" fill="#393536"></path><path d="M125.105 34.8697C123.78 34.5601 123.603 33.8093 123.558 32.5277C123.47 30.981 123.47 26.7395 123.47 22.3651C123.47 18.5215 123.426 14.8095 123.558 12.9539C123.647 11.5844 123.824 11.0098 124.84 10.7447C125.37 10.6119 126.121 10.5235 127.094 10.3912C127.226 10.1706 127.182 9.33085 127.049 9.15412C125.944 9.15412 123.868 9.28693 121.57 9.28693C119.273 9.28693 116.754 9.15412 115.826 9.15412C115.694 9.28693 115.605 10.2145 115.782 10.3912C116.975 10.568 117.815 10.6564 118.477 10.8775C119.405 11.1426 119.494 11.8051 119.582 12.9099C119.714 14.9868 119.714 17.8584 119.714 21.482C119.714 27.2697 119.714 31.8208 119.538 33.0579C119.45 34.0744 119.273 34.6929 117.992 34.958C117.373 35.1348 116.71 35.2231 115.738 35.3115C115.561 35.4443 115.561 36.4603 115.782 36.5926C117.196 36.5926 119.405 36.4603 121.924 36.4603C124.089 36.4603 126.563 36.5926 127.623 36.5926C127.8 36.4603 127.888 35.4882 127.712 35.3115C126.652 35.1787 125.724 35.0464 125.105 34.8697Z" fill="#393536"></path><path d="M154 23.7351C153.558 23.779 152.1 23.779 151.04 23.779C149.361 23.779 147.947 23.779 147.505 23.7351C147.373 23.6912 147.328 23.6028 147.328 23.4261C148.08 21.0841 149.891 16.0912 150.642 13.882C150.686 13.7937 150.819 13.8376 150.863 13.8376C151.57 15.7377 153.249 20.6423 154.133 23.3816C154.221 23.5584 154.088 23.7351 154 23.7351ZM161.291 31.7325C159.744 28.065 154.839 14.0588 153.956 11.5401C153.647 10.7009 153.425 9.90503 153.249 9.24255C153.117 9.24255 152.675 9.28701 151.791 9.28701C151.04 9.28701 150.509 9.24255 150.333 9.24255C150.244 9.86111 149.935 10.8331 149.582 11.7613C148.609 14.589 144.457 25.8559 142.202 31.2023C140.745 34.6047 140.215 34.9137 137.033 35.3116C136.857 35.4883 136.857 36.4159 137.033 36.5926C137.872 36.5926 139.242 36.4603 141.761 36.4603C144.235 36.4603 146.489 36.5926 147.417 36.5926C147.549 36.4159 147.638 35.4883 147.505 35.3116C146.666 35.2232 145.914 35.0904 145.384 34.9581C144.014 34.6046 143.926 34.1184 143.97 33.3675C144.059 32.3071 145.472 28.5952 146.356 26.2094C146.401 26.0771 146.622 25.812 146.799 25.812C147.328 25.7675 147.638 25.812 150.465 25.812C152.454 25.812 154 25.7675 154.619 25.812C154.708 25.812 154.972 25.9887 155.017 26.121C155.812 28.1095 157.137 31.8209 157.668 33.721C157.8 34.1184 157.756 34.5602 157.182 34.8253C156.519 35.0465 155.723 35.1788 154.751 35.3116C154.575 35.4883 154.663 36.4159 154.795 36.5926C155.723 36.5487 158.418 36.4603 160.584 36.4603C162.572 36.4603 164.825 36.5487 165.974 36.5926C166.107 36.4159 166.239 35.4444 166.062 35.3116C162.881 34.9137 162.572 34.693 161.291 31.7325Z" fill="#393536"></path><path d="M205.65 9.15408C205.075 9.15408 202.469 9.28689 200.967 9.28689C198.272 9.28689 196.239 9.15408 195.09 9.15408C194.958 9.28689 194.913 10.2145 195.09 10.3912C196.283 10.524 197.255 10.7007 198.05 10.9214C199.376 11.2749 199.641 11.9818 199.729 13.2634C199.951 16.4445 199.906 24.707 199.906 30.7603C199.862 30.8048 199.818 30.8487 199.729 30.8048C197.609 28.33 188.551 17.2843 184.044 11.6283C182.895 10.1705 182.63 9.68428 182.453 9.24245C182.1 9.28689 181.348 9.28689 180.465 9.28689C178.255 9.28689 176.046 9.15408 174.942 9.15408C174.765 9.28689 174.721 10.2589 174.854 10.3912C176.576 10.5679 177.548 10.7891 178.388 11.3632C179.36 11.8934 179.581 12.866 179.581 13.5285C179.493 22.8074 179.36 30.0095 179.183 32.307C179.095 34.0304 178.52 34.6045 177.505 34.9141C176.842 35.0908 176.135 35.2231 175.163 35.3115C175.03 35.4443 175.03 36.4602 175.163 36.593C176.091 36.593 177.77 36.4602 180.465 36.4602C182.939 36.4602 184.927 36.593 185.988 36.593C186.12 36.4163 186.253 35.4882 186.076 35.3115C184.972 35.1787 184.088 35.0908 183.425 34.8696C182.276 34.6045 181.702 33.986 181.613 32.2186C181.481 29.7439 181.481 19.4051 181.569 14.8539C181.569 14.8095 181.702 14.7656 181.746 14.8095C184.397 18.1235 196.548 33.3235 198.89 36.6814C199.42 36.637 201.453 36.637 201.939 36.6814C201.894 35.2231 201.85 32.6605 201.85 30.6281C201.982 22.2772 201.939 16.6213 202.204 13.2189C202.292 12.0262 202.557 11.2309 203.706 10.833C204.281 10.6568 204.855 10.524 205.65 10.3912C205.827 10.2145 205.827 9.28689 205.65 9.15408Z" fill="#393536"></path><path d="M34.7121 20.4646C34.6917 20.2204 34.6201 19.9835 34.5856 19.7414C34.5328 19.3723 34.6907 19.0334 34.6687 18.6617C34.5793 17.1344 34.2211 15.6363 34.0428 14.1174C33.9247 13.1103 33.8954 12.0719 34.0653 11.0774C33.967 11.1009 33.8687 11.1244 33.773 11.1459C33.4598 11.2165 33.1644 11.2829 32.8967 11.3874L32.71 11.4612L32.5145 11.4152C32.2724 11.3582 32.059 11.2876 31.8614 11.1992C31.6292 11.0951 31.4577 10.9608 31.3369 10.7893C31.2988 10.7349 31.2669 10.6774 31.2371 10.6183L31.2324 10.6084C31.2083 10.5885 31.1806 10.5723 31.155 10.554C31.029 10.4682 30.8569 10.3506 30.7262 10.144C30.7236 10.1399 30.7205 10.1352 30.7178 10.1304C30.5903 10.1765 30.4596 10.2172 30.3294 10.2549C30.2886 10.9074 30.3205 11.5652 30.4454 12.2073C30.5348 12.6674 30.6661 13.1187 30.7979 13.5683C31.2496 15.115 31.6653 16.7861 32.4977 18.1801C32.6086 18.3663 32.6922 18.6021 32.8036 18.7882C32.7827 19.0151 32.7126 19.2358 32.7022 19.4633C32.6922 19.6902 32.7403 19.9265 32.9286 20.0541C33.0515 20.36 32.8141 20.6962 32.8381 21.0246C32.8538 21.2452 32.9866 21.4413 33.0201 21.6599C33.0562 21.8931 32.9777 22.1435 33.0671 22.3626C33.1032 22.451 33.1649 22.5278 33.1973 22.6183C33.235 22.7234 33.2292 22.8379 33.2481 22.9482C33.3186 23.3639 33.7312 23.651 34.1469 23.7236C34.3545 23.7597 34.5903 23.7461 34.7435 23.6013C34.8486 23.502 34.8967 23.3571 34.9291 23.2159C35.0896 22.5158 34.9437 21.7508 34.5369 21.1584C34.6949 20.9712 34.7325 20.7087 34.7121 20.4646Z" fill="#393536"></path><path d="M15.7461 21.994C15.6384 21.8204 15.5207 21.6525 15.3947 21.492C15.3158 21.3916 15.2326 21.2928 15.173 21.1799C15.0381 20.9221 15.081 20.6345 15.0057 20.3553C14.8975 19.9542 14.8086 19.5438 14.7714 19.1291C14.4603 18.4897 14.2522 17.7927 14.1503 17.0267C14.1477 17.0314 14.145 17.0366 14.1424 17.0413C14.1043 17.1087 14.0619 17.1851 14.0452 17.2405C14.0248 17.3064 14.019 17.4104 14.0122 17.5203C13.9934 17.8382 13.9741 18.167 14.0535 18.4217C14.132 18.6727 14.1477 18.9132 14.1618 19.126C14.1712 19.264 14.1796 19.3942 14.2047 19.4941C14.2454 19.6609 14.3505 19.8449 14.4462 20.0049C14.6083 20.2763 14.8797 20.7297 14.7474 21.2693C14.7328 21.3294 14.7124 21.3874 14.6909 21.4455L14.6789 21.4763C14.6731 21.5014 14.6721 21.5276 14.669 21.5532C14.6601 21.6374 14.6491 21.721 14.6287 21.8016C14.5759 22.0149 14.4541 22.1618 14.3809 22.2491C14.3704 22.2622 14.3594 22.2742 14.3579 22.2742C14.3354 22.3134 14.2831 22.395 14.1984 22.475C14.2805 22.5676 14.36 22.646 14.4217 22.76C14.4854 22.8771 14.5466 22.9854 14.6705 23.0491C14.8462 23.1401 15.0386 23.1161 15.2279 23.1197C15.4209 23.1229 15.596 23.0638 15.7524 22.9508C15.7748 22.9346 15.7989 22.9111 15.7937 22.8834C15.7895 22.8619 15.7675 22.8431 15.7743 22.8222C15.7785 22.8102 15.7911 22.8039 15.802 22.7971C15.926 22.7229 15.8935 22.5278 15.8883 22.4044C15.882 22.2617 15.8209 22.1142 15.7461 21.994Z" fill="#393536"></path><path d="M17.54 14.1082C17.6206 14.0177 17.7 13.9262 17.7638 13.8227C17.8402 13.6983 17.883 13.5874 17.9808 13.4755C18.0807 13.3605 18.1837 13.2481 18.2731 13.1241C18.5528 12.7367 18.7834 12.3142 18.9581 11.8692C19.1144 11.4692 19.2922 11.0807 19.47 10.6917C18.293 11.4975 17.6498 12.8115 17.54 14.1082Z" fill="#393536"></path><path d="M44.1004 5.55309C44.0879 5.49453 44.0643 5.43858 44.0429 5.38211C43.9697 5.19126 43.9231 4.9931 43.8876 4.79231C43.8311 4.47545 43.8102 4.15073 43.8149 3.82864C43.8782 3.83701 43.943 3.83597 44.0063 3.82552C44.0225 3.8229 44.0413 3.81714 44.0471 3.80198C44.0507 3.791 44.0466 3.7795 44.0424 3.76904C43.9937 3.6446 44.0303 3.48877 43.9378 3.39152C43.8531 3.30211 43.9242 3.14211 43.8583 3.03753C43.8254 2.98472 43.7647 2.95805 43.714 2.9225C43.6261 2.85975 43.5639 2.7625 43.5435 2.65688C43.5231 2.55074 43.5456 2.43728 43.6042 2.34682C43.5603 2.14551 43.566 1.92433 43.6115 1.72354C43.6288 1.64668 43.6528 1.57034 43.6549 1.49139C43.657 1.41296 43.6335 1.32877 43.5718 1.2791C43.5095 1.22942 43.4201 1.22576 43.3428 1.24511C43.2648 1.26498 43.1937 1.30472 43.12 1.33557C42.96 1.40197 42.8147 1.40877 42.6421 1.38733C42.286 1.08668 41.8865 0.881712 41.4499 0.718052C41.4217 0.623934 41.3929 0.52826 41.3344 0.449306C41.2894 0.389175 41.2282 0.34107 41.1587 0.311789C41.0254 0.256364 40.8727 0.272566 40.7331 0.310736C40.594 0.348383 40.4967 0.437278 40.3571 0.415318C40.2029 0.390742 40.0544 0.349427 39.8981 0.33531C39.5864 0.307074 39.2717 0.328518 38.9647 0.38342C38.5496 0.458191 38.1485 0.594139 37.759 0.753093C37.382 0.906296 36.9856 0.949166 36.595 1.06786C36.3054 1.1557 36.0261 1.28172 35.7286 1.33662C35.4107 1.39466 35.0745 1.37531 34.7524 1.40773C33.8667 1.49609 32.9882 1.6561 32.1281 1.88616C32.0277 1.91283 31.9268 1.94054 31.8233 1.94943C31.6601 1.9625 31.497 1.92695 31.3365 1.89296C30.3796 1.68851 29.5974 1.5557 28.6458 1.3293C28.0152 1.17923 27.3736 1.15256 26.8528 0.995175C26.5804 0.913084 24.9009 0.695569 24.7592 0.702366C24.6568 0.707595 19.6194 0.0984519 16.0899 1.08878C15.4018 1.28224 12.9004 2.65897 12.2301 2.90629C11.84 3.05008 10.9292 3.55466 10.8167 3.65557C10.7252 3.73767 10.6322 3.81976 10.5386 3.90185C10.3169 4.07806 10.1025 4.26943 9.89283 4.47126C9.36106 4.95021 8.84865 5.45949 8.47427 6.04825C8.46276 6.06655 8.45387 6.08695 8.44237 6.10525C8.46747 6.10211 8.49204 6.10002 8.51713 6.09688C8.24106 6.50264 7.99374 6.92773 7.78145 7.37009C6.20812 10.6475 6.52341 14.4974 5.69988 18.0289C5.57544 18.5602 5.33544 19.0637 4.96419 19.4637C3.30563 21.2503 1.19374 18.3076 0.380144 19.8025C-0.221686 20.9079 1.45099 21.6331 2.70485 21.735C3.54773 21.8035 4.45021 21.5902 5.18224 21.1698C6.02616 20.6841 6.74982 19.3277 7.09335 18.4509C7.81439 16.6114 7.71871 15.1913 8.05805 13.2551C8.21335 12.3677 8.3608 11.414 8.58459 10.4801C8.91505 9.09871 9.6225 7.13479 10.8685 6.12564C10.8748 6.16224 10.8769 6.2004 10.8805 6.23753C10.903 6.49635 10.9935 6.76512 11.1367 6.98211C11.3109 7.24616 11.3391 7.57714 11.4531 7.87204C11.5503 8.12459 11.7088 8.34786 11.8447 8.58263C12.0115 8.87126 12.2494 9.2127 12.366 9.52538C12.5401 9.99022 12.7137 10.4551 12.8879 10.9199C12.9375 11.0522 12.9877 11.1881 12.9856 11.3293C12.9825 11.5698 12.8288 11.7967 12.8601 12.0347C12.8685 12.0979 12.8769 12.1513 12.8821 12.214C12.9009 12.4362 12.8361 12.6564 12.755 12.8639C12.674 13.071 12.5757 13.2728 12.5203 13.4882C12.457 13.734 12.4152 13.9625 12.2981 14.1894C12.1715 14.4357 11.9341 14.6391 11.7747 14.866C11.612 15.0971 11.4782 15.3575 11.45 15.6383C11.4384 15.7507 11.4442 15.8642 11.451 15.9766C11.4703 16.3003 11.4855 16.6198 11.5367 16.9392L11.6204 17.459C11.6418 17.5902 11.6398 17.6964 11.6361 17.8255C11.6319 17.9871 11.6701 18.1586 11.6879 18.3186C11.7072 18.488 11.7266 18.6569 11.7485 18.8258C11.7898 19.1479 11.7574 19.4778 11.8045 19.8025C11.7877 19.8386 11.8201 19.8762 11.8421 19.9097C11.8834 19.974 11.8892 20.0545 11.8834 20.1303C11.8771 20.2067 11.8604 20.282 11.8609 20.3578C11.8625 20.4911 11.9435 20.6135 11.9869 20.739C12.0303 20.866 12.0748 20.9947 12.1496 21.106C12.2249 21.2174 12.3357 21.311 12.4675 21.3361C12.4607 21.472 12.5694 21.5829 12.6698 21.6744C12.743 21.7413 12.8183 21.8093 12.9098 21.8464C12.9872 21.8778 13.0735 21.8856 13.1477 21.9233C13.2178 21.9588 13.2764 22.02 13.3537 22.0336C13.4186 22.0451 13.4845 22.0205 13.5498 22.0232C13.6131 22.0263 13.6811 22.0535 13.7365 22.0232C13.7673 22.0059 13.7867 21.9745 13.805 21.9447C13.806 21.9426 13.8081 21.9405 13.8092 21.9385C13.8688 21.8428 13.9765 21.7554 14.0032 21.6467C14.0314 21.5332 14.0267 21.4135 14.0591 21.3011C14.0769 21.2388 14.1056 21.1803 14.1213 21.117C14.1898 20.8367 14.0309 20.5659 13.8934 20.3353C13.7637 20.1183 13.6392 19.894 13.5786 19.6483C13.4965 19.3126 13.542 18.9439 13.439 18.614C13.325 18.2511 13.3464 17.8621 13.3689 17.4825C13.3778 17.3371 13.3867 17.1902 13.429 17.0511C13.4646 16.9356 13.5226 16.8284 13.5822 16.7233C13.6826 16.5466 13.7731 16.3149 13.9263 16.1816C13.9775 16.1377 14.0272 16.0922 14.0779 16.0472C14.1935 15.9442 14.3064 15.8386 14.4063 15.7204C14.6102 15.4788 14.7577 15.1954 14.9328 14.9319C15.0766 14.7154 15.2952 14.5492 15.4358 14.3306C15.496 14.2375 15.5561 14.1439 15.6314 14.0619C15.6863 14.0022 15.749 13.9489 15.8013 13.8867C15.8808 13.7931 15.9352 13.6807 15.9958 13.5735C16.2902 13.0548 16.7388 12.6454 17.1305 12.1962C17.2042 12.1115 17.2763 12.0247 17.3245 11.9233C17.3862 11.7921 17.3794 11.6211 17.462 11.5019C17.7067 11.1489 17.9315 10.7756 18.056 10.3646C18.1234 10.1413 18.1605 9.91074 18.2238 9.68642C18.2473 9.60172 18.2735 9.51125 18.3033 9.42184C18.3524 9.27491 18.4141 9.13114 18.513 9.02499C18.5119 9.00355 18.5428 8.99832 18.5642 9.00198C18.674 9.01871 18.7822 9.04799 18.8931 9.05584C19.0175 9.06473 19.142 9.04642 19.2654 9.02812C19.2884 9.02498 19.3156 9.01557 19.3401 9.01034C19.4594 8.98315 19.5927 8.93871 19.703 8.9225C19.7349 8.97061 19.7548 9.02707 19.7605 9.08459C19.7684 9.02551 19.7762 8.9659 19.7846 8.90629C19.7856 8.89792 19.7893 8.89009 19.7924 8.88277C19.794 8.87963 19.7935 8.87597 19.7961 8.87335C19.8092 8.85924 19.8317 8.8608 19.8505 8.86394L19.8573 8.86499L19.9812 8.88433C20.0032 8.88747 20.0251 8.89113 20.0476 8.88957C20.0722 8.888 20.0962 8.88015 20.1208 8.87544C20.1647 8.8676 20.2102 8.8723 20.2552 8.87439C20.2672 8.87491 20.2782 8.87388 20.2897 8.87388C20.3467 8.87493 20.4267 8.8242 20.4711 8.78917C20.4513 8.97113 20.4544 9.15623 20.4805 9.33767C20.4868 9.19283 20.4931 9.04799 20.5103 8.90367C20.5135 8.87544 20.5255 8.82786 20.5543 8.82368C20.6975 8.80381 20.846 8.74838 20.9877 8.71701C20.9652 8.79805 20.9579 8.88328 20.9652 8.96694C21.0358 8.9021 21.0865 8.81635 21.1085 8.72328C21.1059 8.77243 21.1049 8.82159 21.1054 8.87074C21.1456 8.831 21.1765 8.78133 21.1937 8.72748C21.1713 8.83153 21.1613 8.93819 21.1634 9.04433C21.2105 8.93034 21.2837 8.78028 21.3652 8.68825C21.3668 8.80956 21.3689 8.93086 21.3705 9.05217C21.4667 8.90628 21.61 8.76093 21.7323 8.63596C21.8118 8.55544 21.943 8.56694 22.0513 8.534C22.0659 8.52929 22.0795 8.52146 22.0941 8.51571C22.1668 8.48591 22.2363 8.4446 22.3143 8.43832C22.3854 8.43257 22.456 8.45819 22.5271 8.4561C22.663 8.45191 22.8032 8.34158 22.8978 8.24381C23.2952 8.20145 23.6931 8.28773 24.09 8.33427C24.4936 8.38237 24.9056 8.39022 25.2936 8.51048C25.4364 8.5544 25.5932 8.61661 25.7422 8.62446C25.9477 8.63544 26.1511 8.66786 26.3519 8.71126C26.5354 8.75048 26.7163 8.80014 26.8962 8.85191C26.9877 8.87753 27.0792 8.90369 27.1702 8.93035C27.3239 8.97532 27.4782 9.02028 27.6366 9.04433C27.7396 9.06002 27.8437 9.0663 27.9451 9.09035C28.1381 9.13584 28.3122 9.24146 28.5056 9.28381C28.7174 9.33087 28.9438 9.30054 29.1482 9.37322C29.2481 9.40878 29.3375 9.52643 29.4411 9.52277C29.4468 9.52224 29.452 9.5259 29.4578 9.52486C29.5875 9.50237 29.7135 9.45949 29.8301 9.39779C29.7935 9.44537 29.7501 9.48772 29.702 9.52328C29.7888 9.50602 29.8756 9.4893 29.9629 9.47204C29.9341 9.5123 29.9059 9.55256 29.8777 9.59335C30.0215 9.5672 30.1951 9.50916 30.3305 9.45583C30.2568 9.52642 30.1783 9.59231 30.0967 9.65349C30.2008 9.62421 30.3028 9.58865 30.4047 9.55361C30.4466 9.53897 30.4894 9.52799 30.5307 9.5123C30.6123 9.4825 30.789 9.40041 30.8737 9.42813C30.8983 9.43597 30.9187 9.45218 30.9386 9.46839C31.0034 9.52172 31.0683 9.57453 31.1331 9.62786C31.1603 9.64982 31.1875 9.6723 31.2089 9.69949C31.233 9.72982 31.2492 9.7659 31.2701 9.79884C31.3893 9.98655 31.6408 10.055 31.7632 10.2401C31.8013 10.2971 31.8248 10.363 31.8641 10.419C31.9268 10.5084 32.0251 10.5664 32.1245 10.6109C32.2991 10.6888 32.4758 10.7437 32.662 10.7876C33.1655 10.5905 33.7072 10.5152 34.2269 10.3672C34.2829 10.351 34.3399 10.3385 34.3953 10.3202C34.7096 10.2182 35.0102 10.0801 35.3177 9.95936C36.0147 9.68538 36.7943 9.62264 37.4698 9.30003C37.6858 9.19702 37.9054 9.10133 38.1281 9.01349C38.2081 8.98159 38.2897 8.95074 38.3754 8.93924C38.5553 8.91571 38.7394 8.98106 38.9182 8.94969C39.0588 8.92512 39.1822 8.84407 39.3192 8.80381C39.4745 8.75832 39.6398 8.76826 39.8008 8.77871C40.0382 8.79388 40.2913 8.78289 40.5276 8.80903C40.6588 8.82315 40.7911 8.7991 40.9229 8.79387C41.1007 8.78707 41.2784 8.81531 41.4567 8.81897C41.6345 8.82316 41.8212 8.79962 41.9692 8.7008C42.0157 8.66995 42.058 8.63179 42.1093 8.61035C42.1668 8.5863 42.2311 8.58524 42.2933 8.5842C42.4889 8.58158 42.7069 8.56591 42.9025 8.56277C43.0013 8.4812 43.0933 8.38656 43.1472 8.26996C43.2011 8.15388 43.2115 8.01165 43.1493 7.89923C43.0154 7.65714 42.6562 7.52068 42.4298 7.38839C42.3754 7.35649 42.32 7.3246 42.2599 7.30473C42.1647 7.27283 42.0617 7.27387 41.9608 7.27701C41.5258 7.29113 41.085 7.33975 40.6588 7.24982C40.4847 7.21269 40.3148 7.15257 40.1381 7.13531C39.9786 7.1191 39.8154 7.13793 39.6596 7.09976C39.5242 7.0663 39.405 6.99047 39.2664 6.9774C39.3872 6.93296 39.508 6.88851 39.6288 6.84354C39.657 6.83308 39.6852 6.82263 39.7098 6.80537C39.7448 6.7808 39.7715 6.74264 39.8123 6.73009C39.839 6.72224 39.8682 6.72591 39.8939 6.71493C39.9577 6.68669 39.9582 6.58211 40.023 6.55596C40.0643 6.53976 40.1135 6.56329 40.1548 6.5476C40.1961 6.53192 40.216 6.48329 40.2552 6.46394C40.2782 6.45244 40.3049 6.45243 40.3305 6.44982C40.4382 6.43884 40.5307 6.374 40.6296 6.33008C40.7728 6.26629 40.9401 6.24591 41.0881 6.29767C41.1833 6.33061 41.2659 6.39126 41.3469 6.45087C41.6084 6.64224 41.8693 6.83414 42.1182 7.04172C42.1752 7.08983 42.2322 7.13897 42.2981 7.17401C42.4418 7.25087 42.6233 7.25244 42.7686 7.17924C42.914 7.10552 43.0196 6.95858 43.0426 6.79701C43.1665 6.8357 43.3004 6.76616 43.3924 6.67518C43.485 6.58368 43.5529 6.46916 43.6507 6.38393C43.7344 6.31021 43.8363 6.26054 43.9263 6.19571C44.0167 6.13087 44.1297 6.04406 44.1182 5.93321C44.115 5.90184 44.1166 5.86944 44.1166 5.83806C44.1161 5.74238 44.1208 5.64616 44.1004 5.55309Z" fill="#393536"></path><path d="M151.242 50.2292C151.223 50.2177 151.207 50.2141 151.19 50.2141C151.144 50.2141 151.092 50.2444 150.971 50.2444C150.806 50.2444 150.4 50.2857 150.4 50.2857L150.279 50.3066C150.279 50.3066 150.354 50.2548 150.279 50.2182C150.262 50.2104 150.223 50.2073 150.172 50.2073C150.126 50.2073 150.07 50.2099 150.01 50.212C149.949 50.2141 149.886 50.2167 149.826 50.2167C149.717 50.2167 149.618 50.2093 149.572 50.1822C149.447 50.11 149.347 49.5364 149.347 49.5364C149.347 49.5364 149.07 48.9785 148.685 48.5806C148.299 48.1827 147.847 47.6912 147.642 47.4799C147.436 47.2676 147.035 46.8959 146.755 46.7097C146.473 46.5236 146.107 46.281 145.927 46.2548C145.874 46.2475 145.733 46.2449 145.561 46.2449C145.149 46.2449 144.558 46.2601 144.558 46.2601C144.558 46.2601 144.471 46.3014 144.387 46.3014C144.344 46.3014 144.303 46.2914 144.273 46.2601C144.182 46.167 143.535 46.0279 143.535 46.0279C143.535 46.0279 142.954 45.8313 142.748 45.8313C142.611 45.8313 142.24 45.8083 141.932 45.8083C141.778 45.8083 141.64 45.8141 141.555 45.8313C141.299 45.8831 140.798 46.1309 140.642 46.2914C140.487 46.4514 140.251 47.082 140.221 47.3042C140.191 47.5265 140.071 47.8465 140.116 47.9756C140.161 48.1048 140.121 48.224 140.046 48.224C139.97 48.224 138.872 48.2078 138.576 48.0995C138.28 47.9918 137.548 47.7226 137.288 47.6708C137.121 47.6379 136.87 47.5364 136.434 47.5364C136.191 47.5364 135.89 47.5683 135.513 47.6603C134.46 47.9191 134.114 48.1257 133.572 48.6219C133.031 49.1181 132.519 49.8773 132.334 50.0687C132.149 50.2601 131.687 51.0716 131.562 51.149C131.436 51.2263 130.812 51.8491 130.704 51.9599C130.597 52.0713 130.399 52.2496 130.253 52.3997C130.108 52.5492 129.852 52.8232 130.624 52.9058C131.148 52.9618 131.506 53.1369 131.72 53.1369C131.82 53.1369 131.889 53.0982 131.927 52.9884C131.978 52.8462 132.062 52.8044 132.142 52.8044C132.254 52.8044 132.359 52.8849 132.359 52.8849C132.359 52.8849 132.515 52.4253 132.178 52.3892C132.147 52.3856 132.118 52.3845 132.09 52.3845C131.812 52.3845 131.662 52.5388 131.517 52.6888C131.448 52.7594 131.294 52.7861 131.133 52.7861C130.918 52.7861 130.693 52.739 130.644 52.6888C130.559 52.601 130.574 52.5853 130.749 52.4044C130.925 52.224 131.517 51.8418 131.687 51.7482C131.735 51.722 131.772 51.7126 131.804 51.7126C131.883 51.7126 131.919 51.7743 131.972 51.7743C132.048 51.7743 132.221 51.596 132.311 51.5029C132.402 51.4099 132.439 51.2002 132.439 51.2002C132.439 51.2002 132.349 51.9369 132.409 52.1696C132.47 52.4018 132.65 53.1537 132.785 53.4951C132.92 53.836 132.935 53.9364 133.018 54.5027C133.101 55.0684 133.206 56.2156 133.154 56.5492C133.101 56.8823 133.138 57.231 133.101 57.4559C133.063 57.6807 133.094 58.4012 133.274 58.8358C133.454 59.2697 133.372 59.3712 133.372 59.4329C133.372 59.4857 133.361 59.5897 133.701 59.5897C133.758 59.5897 133.826 59.5871 133.905 59.5798C134.001 59.572 134.09 59.5688 134.174 59.5688C134.289 59.5688 134.392 59.5746 134.485 59.5798C134.577 59.585 134.658 59.5908 134.727 59.5908C134.832 59.5908 134.908 59.5777 134.951 59.5333C135.072 59.4093 135.004 59.2933 134.831 58.9832C134.657 58.6726 134.612 58.6031 134.612 58.2078C134.612 57.813 134.612 57.5259 134.763 57.2933C134.914 57.0606 135.392 56.5837 135.748 56.2156C136.106 55.8475 136.516 55.6812 136.516 55.5024C136.516 55.3241 136.583 55.0684 136.583 55.0684C136.583 55.0684 136.585 55.0679 136.594 55.0679C136.622 55.0679 136.726 55.0778 137.065 55.1688C137.152 55.1929 137.263 55.2028 137.389 55.2028C137.884 55.2028 138.589 55.0449 138.787 54.921C138.97 54.807 139.109 54.7369 139.199 54.7369C139.23 54.7369 139.257 54.7463 139.275 54.7662C139.347 54.8399 139.347 54.9754 139.347 55.1463C139.347 55.1463 139.456 55.1688 139.494 55.3011C139.532 55.4329 139.546 55.7816 139.546 56.1691C139.546 56.5571 139.449 57.1307 139.449 57.2232C139.449 57.3163 139.314 57.5955 139.209 57.7811C139.103 57.9678 138.689 58.5952 138.636 58.6496C138.584 58.704 138.279 58.8938 138.095 59.0841C137.91 59.2739 137.672 59.4606 137.772 59.4716C137.772 59.4716 138.415 59.5463 138.93 59.5463C139.175 59.5463 139.39 59.5291 139.494 59.4794C139.815 59.3241 139.81 59.3241 139.81 59.2724C139.81 59.2206 139.659 59.0402 139.735 58.9006C139.81 58.761 140.188 58.4588 140.312 58.3317C140.435 58.2052 140.652 57.7738 140.718 57.5307C140.782 57.288 141.123 56.1513 141.123 56.1513L141.559 55.0559L141.715 54.4975C141.715 54.4975 141.786 54.2752 141.83 54.2752C141.876 54.2752 141.931 54.2805 141.993 54.3971C142.056 54.5131 142.653 55.2781 142.653 55.2781C142.653 55.2781 142.894 55.6185 142.949 55.7429C143.004 55.8669 143.295 56.2805 143.315 56.4201C143.335 56.5597 143.49 57.3398 143.52 57.4172C143.55 57.4951 143.866 58.213 143.866 58.213C143.866 58.213 143.972 58.5126 143.972 58.6418C143.972 58.7709 144.009 59.218 143.952 59.2776C143.894 59.3372 143.891 59.5406 144.047 59.5406H145.09C145.09 59.5406 145.216 59.5537 145.338 59.5537C145.454 59.5537 145.566 59.5422 145.566 59.4998C145.566 59.412 145.591 59.3346 145.406 59.1955C145.221 59.0548 144.934 58.9466 144.899 58.7808C144.864 58.6161 144.874 57.629 144.834 57.4998C144.793 57.3707 144.653 56.3578 144.653 56.0117C144.653 55.6656 144.598 55.1024 144.563 54.8337C144.528 54.5644 144.302 53.9186 144.187 53.6499C144.072 53.3811 144.047 52.4823 144.047 52.3788C144.047 52.2752 144.022 52.0792 144.137 51.9599C144.252 51.8418 144.668 51.2211 144.668 51.2211C144.668 51.2211 144.714 51.172 144.767 51.172C144.802 51.172 144.839 51.1934 144.869 51.2624C144.944 51.4381 144.894 52.0483 144.944 52.0483C144.995 52.0483 145.075 51.996 145.075 51.893C145.075 51.7895 145.135 51.2211 145.135 51.128C145.135 51.0355 145.105 50.8593 145.175 50.7871C145.245 50.7144 145.526 50.5649 145.621 50.5649C145.684 50.5649 145.96 50.5832 146.148 50.5832C146.242 50.5832 146.314 50.5785 146.328 50.5649C146.368 50.5236 146.724 50.3584 146.779 50.3014C146.835 50.2444 147.1 50.2292 147.291 50.2292C147.481 50.2292 147.76 50.3192 147.852 50.4148C147.945 50.5105 148.209 50.6679 148.209 51.0972V52.0891C148.209 52.3474 148.008 52.544 147.757 52.544C147.507 52.544 147.306 52.3788 147.306 52.2287C147.306 52.0791 147.238 51.8026 147.306 51.7325C147.374 51.663 147.542 51.3973 147.542 51.3973C147.542 51.3973 147.624 51.3063 147.571 51.252C147.519 51.1981 147.376 51.1981 147.326 51.1981C147.276 51.1981 147.296 50.9633 147.296 50.9633C147.296 50.9633 147.282 50.932 147.252 50.932C147.237 50.932 147.218 50.9398 147.195 50.9633C147.128 51.0329 146.744 51.6091 146.744 51.9082C146.744 51.9082 146.493 52.7249 146.99 53.1233C146.99 53.1233 147.341 53.4773 147.872 53.4773C147.984 53.4773 148.106 53.4616 148.233 53.4224C148.233 53.4224 149.096 53.0094 149.399 52.2214C149.399 52.2214 149.592 51.5934 149.592 51.252C149.592 50.9111 149.602 50.6888 149.602 50.6888C149.602 50.6888 149.744 50.6951 149.918 50.6951C150.108 50.6951 150.337 50.6878 150.45 50.658C150.665 50.601 151.172 50.3735 151.172 50.3735C151.172 50.3735 151.313 50.2705 151.242 50.2292Z" fill="#393536"></path></g><defs><clipPath id="clip0_1_2"><rect width="205.882" height="60" fill="white"></rect></clipPath></defs></svg> 